<svg width="288" height="160" viewBox="0 0 288 160" fill="none" xmlns="http://www.w3.org/2000/svg">
<path d="M135.325 120.612C135.423 124.629 134.862 128.637 133.572 132.437C131.8 137.655 128.364 143.455 121.866 143.455C114.915 143.455 98.4327 131.64 98.4327 107.872C98.4327 85.8568 113.034 79.8016 116.903 79.8016C121.127 79.8016 134.488 84.4587 135.335 120.612H135.325Z" fill="#36B78B"/>
<path d="M142.25 76.6788C142.25 76.6788 162.562 69.2551 172.113 66.0159C181.771 62.7372 189.175 66.2522 189.894 71.9627C190.603 77.5157 181.574 89.3898 166.973 89.6851L142.24 76.6788H142.25Z" fill="#EA8C2E"/>
<path d="M166.094 107.383C179.169 110.14 194.361 100.451 194.361 91.0683C194.361 80.7893 173.212 82.5025 173.212 82.5025L166.98 89.68L166.094 107.383Z" fill="#EA8C2E"/>
<path d="M156.079 124.45C174.254 132.977 191.75 123.072 191.75 113.945C191.75 104.818 177.376 101.244 177.376 101.244L166.092 107.387L156.079 124.44V124.45Z" fill="#EA8C2E"/>
<path d="M154.343 75.9163C145.304 68.0692 148.484 52.5818 148.484 46.4282C148.484 40.2745 145.698 30.8423 139.84 30.8423C133.982 30.8423 132.731 40.9736 132.731 47.7278C132.731 69.4771 114.359 77.8165 114.359 102.293C114.359 130.295 138.117 144 161.875 144C172.449 144 186.154 138.782 186.154 129.999C186.154 121.217 175.127 122.251 175.127 122.251L167.772 89.7299L154.323 75.9261L154.343 75.9163Z" fill="#EA8C2E"/>
<path d="M111.131 126.746L110.757 134.228C110.757 134.228 113.474 135.606 116.378 135.606L117.757 129.05C117.757 129.05 112.539 127.75 111.131 126.736V126.746Z" fill="#EFBD03"/>
<path d="M166.094 107.388C179.169 110.145 194.361 100.456 194.361 91.0734L166.094 107.388Z" fill="#EA8C2E"/>
<path d="M147.95 56.6544C147.704 62.5717 145.41 72.9689 142.249 76.6906L151.869 73.2052C148.482 68.4595 147.852 62.1878 147.95 56.6544Z" fill="#D06204"/>
<path d="M192.109 86.1834C190.12 84.4407 187.058 83.4857 183.976 82.9639C179.988 86.5773 174.16 89.531 166.982 89.6787C177.34 93.7745 187.294 90.4073 192.109 86.1834Z" fill="#D06204"/>
<path d="M190.344 109.259C188.956 107.073 186.731 105.39 184.506 104.139C179.159 107.152 172.385 108.718 166.094 107.388C173.38 112.045 183.324 112.154 190.344 109.259Z" fill="#D06204"/>
<path d="M186.153 130.394C186.153 130.256 186.173 130.128 186.173 129.99C186.173 127.332 185.159 125.58 183.751 124.418C176.948 128.13 166.619 129.39 156.075 124.447C166.403 133.092 178.562 133.643 186.144 130.394H186.153Z" fill="#D06204"/>
<path d="M126.342 131.168C125.594 136.692 121.074 139.832 114.714 140.876C117.451 142.589 120.011 143.446 121.882 143.446C127.012 143.446 130.221 139.842 132.23 135.766C130.133 134.407 128.163 132.871 126.352 131.168H126.342Z" fill="#0C936B"/>
<path d="M131.526 23.5222L124.004 16L116.482 23.5222L124.004 31.0444L131.526 23.5222Z" fill="#7145D6"/>
<path d="M176.728 44.0404L169.206 36.5182L161.684 44.0404L169.206 51.5626L176.728 44.0404Z" fill="#7145D6"/>
<path d="M109.089 58.3054L101.567 50.7832L94.0449 58.3054L101.567 65.8276L109.089 58.3054Z" fill="#7145D6"/>
</svg>
