<svg fill="none" xmlns="http://www.w3.org/2000/svg" viewBox="0 0 16 16"><path d="M16 8.786c0-.461-.314-.863-.762-.972-1.06-.26-2.89-.711-3.238-.814-.075-.075-.167-.195-.282-.346C11.068 5.805 9.686 4 6.5 4 4.151 4 2.722 5.532 2.212 6.198c-.145.189-.336.343-.563.419l-.874.291c-.17.057-.297.2-.332.377L0 9.5c0 1.75 1.25 2.5 1.641 2.49-.09-.229-.141-.478-.141-.74 0-1.104.895-2 2-2s2 .896 2 2c0 .265-.051.518-.145.75l5.04-.003c-.094-.23-.145-.483-.145-.747 0-1.105.895-2 2-2s2 .895 2 2c0 .265-.052.518-.145.75h.394c.829 0 1.501-.672 1.501-1.5z" fill="#7D7FA5"/><path d="M3.5 10c-.69 0-1.25.56-1.25 1.25s.56 1.25 1.25 1.25 1.25-.56 1.25-1.25S4.19 10 3.5 10" fill="#2E2E2E"/><path d="M12.25 12.5c.69 0 1.25-.56 1.25-1.25S12.94 10 12.25 10 11 10.56 11 11.25s.56 1.25 1.25 1.25" fill="#2E2E2E"/></svg>