<svg fill="none" xmlns="http://www.w3.org/2000/svg" viewBox="0 0 288 160"><g clip-path="url(#prefix__clip0_9739_68674)"><path d="M61.8973 117.308C53.9433 117.308 45.5352 112.767 36.2108 103.443C27.8433 95.0754 23.8541 87.2429 24 79.4754C24.2189 68.0997 33.6 59.424 41.1325 52.451C42.7784 50.9267 44.3352 49.4835 45.7379 48.0889L48.6 50.951C47.1406 52.4105 45.5595 53.8781 43.8811 55.4267C36.5433 62.2132 28.2325 69.8997 28.046 79.5483C27.9162 86.1483 31.5243 93.024 39.0649 100.573C47.5946 109.102 55.0622 113.254 61.8892 113.254C61.9379 113.254 61.9784 113.254 62.0271 113.254C70.573 113.181 76.9622 106.581 83.1406 100.2C84.0568 99.251 84.9568 98.3186 85.8487 97.4267L88.7108 100.289C87.8352 101.165 86.9433 102.081 86.0433 103.013C79.5973 109.67 72.2919 117.219 62.0514 117.308C61.9946 117.308 61.9379 117.308 61.8811 117.308H61.8973Z" fill="#DBDCE8"/><path d="M106.751 82.2566L103.889 79.3944C111.495 71.789 122.441 60.5512 131.238 51.5269C137.449 45.1539 142.816 39.6485 145.443 37.0214C148.662 33.8025 152.611 30.3728 157.476 29.3593C162.908 28.2323 168.422 30.4214 173.878 35.8782L171.016 38.7404C166.524 34.2485 162.373 32.4809 158.303 33.3241C154.484 34.1187 151.103 37.0863 148.305 39.8836C145.695 42.4944 140.343 47.9917 134.141 54.3566C125.335 63.3971 114.373 74.6431 106.751 82.2647V82.2566Z" fill="#DBDCE8"/><path d="M181.395 88.8567L178.532 85.9946C183.803 80.7243 189.243 75.2838 191.87 70.3865C194.473 65.5216 194.027 61.7432 190.419 58.1351L193.281 55.2729C198.154 60.1459 198.876 65.8702 195.438 72.3C192.535 77.7243 186.868 83.3838 181.395 88.8567Z" fill="#DBDCE8"/><path d="M106.751 100.289L103.889 97.4271L121.873 79.4433C134.368 66.9487 150.17 68.9919 166.37 85.1919L163.508 88.0541C153.357 77.9027 138.389 68.6595 124.735 82.3054L106.751 100.289Z" fill="#DBDCE8"/><path d="M141.43 119.238C133.232 119.238 124.727 114.584 114.989 104.846L117.851 101.984C128.116 112.249 136.613 116.343 144.6 114.9C152.027 113.554 158.643 107.432 165.332 100.743L168.195 103.605C161.035 110.765 153.892 117.324 145.322 118.881C144.024 119.116 142.727 119.238 141.422 119.238H141.43Z" fill="#DBDCE8"/><path d="M232.184 117.308H204.008C190.005 117.308 182.473 108.706 177.973 103.565C177.186 102.673 176.514 101.895 175.914 101.303L178.776 98.4409C179.465 99.1301 180.178 99.949 181.014 100.898C185.327 105.819 191.846 113.254 204.008 113.254H232.184V117.308Z" fill="#DBDCE8"/><path d="M68.5784 53.7889C68.5784 52.4106 67.9459 48.3727 67.9459 48.3727H66.1621C65.9189 48.1214 65.6594 47.8781 65.3838 47.6511L53.5784 37.6781C51.9081 36.2754 49.7351 35.5781 47.5621 35.5781C45.3892 35.5781 43.2 36.2754 41.4729 37.6781L29.6675 47.6511C29.3919 47.8781 29.1405 48.1214 28.8973 48.3727H27.1054C26.6756 49.7754 26.4648 52.6376 26.4648 54.2916C26.4892 56.2052 27.2351 58.0781 28.7432 59.57L40.5405 71.5619C42.454 73.4511 45.0081 74.4079 47.5621 74.4079C50.1162 74.4079 52.6378 73.4511 54.4946 71.5619L66.2919 59.57C67.9054 57.9322 68.627 55.8727 68.554 53.8295C68.554 53.8214 68.5702 53.8052 68.5702 53.797L68.5784 53.7889Z" fill="#EA8C2E"/><path d="M41.6108 33.8025L30.073 43.5485C26.319 46.6944 25.8406 51.9079 29.173 55.1917L40.7027 66.916C44.473 70.6377 50.6757 70.6377 54.3406 66.916L65.8703 55.1917C69.1946 51.8106 68.7081 46.5971 64.9703 43.5485L53.4325 33.8025C50.1811 31.0782 44.9514 31.0782 41.6108 33.8025Z" fill="#FDDB61"/><path d="M47.1811 45.0649L42.6162 49.1758L47.173 53.4406L51.7378 49.1758L47.1811 45.0649Z" fill="#EA8C2E"/><path d="M47.5622 33.3564C49.2892 33.3564 50.9027 33.9239 52.1189 34.9456L63.6892 44.8212C65.0595 45.9483 65.8946 47.4807 66.0406 49.1348C66.1946 50.8618 65.5784 52.5239 64.3054 53.805L52.7676 65.3834C51.4135 66.7375 49.5649 67.4915 47.5622 67.4915C45.5595 67.4915 43.6622 66.7294 42.2757 65.3834L30.7216 53.7807C29.4811 52.5726 28.873 50.9753 28.9946 49.2888C29.1162 47.578 29.9676 45.9888 31.3865 44.7888L42.9 34.9618C44.173 33.9158 45.8189 33.3483 47.5541 33.3483M47.5622 31.751C45.446 31.751 43.2973 32.4321 41.6189 33.8023L30.0811 43.5483C26.327 46.6942 25.8487 51.9077 29.1811 55.1915L40.7108 66.9158C42.5838 68.7645 45.073 69.6969 47.5703 69.6969C50.0676 69.6969 52.5324 68.7645 54.3487 66.9158L65.8784 55.1915C69.2027 51.8104 68.7162 46.5969 64.9784 43.5483L53.4406 33.8023C51.8027 32.4321 49.6865 31.751 47.5622 31.751Z" fill="#FEB54E"/><path d="M131.878 93.5916C131.878 93.5916 131.878 93.5916 131.878 93.5835C131.878 90.851 131.027 85.1591 131.027 85.1591H126.105L101.246 64.1754C99.6486 62.8294 97.5649 62.1646 95.473 62.1646C93.3811 62.1646 91.273 62.8294 89.6351 64.1754L64.7757 85.1591H59.9108C59.6189 86.6348 59.1405 90.7618 59.0189 93.0808C59.0189 93.1294 59.0189 93.17 59.0189 93.2186C59.0108 93.4537 59.0027 93.6646 58.9946 93.851C58.9946 93.8673 58.9946 93.8754 58.9946 93.8916C58.9946 93.9321 58.9946 93.9727 58.9946 94.0132C58.9946 94.0537 59.0027 94.0943 59.0108 94.1348C59.1081 95.87 59.8054 97.5564 61.1676 98.8862L88.6946 126.656C90.5108 128.489 92.9432 129.405 95.4 129.405C97.8567 129.405 100.322 128.481 102.186 126.656L129.714 98.8862C131.214 97.4186 131.911 95.5213 131.878 93.5916Z" fill="#E83C96"/><path d="M61.7757 92.1969C58.573 89.0672 59.0432 83.9266 62.7 80.9266L89.7405 58.1023C92.9513 55.4672 98.027 55.4672 101.141 58.1023L128.181 80.9266C131.838 83.9348 132.3 89.0672 129.105 92.1969L102.065 119.481C98.3757 123.097 92.3919 123.097 88.8081 119.481L61.7675 92.1969H61.7757Z" fill="#FCABDA"/><path d="M104.732 74.9595L100.492 78.827L104.919 82.7676L109.159 78.827L104.741 74.9595H104.732Z" fill="#FFF3C6"/><path d="M87.7702 74.9595L83.3675 78.827L87.6243 82.7676L92.027 78.827L87.7702 74.9595Z" fill="#2EAEE4"/><path d="M87.4702 90.7217L82.8811 94.9055L87.3 99.1784L91.8892 94.9055L87.4621 90.7217H87.4702Z" fill="#D06204"/><path d="M105.105 90.7217L100.703 94.9055L105.308 99.1784L109.711 94.9055L105.105 90.7217Z" fill="#7145D6"/><path d="M95.4729 57.6649C97.1351 57.6649 98.6919 58.2081 99.8594 59.1973L126.932 82.1838C128.286 83.3027 129.113 84.827 129.251 86.4811C129.389 88.1513 128.813 89.7081 127.597 90.8919L100.573 117.973C99.1946 119.319 97.354 120.057 95.4 120.057C93.4459 120.057 91.654 119.319 90.3324 117.989L63.2675 90.8676C62.0756 89.7081 61.4919 88.1432 61.6297 86.4811C61.7675 84.827 62.5946 83.3027 63.9648 82.1676L90.9973 59.2216C92.2135 58.2162 93.8027 57.673 95.4729 57.673M95.4729 56.1162C93.4216 56.1162 91.3459 56.773 89.7405 58.0946L62.7 80.9189C59.0432 83.927 58.581 89.0595 61.7756 92.1892L88.8162 119.473C90.6 121.273 92.9919 122.173 95.4 122.173C97.8081 122.173 100.232 121.265 102.065 119.473L129.105 92.1892C132.308 89.0595 131.838 83.9189 128.181 80.9189L101.141 58.0946C99.5756 56.773 97.5243 56.1162 95.4729 56.1162Z" fill="#FB73BE"/><path d="M191.457 96.4698C191.457 95.2293 190.889 91.5806 190.889 91.5806H189.276C189.057 91.3536 188.822 91.1347 188.57 90.932L177.908 81.9239C176.4 80.659 174.438 80.0347 172.476 80.0347C170.514 80.0347 168.535 80.659 166.978 81.9239L156.316 90.932C156.065 91.1428 155.838 91.3617 155.627 91.5806H154.005C153.616 92.8536 153.422 95.432 153.422 96.9239C153.446 98.6509 154.119 100.345 155.481 101.691L166.135 112.524C167.862 114.235 170.165 115.094 172.476 115.094C174.787 115.094 177.057 114.235 178.735 112.524L189.389 101.691C190.849 100.216 191.497 98.3509 191.432 96.5103C191.432 96.5022 191.449 96.4941 191.449 96.4779L191.457 96.4698Z" fill="#5B34AC"/><path d="M167.108 78.4217L156.689 87.219C153.3 90.0568 152.862 94.7676 155.878 97.7352L166.289 108.316C169.695 111.681 175.297 111.681 178.605 108.316L189.016 97.7352C192.016 94.6865 191.578 89.9757 188.205 87.219L177.786 78.4217C174.851 75.9649 170.132 75.9649 167.108 78.4217Z" fill="#8A6EE4"/><path d="M172.135 88.5894L168.016 92.3029L172.127 96.1542L176.246 92.3029L172.135 88.5894Z" fill="#FDDB61"/><path d="M172.476 78.0246C174.032 78.0246 175.492 78.5354 176.586 79.4597L187.03 88.3787C188.262 89.3922 189.024 90.7786 189.154 92.2786C189.292 93.8435 188.741 95.3435 187.589 96.4949L177.17 106.954C175.946 108.179 174.276 108.86 172.476 108.86C170.676 108.86 168.957 108.171 167.7 106.954L157.265 96.4786C156.146 95.3922 155.595 93.9489 155.708 92.4246C155.822 90.8841 156.592 89.4408 157.873 88.3624L168.268 79.4841C169.411 78.5435 170.903 78.0246 172.468 78.0246M172.476 76.5732C170.562 76.5732 168.624 77.1895 167.108 78.4219L156.689 87.2192C153.3 90.057 152.862 94.7678 155.878 97.7354L166.289 108.316C167.984 109.987 170.23 110.83 172.484 110.83C174.738 110.83 176.959 109.987 178.605 108.316L189.016 97.7354C192.016 94.6868 191.578 89.9759 188.205 87.2192L177.786 78.4219C176.311 77.1814 174.397 76.5732 172.484 76.5732H172.476Z" fill="#7145D6"/><path d="M204.876 47.7812C204.876 46.2974 204.195 41.9353 204.195 41.9353H202.265C201.997 41.6677 201.722 41.4001 201.422 41.1569L188.684 30.3974C186.876 28.8812 184.532 28.1353 182.197 28.1353C179.854 28.1353 177.487 28.8812 175.63 30.3974L162.892 41.1569C162.592 41.4082 162.324 41.6677 162.065 41.9353H160.127C159.657 43.4515 159.43 46.5407 159.43 48.3163C159.462 50.3758 160.257 52.4028 161.887 54.0082L174.616 66.9488C176.684 68.992 179.432 70.0217 182.189 70.0217C184.946 70.0217 187.67 68.992 189.673 66.9488L202.403 54.0082C204.146 52.2407 204.924 50.019 204.843 47.8136C204.843 47.7974 204.859 47.7893 204.859 47.7731L204.876 47.7812Z" fill="#00699E"/><path d="M175.776 26.2136L163.33 36.7298C159.284 40.119 158.757 45.7541 162.357 49.2973L174.795 61.946C178.865 65.9595 185.554 65.9595 189.511 61.946L201.949 49.2973C205.541 45.6487 205.014 40.0298 200.976 36.7298L188.53 26.2136C185.027 23.2784 179.384 23.2784 175.776 26.2136Z" fill="#2EAEE4"/><path d="M181.784 38.3594L176.854 42.7945L181.768 47.3999L186.697 42.7945L181.784 38.3594Z" fill="#B0E5FE"/><path d="M182.189 25.727C184.054 25.727 185.797 26.3351 187.103 27.4459L199.589 38.1C201.065 39.3162 201.973 40.9703 202.127 42.7622C202.289 44.627 201.632 46.4189 200.254 47.8054L187.808 60.3C186.349 61.7676 184.354 62.5784 182.197 62.5784C180.041 62.5784 177.989 61.7595 176.497 60.3L164.027 47.7811C162.689 46.4838 162.032 44.7568 162.162 42.9324C162.292 41.0919 163.216 39.373 164.749 38.0757L177.17 27.4703C178.541 26.3432 180.316 25.727 182.189 25.727ZM182.189 24C179.903 24 177.592 24.7297 175.776 26.2135L163.33 36.7297C159.284 40.1189 158.757 45.7459 162.357 49.2973L174.795 61.9459C176.814 63.9405 179.505 64.9459 182.197 64.9459C184.889 64.9459 187.549 63.9405 189.511 61.9459L201.949 49.2973C205.541 45.6486 205.014 40.0297 200.976 36.7297L188.53 26.2135C186.762 24.7378 184.476 24 182.189 24Z" fill="#088AC2"/></g><path d="M251.412 103.338C244.75 95.3913 238.386 93.4863 234.416 93.4863H216.248L226.236 103.338H251.412Z" fill="url(#prefix__paint0_linear_9739_68674)"/><path d="M243.751 96.4727C246.171 97.9818 248.768 100.184 251.412 103.338H226.236C229.49 98.6611 235.336 97.8134 239.96 97.1428C241.375 96.9377 242.675 96.7492 243.751 96.4727Z" fill="url(#prefix__paint1_linear_9739_68674)"/><path d="M216.495 93.4873C209.133 93.4873 203.25 102.243 203.25 102.243L226.236 103.338C225.05 100.172 221.104 93.4873 216.495 93.4873Z" fill="url(#prefix__paint2_linear_9739_68674)"/><path d="M219.797 103.031C218.314 100.066 215.455 98.6722 212.898 97.4261C211.766 96.8744 210.693 96.3515 209.825 95.7339C206.023 98.2344 203.442 101.962 203.26 102.228C203.343 102.237 203.425 102.246 203.508 102.255L219.797 103.031Z" fill="url(#prefix__paint3_linear_9739_68674)"/><mask id="prefix__mask0_9739_68674" style="mask-type:alpha" maskUnits="userSpaceOnUse" x="198" y="102" width="66" height="17"><path fill-rule="evenodd" clip-rule="evenodd" d="M226.236 118.662H203.25C202.347 118.662 200.492 116.459 199.334 114.96C198.667 114.097 198.399 112.999 198.544 111.918C199.172 107.235 199.829 103.338 199.829 103.338L203.25 102.243L226.236 103.338H251.412L264 107.169V116.473C264 117.682 263.02 118.662 261.811 118.662H235.541H226.236Z" fill="white"/></mask><g mask="url(#prefix__mask0_9739_68674)"><path d="M264 118.662V107.169L251.412 103.338H226.236V118.662H264Z" fill="url(#prefix__paint4_linear_9739_68674)"/><path d="M237.73 116.473C237.73 117.682 236.75 118.662 235.541 118.662C228.121 118.662 204.321 118.662 203.183 118.662C201.833 118.662 198.324 113.6 198.324 113.6C198.999 108.206 199.809 103.338 199.809 103.338L203.183 102.243L226.236 103.338L237.73 107.169V116.473Z" fill="url(#prefix__paint5_linear_9739_68674)"/><path fill-rule="evenodd" clip-rule="evenodd" d="M257.843 115.378C258.938 116.473 260.716 116.473 262.085 116.473H264V118.662H198.324V116.473H240.521C241.67 116.473 243.613 116.473 244.981 115.378C246.118 114.469 247.061 114.284 247.745 114.284H254.778C256.174 114.284 256.982 114.517 257.843 115.378Z" fill="url(#prefix__paint6_linear_9739_68674)"/><path fill-rule="evenodd" clip-rule="evenodd" d="M257.843 115.378C258.938 116.473 260.716 116.473 262.085 116.473H264V118.662H198.324V116.473H240.521C241.67 116.473 243.613 116.473 244.981 115.378C246.118 114.469 247.061 114.284 247.745 114.284H254.778C256.174 114.284 256.982 114.517 257.843 115.378Z" fill="url(#prefix__paint7_linear_9739_68674)"/><path d="M237.73 107.169L226.236 103.338L203.25 102.243L199.829 103.338C201.882 104.432 206.452 106.074 214.196 106.074H226.784C231.709 106.074 231.709 108.263 236.767 108.263C237.865 108.263 237.73 108.263 237.73 108.263C237.73 107.169 237.73 108.263 237.73 107.169Z" fill="url(#prefix__paint8_linear_9739_68674)"/></g><path opacity="0.8" d="M242.929 107.169H258.801L256.611 108.264H245.118L242.929 107.169Z" fill="url(#prefix__paint9_linear_9739_68674)"/><path d="M264 107.169H256.611V108.264H264V107.169Z" fill="white"/><path d="M245.118 108.264H237.73C237.73 108.264 237.73 107.771 237.73 107.169H245.118V108.264Z" fill="white"/><path d="M237.73 108.264H236.635C236.031 108.264 235.541 107.773 235.541 107.169H237.73V108.264Z" fill="url(#prefix__paint10_radial_9739_68674)"/><rect x="235.541" y="107.169" width="2.18919" height="1.09459" fill="url(#prefix__paint11_linear_9739_68674)"/><path opacity="0.24" d="M242.108 108.263L239.399 116.473H237.73V108.263H242.108Z" fill="url(#prefix__paint12_linear_9739_68674)"/><path opacity="0.24" d="M259.622 108.263L262.577 116.473H264V108.263H259.622Z" fill="url(#prefix__paint13_linear_9739_68674)"/><path opacity="0.64" d="M210.091 116.473C210.091 115.789 210.091 114.673 210.091 114.157C210.091 110.296 208.257 107.169 205.957 107.169C203.658 107.169 201.882 110.296 201.882 114.157C201.882 114.673 201.882 115.926 201.882 116.473" fill="url(#prefix__paint14_linear_9739_68674)"/><path opacity="0.64" d="M232.53 116.473C232.53 115.926 232.53 114.673 232.53 114.157C232.53 110.296 230.696 107.169 228.397 107.169C226.097 107.169 224.321 110.296 224.321 114.157C224.321 114.673 224.321 115.926 224.321 116.473" fill="url(#prefix__paint15_linear_9739_68674)"/><path d="M209.427 118.662C209.043 118.662 208.613 118.337 208.723 117.978C209.052 117.012 209.27 115.926 209.27 114.694C209.27 111.134 208.039 107.99 205.942 107.99C203.797 107.99 202.429 111.161 202.429 114.694C202.429 118.255 204.024 120.851 205.895 120.851H209.27C210.368 120.851 211.348 120.125 212.007 118.662H209.427Z" fill="url(#prefix__paint16_linear_9739_68674)"/><path d="M231.866 118.662C231.482 118.662 231.052 118.337 231.162 117.978C231.491 117.012 231.709 115.926 231.709 114.694C231.709 111.134 230.478 107.99 228.381 107.99C226.236 107.99 224.868 111.161 224.868 114.694C224.868 118.255 226.463 120.851 228.334 120.851H231.709C232.807 120.851 233.787 120.125 234.446 118.662H231.866Z" fill="url(#prefix__paint17_linear_9739_68674)"/><path d="M247.581 118.662C248.265 120.167 248.905 120.851 250.044 120.851H253.815C254.97 120.851 255.958 120.16 256.611 118.662H247.581Z" fill="url(#prefix__paint18_linear_9739_68674)"/><path d="M225.963 114.421C225.963 117.053 227.012 119.21 228.289 119.21C229.565 119.21 230.615 117.053 230.615 114.421C230.615 111.788 229.565 109.632 228.289 109.632C227.012 109.632 225.963 111.788 225.963 114.421Z" fill="url(#prefix__paint19_linear_9739_68674)"/><path d="M203.524 114.421C203.524 117.053 204.573 119.21 205.85 119.21C207.126 119.21 208.176 117.053 208.176 114.421C208.176 111.788 207.126 109.632 205.85 109.632C204.573 109.632 203.524 111.788 203.524 114.421Z" fill="url(#prefix__paint20_linear_9739_68674)"/><path d="M226.809 114.452C226.809 112.106 227.627 110.139 228.699 109.727C228.558 109.664 228.417 109.632 228.276 109.632C227.007 109.632 225.963 111.788 225.963 114.421C225.963 117.053 227.007 119.21 228.276 119.21C228.417 119.21 228.558 119.178 228.699 119.114C227.627 118.766 226.809 116.799 226.809 114.452Z" fill="url(#prefix__paint21_linear_9739_68674)"/><path d="M204.37 114.452C204.37 112.106 205.188 110.139 206.26 109.727C206.119 109.664 205.978 109.632 205.837 109.632C204.567 109.632 203.524 111.788 203.524 114.421C203.524 117.053 204.567 119.21 205.837 119.21C205.978 119.21 206.119 119.178 206.26 119.114C205.188 118.766 204.37 116.799 204.37 114.452Z" fill="url(#prefix__paint22_linear_9739_68674)"/><path opacity="0.75" d="M231.162 123.04C249.298 123.04 264 122.06 264 120.851C264 119.642 249.298 118.662 231.162 118.662C213.026 118.662 198.324 119.642 198.324 120.851C198.324 122.06 213.026 123.04 231.162 123.04Z" fill="url(#prefix__paint23_radial_9739_68674)"/><path opacity="0.75" d="M231.162 122.22C249.298 122.22 264 121.546 264 120.715C264 119.883 249.298 119.209 231.162 119.209C213.026 119.209 198.324 119.883 198.324 120.715C198.324 121.546 213.026 122.22 231.162 122.22Z" fill="url(#prefix__paint24_radial_9739_68674)"/><path opacity="0.8" d="M251.275 121.727C256.489 121.727 260.716 121.359 260.716 120.906C260.716 120.453 256.489 120.085 251.275 120.085C246.061 120.085 241.834 120.453 241.834 120.906C241.834 121.359 246.061 121.727 251.275 121.727Z" fill="url(#prefix__paint25_radial_9739_68674)"/><path opacity="0.8" d="M208.586 121.946C214.254 121.946 218.848 121.456 218.848 120.851C218.848 120.247 214.254 119.757 208.586 119.757C202.919 119.757 198.324 120.247 198.324 120.851C198.324 121.456 202.919 121.946 208.586 121.946Z" fill="url(#prefix__paint26_radial_9739_68674)"/><path opacity="0.8" d="M229.931 121.727C236.429 121.727 241.698 121.359 241.698 120.906C241.698 120.453 236.429 120.085 229.931 120.085C223.432 120.085 218.164 120.453 218.164 120.906C218.164 121.359 223.432 121.727 229.931 121.727Z" fill="url(#prefix__paint27_radial_9739_68674)"/><path opacity="0.64" d="M248.32 121.453C253.383 121.453 257.487 121.208 257.487 120.906C257.487 120.604 253.383 120.359 248.32 120.359C243.257 120.359 239.153 120.604 239.153 120.906C239.153 121.208 243.257 121.453 248.32 121.453Z" fill="url(#prefix__paint28_radial_9739_68674)"/><path opacity="0.64" d="M209.325 121.453C214.388 121.453 218.492 121.208 218.492 120.906C218.492 120.604 214.388 120.359 209.325 120.359C204.262 120.359 200.158 120.604 200.158 120.906C200.158 121.208 204.262 121.453 209.325 121.453Z" fill="url(#prefix__paint29_radial_9739_68674)"/><defs><linearGradient id="prefix__paint0_linear_9739_68674" x1="232.245" y1="89.6822" x2="236.635" y2="109.084" gradientUnits="userSpaceOnUse"><stop stop-color="#D1F1FF"/><stop offset="1" stop-color="#34BFFA"/></linearGradient><linearGradient id="prefix__paint1_linear_9739_68674" x1="242.929" y1="91.7079" x2="240.143" y2="115.783" gradientUnits="userSpaceOnUse"><stop stop-color="#E5F7FF"/><stop offset="0.999" stop-color="#32BEFA"/></linearGradient><linearGradient id="prefix__paint2_linear_9739_68674" x1="235.541" y1="75.2885" x2="200.245" y2="131.116" gradientUnits="userSpaceOnUse"><stop offset="0.0012901" stop-color="#D1F1FF"/><stop offset="0.290086" stop-color="#85DAFF"/><stop offset="0.637502" stop-color="#32BEFA"/><stop offset="1" stop-color="#325E9F"/></linearGradient><linearGradient id="prefix__paint3_linear_9739_68674" x1="219.669" y1="88.5606" x2="200.992" y2="113.96" gradientUnits="userSpaceOnUse"><stop offset="0.0012901" stop-color="#D1F1FF"/><stop offset="0.3278" stop-color="#85DAFF"/><stop offset="0.7656" stop-color="#32BEFA"/><stop offset="1" stop-color="#325E9F"/></linearGradient><linearGradient id="prefix__paint4_linear_9739_68674" x1="264" y1="111" x2="238.004" y2="111.117" gradientUnits="userSpaceOnUse"><stop offset="0.00173748" stop-color="#25255C"/><stop offset="1" stop-color="#9D95DD"/></linearGradient><linearGradient id="prefix__paint5_linear_9739_68674" x1="189.841" y1="110.453" x2="233.856" y2="87.0024" gradientUnits="userSpaceOnUse"><stop stop-color="#110E55"/><stop offset="0.56154" stop-color="#5B599D"/><stop offset="0.901732" stop-color="#13133C"/></linearGradient><linearGradient id="prefix__paint6_linear_9739_68674" x1="231.922" y1="118.662" x2="231.923" y2="114.284" gradientUnits="userSpaceOnUse"><stop stop-color="#2C2643" stop-opacity="0"/><stop offset="1" stop-color="#2C2643" stop-opacity="0.24"/></linearGradient><linearGradient id="prefix__paint7_linear_9739_68674" x1="231.162" y1="114.284" x2="231.162" y2="116.473" gradientUnits="userSpaceOnUse"><stop stop-color="#212240" stop-opacity="0.08"/><stop offset="1" stop-color="#212240" stop-opacity="0"/></linearGradient><linearGradient id="prefix__paint8_linear_9739_68674" x1="241.834" y1="108.263" x2="207.911" y2="88.8441" gradientUnits="userSpaceOnUse"><stop offset="0.0943126" stop-color="#9D95DD"/><stop offset="0.403367" stop-color="#5A589C"/><stop offset="0.774744" stop-color="#D2BFFF"/><stop offset="1" stop-color="#D2BFFF"/></linearGradient><linearGradient id="prefix__paint9_linear_9739_68674" x1="251.049" y1="108.707" x2="251.049" y2="107.169" gradientUnits="userSpaceOnUse"><stop stop-color="#2C2643" stop-opacity="0"/><stop offset="1" stop-color="#2C2643" stop-opacity="0.4"/></linearGradient><radialGradient id="prefix__paint10_radial_9739_68674" cx="0" cy="0" r="1" gradientUnits="userSpaceOnUse" gradientTransform="translate(237.867 107.169) rotate(164.055) scale(1.99219 3.98439)"><stop stop-color="white" stop-opacity="0.96"/><stop offset="1" stop-color="white" stop-opacity="0.64"/></radialGradient><linearGradient id="prefix__paint11_linear_9739_68674" x1="237.867" y1="108.4" x2="237.008" y2="107.238" gradientUnits="userSpaceOnUse"><stop stop-color="#212240" stop-opacity="0.08"/><stop offset="1" stop-color="#212240" stop-opacity="0"/></linearGradient><linearGradient id="prefix__paint12_linear_9739_68674" x1="235.13" y1="108.947" x2="239.61" y2="112.23" gradientUnits="userSpaceOnUse"><stop stop-color="white"/><stop offset="1" stop-color="white" stop-opacity="0"/></linearGradient><linearGradient id="prefix__paint13_linear_9739_68674" x1="266.736" y1="109.235" x2="262.019" y2="112.49" gradientUnits="userSpaceOnUse"><stop stop-color="white"/><stop offset="1" stop-color="white" stop-opacity="0"/></linearGradient><linearGradient id="prefix__paint14_linear_9739_68674" x1="205.989" y1="105.534" x2="205.989" y2="121.081" gradientUnits="userSpaceOnUse"><stop offset="0.000404094" stop-color="#212240"/><stop offset="0.2945" stop-color="#212240" stop-opacity="0"/></linearGradient><linearGradient id="prefix__paint15_linear_9739_68674" x1="228.429" y1="105.534" x2="228.429" y2="121.081" gradientUnits="userSpaceOnUse"><stop offset="0.000404094" stop-color="#212240"/><stop offset="0.2945" stop-color="#212240" stop-opacity="0"/></linearGradient><linearGradient id="prefix__paint16_linear_9739_68674" x1="208.039" y1="116.747" x2="210.64" y2="119.831" gradientUnits="userSpaceOnUse"><stop stop-color="#1A1A38"/><stop offset="1" stop-color="#434366"/></linearGradient><linearGradient id="prefix__paint17_linear_9739_68674" x1="230.478" y1="116.747" x2="233.079" y2="119.831" gradientUnits="userSpaceOnUse"><stop stop-color="#1A1A38"/><stop offset="1" stop-color="#434366"/></linearGradient><linearGradient id="prefix__paint18_linear_9739_68674" x1="250.454" y1="119.756" x2="251.055" y2="121.343" gradientUnits="userSpaceOnUse"><stop stop-color="#1A1A38"/><stop offset="1" stop-color="#434366"/></linearGradient><linearGradient id="prefix__paint19_linear_9739_68674" x1="228.152" y1="116.043" x2="229.125" y2="107.026" gradientUnits="userSpaceOnUse"><stop offset="0.000421262" stop-color="#E6E8F5"/><stop offset="1" stop-color="#7EB5F0"/></linearGradient><linearGradient id="prefix__paint20_linear_9739_68674" x1="205.713" y1="116.043" x2="206.686" y2="107.026" gradientUnits="userSpaceOnUse"><stop offset="0.000421262" stop-color="#E6E8F5"/><stop offset="1" stop-color="#7EB5F0"/></linearGradient><linearGradient id="prefix__paint21_linear_9739_68674" x1="227.947" y1="122.096" x2="227.235" y2="113.069" gradientUnits="userSpaceOnUse"><stop offset="0.000421262" stop-color="#E6E8F5"/><stop offset="1" stop-color="#7EB5F0"/></linearGradient><linearGradient id="prefix__paint22_linear_9739_68674" x1="205.508" y1="122.096" x2="204.796" y2="113.069" gradientUnits="userSpaceOnUse"><stop offset="0.000421262" stop-color="#E6E8F5"/><stop offset="1" stop-color="#7EB5F0"/></linearGradient><radialGradient id="prefix__paint23_radial_9739_68674" cx="0" cy="0" r="1" gradientUnits="userSpaceOnUse" gradientTransform="translate(231.159 120.856) rotate(90) scale(2.18919 32.8378)"><stop stop-color="#212240" stop-opacity="0.23"/><stop offset="1" stop-color="#23266A" stop-opacity="0"/></radialGradient><radialGradient id="prefix__paint24_radial_9739_68674" cx="0" cy="0" r="1" gradientUnits="userSpaceOnUse" gradientTransform="translate(231.159 120.719) rotate(90) scale(1.50507 32.8378)"><stop stop-color="#212240" stop-opacity="0.51"/><stop offset="1" stop-color="#23266A" stop-opacity="0"/></radialGradient><radialGradient id="prefix__paint25_radial_9739_68674" cx="0" cy="0" r="1" gradientUnits="userSpaceOnUse" gradientTransform="translate(251.276 120.911) rotate(90) scale(0.820946 9.44088)"><stop stop-color="#212240"/><stop offset="1" stop-color="#23266A" stop-opacity="0"/></radialGradient><radialGradient id="prefix__paint26_radial_9739_68674" cx="0" cy="0" r="1" gradientUnits="userSpaceOnUse" gradientTransform="translate(208.585 120.857) rotate(90) scale(1.09459 10.2616)"><stop stop-color="#212240"/><stop offset="1" stop-color="#23266A" stop-opacity="0"/></radialGradient><radialGradient id="prefix__paint27_radial_9739_68674" cx="0" cy="0" r="1" gradientUnits="userSpaceOnUse" gradientTransform="translate(229.929 120.91) rotate(90) scale(0.820946 11.7666)"><stop stop-color="#212240"/><stop offset="1" stop-color="#23266A" stop-opacity="0"/></radialGradient><radialGradient id="prefix__paint28_radial_9739_68674" cx="0" cy="0" r="1" gradientUnits="userSpaceOnUse" gradientTransform="translate(248.318 120.911) rotate(90) scale(0.547297 9.15459)"><stop stop-color="#212240"/><stop offset="1" stop-color="#23266A" stop-opacity="0"/></radialGradient><radialGradient id="prefix__paint29_radial_9739_68674" cx="0" cy="0" r="1" gradientUnits="userSpaceOnUse" gradientTransform="translate(209.322 120.911) rotate(90) scale(0.547297 9.15459)"><stop stop-color="#212240"/><stop offset="1" stop-color="#23266A" stop-opacity="0"/></radialGradient><clipPath id="prefix__clip0_9739_68674"><rect width="208.184" height="105.405" fill="white" transform="translate(24 24)"/></clipPath></defs></svg>