<svg width="64" height="64" viewBox="0 0 64 64" fill="none" xmlns="http://www.w3.org/2000/svg">
<g clip-path="url(#clip0_5557_199358)">
<path d="M51.7333 33.0667C45.2409 25.323 39.04 23.4667 35.171 23.4667H17.4667L27.2 33.0667H51.7333Z" fill="url(#paint0_linear_5557_199358)"/>
<path d="M44.2681 26.3766C46.6256 27.8472 49.1565 29.9933 51.7334 33.0667H27.2C30.3704 28.5092 36.0675 27.6831 40.5735 27.0297C41.952 26.8298 43.219 26.646 44.2681 26.3766Z" fill="url(#paint1_linear_5557_199358)"/>
<path d="M17.7071 23.4677C10.5333 23.4677 4.79999 31.9999 4.79999 31.9999L27.2 33.0666C26.0436 29.9821 22.1984 23.4677 17.7071 23.4677Z" fill="url(#paint2_linear_5557_199358)"/>
<path d="M20.9246 32.7679C19.48 29.8782 16.6936 28.5203 14.2018 27.306C13.0985 26.7684 12.053 26.2588 11.2072 25.657C7.50238 28.0937 4.98682 31.7262 4.80994 31.9854C4.8904 31.9943 4.97087 32.0032 5.05135 32.012L20.9246 32.7679Z" fill="url(#paint3_linear_5557_199358)"/>
<mask id="mask0_5557_199358" style="mask-type:alpha" maskUnits="userSpaceOnUse" x="0" y="32" width="64" height="16">
<path d="M27.2001 33.0664H51.7333L63.9999 36.7998V45.8662C63.9999 47.0444 63.0444 48 61.8661 48H4.79974C3.92023 47.9996 2.11295 45.8537 0.984314 44.3926C0.334667 43.5515 0.0724856 42.481 0.213806 41.4277C0.826113 36.8642 1.46674 33.0664 1.46674 33.0664L4.79974 32L27.2001 33.0664Z" fill="white"/>
</mask>
<g mask="url(#mask0_5557_199358)">
<path d="M64 48V36.8L51.7333 33.0667H27.2V48H64Z" fill="url(#paint4_linear_5557_199358)"/>
<path d="M38.4 45.8667C38.4 47.0449 37.4453 48 36.2671 48C29.0368 48 5.84356 48 4.73424 48C3.41918 48 0 43.0667 0 43.0667C0.657537 37.8111 1.44658 33.0667 1.44658 33.0667L4.73425 32L27.2 33.0667L38.4 36.8V45.8667Z" fill="url(#paint5_linear_5557_199358)"/>
<path d="M64 47.9999H0V45.8661H41.1201C42.2401 45.8661 44.1335 45.8663 45.4668 44.7997C46.5742 43.9138 47.4935 43.7333 48.1602 43.7333H55.0137C56.3734 43.7333 57.1607 43.9604 58 44.7997C59.0667 45.8663 60.8005 45.8661 62.1338 45.8661H64V47.9999Z" fill="url(#paint6_linear_5557_199358)"/>
<path d="M64 47.9999H0V45.8661H41.1201C42.2401 45.8661 44.1335 45.8663 45.4668 44.7997C46.5742 43.9138 47.4935 43.7333 48.1602 43.7333H55.0137C56.3734 43.7333 57.1607 43.9604 58 44.7997C59.0667 45.8663 60.8005 45.8661 62.1338 45.8661H64V47.9999Z" fill="url(#paint7_linear_5557_199358)"/>
<path d="M38.4 36.8L27.2 33.0667L4.80001 32L1.46667 33.0667C3.46667 34.1333 7.9199 35.7333 15.4667 35.7333H27.7333C32.5333 35.7333 32.5333 37.8667 37.4615 37.8667C38.5319 37.8667 38.4 37.8667 38.4 37.8667C38.4 36.8 38.4 37.8667 38.4 36.8Z" fill="url(#paint8_linear_5557_199358)"/>
</g>
<path opacity="0.8" d="M43.4667 36.8H58.9333L56.8 37.8667H45.6L43.4667 36.8Z" fill="url(#paint9_linear_5557_199358)"/>
<path d="M64 36.8H56.8V37.8667H64V36.8Z" fill="white"/>
<path d="M45.6 37.8667H38.4C38.4 37.8667 38.4 37.3867 38.4 36.8H45.6V37.8667Z" fill="white"/>
<path d="M38.4 37.8667H37.3333C36.7442 37.8667 36.2667 37.3892 36.2667 36.8H38.4V37.8667Z" fill="url(#paint10_radial_5557_199358)"/>
<rect x="36.2667" y="36.8" width="2.13333" height="1.06667" fill="url(#paint11_linear_5557_199358)"/>
<path opacity="0.24" d="M42.6667 37.8667L40.0267 45.8667H38.4V37.8667H42.6667Z" fill="url(#paint12_linear_5557_199358)"/>
<path opacity="0.24" d="M59.7333 37.8667L62.6133 45.8667H64V37.8667H59.7333Z" fill="url(#paint13_linear_5557_199358)"/>
<path opacity="0.64" d="M11.4667 45.8666C11.4667 45.1999 11.4667 44.1127 11.4667 43.6093C11.4667 39.8469 9.67944 36.7999 7.43831 36.7999C5.19717 36.7999 3.46668 39.8469 3.46668 43.6093C3.46668 44.1127 3.46667 45.3333 3.46669 45.8666" fill="url(#paint14_linear_5557_199358)"/>
<path opacity="0.64" d="M33.3334 45.8666C33.3334 45.3333 33.3334 44.1127 33.3334 43.6093C33.3334 39.8469 31.5461 36.7999 29.305 36.7999C27.0639 36.7999 25.3334 39.8469 25.3334 43.6093C25.3334 44.1127 25.3334 45.3333 25.3334 45.8666" fill="url(#paint15_linear_5557_199358)"/>
<path d="M10.8195 48C10.4451 48 10.0264 47.683 10.1333 47.3333C10.4542 46.392 10.6667 45.3333 10.6667 44.1333C10.6667 40.6638 9.46667 37.6 7.42311 37.6C5.33333 37.6 4 40.6907 4 44.1333C4 47.6028 5.55416 50.1333 7.37727 50.1333H10.6667C11.7364 50.1333 12.6915 49.4254 13.3333 48H10.8195Z" fill="url(#paint16_linear_5557_199358)"/>
<path d="M32.6862 48C32.3118 48 31.8931 47.683 32 47.3333C32.3209 46.392 32.5334 45.3333 32.5334 44.1333C32.5334 40.6638 31.3334 37.6 29.2898 37.6C27.2 37.6 25.8667 40.6907 25.8667 44.1333C25.8667 47.6028 27.4209 50.1333 29.244 50.1333H32.5334C33.6031 50.1333 34.5582 49.4254 35.2 48H32.6862Z" fill="url(#paint17_linear_5557_199358)"/>
<path d="M48 48C48.6667 49.4667 49.2905 50.1333 50.4 50.1333H54.0753C55.2 50.1333 56.1635 49.4597 56.8 48H48Z" fill="url(#paint18_linear_5557_199358)"/>
<path d="M26.9333 43.8666C26.9333 46.4317 27.9561 48.5333 29.2 48.5333C30.4439 48.5333 31.4666 46.4317 31.4666 43.8666C31.4666 41.3015 30.4439 39.2 29.2 39.2C27.9561 39.2 26.9333 41.3015 26.9333 43.8666Z" fill="url(#paint19_linear_5557_199358)"/>
<path d="M5.06665 43.8666C5.06665 46.4317 6.08942 48.5333 7.33332 48.5333C8.57722 48.5333 9.59998 46.4317 9.59998 43.8666C9.59998 41.3015 8.57722 39.2 7.33332 39.2C6.08942 39.2 5.06665 41.3015 5.06665 43.8666Z" fill="url(#paint20_linear_5557_199358)"/>
<path d="M27.758 43.8975C27.758 41.6105 28.5553 39.6944 29.6 39.2927C29.4625 39.2309 29.325 39.2 29.1876 39.2C27.9505 39.2 26.9333 41.3015 26.9333 43.8666C26.9333 46.4317 27.9505 48.5333 29.1876 48.5333C29.325 48.5333 29.4625 48.5024 29.6 48.4406C28.5553 48.1006 27.758 46.1845 27.758 43.8975Z" fill="url(#paint21_linear_5557_199358)"/>
<path d="M5.89139 43.8975C5.89139 41.6105 6.68864 39.6944 7.73332 39.2927C7.59586 39.2309 7.4584 39.2 7.32095 39.2C6.08383 39.2 5.06665 41.3015 5.06665 43.8666C5.06665 46.4317 6.08383 48.5333 7.32095 48.5333C7.4584 48.5333 7.59586 48.5024 7.73332 48.4406C6.68864 48.1006 5.89139 46.1845 5.89139 43.8975Z" fill="url(#paint22_linear_5557_199358)"/>
<path opacity="0.75" d="M32 52.2667C49.6731 52.2667 64 51.3115 64 50.1333C64 48.9551 49.6731 48 32 48C14.3269 48 0 48.9551 0 50.1333C0 51.3115 14.3269 52.2667 32 52.2667Z" fill="url(#paint23_radial_5557_199358)"/>
<path opacity="0.75" d="M32 51.4667C49.6731 51.4667 64 50.81 64 50C64 49.19 49.6731 48.5333 32 48.5333C14.3269 48.5333 0 49.19 0 50C0 50.81 14.3269 51.4667 32 51.4667Z" fill="url(#paint24_radial_5557_199358)"/>
<path opacity="0.8" d="M51.6 50.9867C56.681 50.9867 60.8 50.6285 60.8 50.1867C60.8 49.7449 56.681 49.3867 51.6 49.3867C46.519 49.3867 42.4 49.7449 42.4 50.1867C42.4 50.6285 46.519 50.9867 51.6 50.9867Z" fill="url(#paint25_radial_5557_199358)"/>
<path opacity="0.8" d="M10 51.2C15.5228 51.2 20 50.7224 20 50.1333C20 49.5442 15.5228 49.0667 10 49.0667C4.47715 49.0667 0 49.5442 0 50.1333C0 50.7224 4.47715 51.2 10 51.2Z" fill="url(#paint26_radial_5557_199358)"/>
<path opacity="0.8" d="M30.8 50.9867C37.1328 50.9867 42.2666 50.6285 42.2666 50.1867C42.2666 49.7449 37.1328 49.3867 30.8 49.3867C24.4671 49.3867 19.3333 49.7449 19.3333 50.1867C19.3333 50.6285 24.4671 50.9867 30.8 50.9867Z" fill="url(#paint27_radial_5557_199358)"/>
<path opacity="0.64" d="M48.7201 50.7201C53.6538 50.7201 57.6534 50.4813 57.6534 50.1868C57.6534 49.8922 53.6538 49.6534 48.7201 49.6534C43.7863 49.6534 39.7867 49.8922 39.7867 50.1868C39.7867 50.4813 43.7863 50.7201 48.7201 50.7201Z" fill="url(#paint28_radial_5557_199358)"/>
<path opacity="0.64" d="M10.7201 50.7201C15.6538 50.7201 19.6534 50.4813 19.6534 50.1868C19.6534 49.8922 15.6538 49.6534 10.7201 49.6534C5.78633 49.6534 1.78674 49.8922 1.78674 50.1868C1.78674 50.4813 5.78633 50.7201 10.7201 50.7201Z" fill="url(#paint29_radial_5557_199358)"/>
</g>
<defs>
<linearGradient id="paint0_linear_5557_199358" x1="33.055" y1="19.7596" x2="37.3333" y2="38.6667" gradientUnits="userSpaceOnUse">
<stop stop-color="#D1F1FF"/>
<stop offset="1" stop-color="#34BFFA"/>
</linearGradient>
<linearGradient id="paint1_linear_5557_199358" x1="43.4667" y1="21.7334" x2="40.7518" y2="45.1944" gradientUnits="userSpaceOnUse">
<stop stop-color="#E5F7FF"/>
<stop offset="0.999" stop-color="#32BEFA"/>
</linearGradient>
<linearGradient id="paint2_linear_5557_199358" x1="36.2667" y1="5.73321" x2="1.87155" y2="60.1363" gradientUnits="userSpaceOnUse">
<stop offset="0.0012901" stop-color="#D1F1FF"/>
<stop offset="0.290086" stop-color="#85DAFF"/>
<stop offset="0.637502" stop-color="#32BEFA"/>
<stop offset="1" stop-color="#325E9F"/>
</linearGradient>
<linearGradient id="paint3_linear_5557_199358" x1="20.7999" y1="18.6667" x2="2.59983" y2="43.4177" gradientUnits="userSpaceOnUse">
<stop offset="0.0012901" stop-color="#D1F1FF"/>
<stop offset="0.3278" stop-color="#85DAFF"/>
<stop offset="0.7656" stop-color="#32BEFA"/>
<stop offset="1" stop-color="#325E9F"/>
</linearGradient>
<linearGradient id="paint4_linear_5557_199358" x1="64" y1="40.5333" x2="38.6672" y2="40.6472" gradientUnits="userSpaceOnUse">
<stop offset="0.00173748" stop-color="#25255C"/>
<stop offset="1" stop-color="#9D95DD"/>
</linearGradient>
<linearGradient id="paint5_linear_5557_199358" x1="-8.26667" y1="40" x2="34.6248" y2="17.1481" gradientUnits="userSpaceOnUse">
<stop stop-color="#110E55"/>
<stop offset="0.56154" stop-color="#5B599D"/>
<stop offset="0.901732" stop-color="#13133C"/>
</linearGradient>
<linearGradient id="paint6_linear_5557_199358" x1="32.7406" y1="47.9999" x2="32.7413" y2="43.7333" gradientUnits="userSpaceOnUse">
<stop stop-color="#2C2643" stop-opacity="0"/>
<stop offset="1" stop-color="#2C2643" stop-opacity="0.24"/>
</linearGradient>
<linearGradient id="paint7_linear_5557_199358" x1="32" y1="43.7333" x2="32" y2="45.8666" gradientUnits="userSpaceOnUse">
<stop stop-color="#212240" stop-opacity="0.08"/>
<stop offset="1" stop-color="#212240" stop-opacity="0"/>
</linearGradient>
<linearGradient id="paint8_linear_5557_199358" x1="42.4" y1="37.8667" x2="9.34219" y2="18.9428" gradientUnits="userSpaceOnUse">
<stop offset="0.0943126" stop-color="#9D95DD"/>
<stop offset="0.403367" stop-color="#5A589C"/>
<stop offset="0.774744" stop-color="#D2BFFF"/>
<stop offset="1" stop-color="#D2BFFF"/>
</linearGradient>
<linearGradient id="paint9_linear_5557_199358" x1="51.379" y1="38.2985" x2="51.3792" y2="36.8" gradientUnits="userSpaceOnUse">
<stop stop-color="#2C2643" stop-opacity="0"/>
<stop offset="1" stop-color="#2C2643" stop-opacity="0.4"/>
</linearGradient>
<radialGradient id="paint10_radial_5557_199358" cx="0" cy="0" r="1" gradientUnits="userSpaceOnUse" gradientTransform="translate(38.5333 36.8) rotate(164.055) scale(1.94136 3.88273)">
<stop stop-color="white" stop-opacity="0.96"/>
<stop offset="1" stop-color="white" stop-opacity="0.64"/>
</radialGradient>
<linearGradient id="paint11_linear_5557_199358" x1="38.5333" y1="38" x2="37.697" y2="36.8678" gradientUnits="userSpaceOnUse">
<stop stop-color="#212240" stop-opacity="0.08"/>
<stop offset="1" stop-color="#212240" stop-opacity="0"/>
</linearGradient>
<linearGradient id="paint12_linear_5557_199358" x1="35.8667" y1="38.5334" x2="40.2321" y2="41.7319" gradientUnits="userSpaceOnUse">
<stop stop-color="white"/>
<stop offset="1" stop-color="white" stop-opacity="0"/>
</linearGradient>
<linearGradient id="paint13_linear_5557_199358" x1="66.6667" y1="38.8141" x2="62.0699" y2="41.9852" gradientUnits="userSpaceOnUse">
<stop stop-color="white"/>
<stop offset="1" stop-color="white" stop-opacity="0"/>
</linearGradient>
<linearGradient id="paint14_linear_5557_199358" x1="7.46946" y1="35.207" x2="7.46946" y2="50.3569" gradientUnits="userSpaceOnUse">
<stop offset="0.000404094" stop-color="#212240"/>
<stop offset="0.2945" stop-color="#212240" stop-opacity="0"/>
</linearGradient>
<linearGradient id="paint15_linear_5557_199358" x1="29.3362" y1="35.207" x2="29.3362" y2="50.3569" gradientUnits="userSpaceOnUse">
<stop offset="0.000404094" stop-color="#212240"/>
<stop offset="0.2945" stop-color="#212240" stop-opacity="0"/>
</linearGradient>
<linearGradient id="paint16_linear_5557_199358" x1="9.46667" y1="46.1333" x2="12.0012" y2="49.1392" gradientUnits="userSpaceOnUse">
<stop stop-color="#1A1A38"/>
<stop offset="1" stop-color="#434366"/>
</linearGradient>
<linearGradient id="paint17_linear_5557_199358" x1="31.3334" y1="46.1333" x2="33.8678" y2="49.1392" gradientUnits="userSpaceOnUse">
<stop stop-color="#1A1A38"/>
<stop offset="1" stop-color="#434366"/>
</linearGradient>
<linearGradient id="paint18_linear_5557_199358" x1="50.8" y1="49.0667" x2="51.3857" y2="50.6127" gradientUnits="userSpaceOnUse">
<stop stop-color="#1A1A38"/>
<stop offset="1" stop-color="#434366"/>
</linearGradient>
<linearGradient id="paint19_linear_5557_199358" x1="29.0666" y1="45.4479" x2="30.0147" y2="36.6602" gradientUnits="userSpaceOnUse">
<stop offset="0.000421262" stop-color="#E6E8F5"/>
<stop offset="1" stop-color="#7EB5F0"/>
</linearGradient>
<linearGradient id="paint20_linear_5557_199358" x1="7.2" y1="45.4479" x2="8.14802" y2="36.6602" gradientUnits="userSpaceOnUse">
<stop offset="0.000421262" stop-color="#E6E8F5"/>
<stop offset="1" stop-color="#7EB5F0"/>
</linearGradient>
<linearGradient id="paint21_linear_5557_199358" x1="28.8672" y1="51.3462" x2="28.1732" y2="42.5497" gradientUnits="userSpaceOnUse">
<stop offset="0.000421262" stop-color="#E6E8F5"/>
<stop offset="1" stop-color="#7EB5F0"/>
</linearGradient>
<linearGradient id="paint22_linear_5557_199358" x1="7.00056" y1="51.3462" x2="6.30661" y2="42.5497" gradientUnits="userSpaceOnUse">
<stop offset="0.000421262" stop-color="#E6E8F5"/>
<stop offset="1" stop-color="#7EB5F0"/>
</linearGradient>
<radialGradient id="paint23_radial_5557_199358" cx="0" cy="0" r="1" gradientUnits="userSpaceOnUse" gradientTransform="translate(31.9969 50.1383) rotate(90) scale(2.13333 32)">
<stop stop-color="#212240" stop-opacity="0.23"/>
<stop offset="1" stop-color="#23266A" stop-opacity="0"/>
</radialGradient>
<radialGradient id="paint24_radial_5557_199358" cx="0" cy="0" r="1" gradientUnits="userSpaceOnUse" gradientTransform="translate(31.9969 50.0045) rotate(90) scale(1.46667 32)">
<stop stop-color="#212240" stop-opacity="0.51"/>
<stop offset="1" stop-color="#23266A" stop-opacity="0"/>
</radialGradient>
<radialGradient id="paint25_radial_5557_199358" cx="0" cy="0" r="1" gradientUnits="userSpaceOnUse" gradientTransform="translate(51.6011 50.1919) rotate(90) scale(0.8 9.2)">
<stop stop-color="#212240"/>
<stop offset="1" stop-color="#23266A" stop-opacity="0"/>
</radialGradient>
<radialGradient id="paint26_radial_5557_199358" cx="0" cy="0" r="1" gradientUnits="userSpaceOnUse" gradientTransform="translate(9.99895 50.1389) rotate(90) scale(1.06667 9.99978)">
<stop stop-color="#212240"/>
<stop offset="1" stop-color="#23266A" stop-opacity="0"/>
</radialGradient>
<radialGradient id="paint27_radial_5557_199358" cx="0" cy="0" r="1" gradientUnits="userSpaceOnUse" gradientTransform="translate(30.7988 50.1909) rotate(90) scale(0.8 11.4664)">
<stop stop-color="#212240"/>
<stop offset="1" stop-color="#23266A" stop-opacity="0"/>
</radialGradient>
<radialGradient id="paint28_radial_5557_199358" cx="0" cy="0" r="1" gradientUnits="userSpaceOnUse" gradientTransform="translate(48.7177 50.1918) rotate(90) scale(0.533333 8.92101)">
<stop stop-color="#212240"/>
<stop offset="1" stop-color="#23266A" stop-opacity="0"/>
</radialGradient>
<radialGradient id="paint29_radial_5557_199358" cx="0" cy="0" r="1" gradientUnits="userSpaceOnUse" gradientTransform="translate(10.7167 50.1918) rotate(90) scale(0.533333 8.92101)">
<stop stop-color="#212240"/>
<stop offset="1" stop-color="#23266A" stop-opacity="0"/>
</radialGradient>
<clipPath id="clip0_5557_199358">
<rect width="64" height="64" fill="white"/>
</clipPath>
</defs>
</svg>
