<svg fill="none" xmlns="http://www.w3.org/2000/svg" viewBox="0 0 288 160"><g clip-path="url(#prefix__clip0_18861_62260)"><path d="M149.625 58.5601C169.818 59.0466 198.565 70.2195 198.565 70.2195L193.437 98.4605L149.634 91.7324V58.5601H149.625Z" fill="#DFDAF8"/><path d="M168.214 61.0806C168.692 62.7181 169.122 63.8036 169.122 63.8036C166.221 66.7044 158.277 82.0507 173.09 84.3995C174.755 84.6615 175.962 86.1306 175.962 87.815V95.7595L179.266 96.2648V84.6708C198.664 83.7725 187.884 69.5023 187.715 69.2777C187.715 69.2777 187.715 69.2684 187.715 69.259C188.08 68.3888 188.37 67.5279 188.558 66.6951C183.018 64.8891 175.747 62.7275 168.214 61.0806Z" fill="#C4BDF5"/><path d="M149.625 87.325L157.626 90.8996L158.655 59.3554C155.539 58.9156 152.498 58.6256 149.625 58.5601V87.325Z" fill="#A697ED"/><path d="M122.744 18.7422L105.573 33.106L115.371 94.042L130.314 94.2572L133.515 43.5489L122.744 18.7422Z" fill="#A697ED"/><path d="M155.663 95.4737L155.027 21.6243L122.753 18.7422L125.916 94.042L155.663 95.4737Z" fill="#C4BDF5"/><path d="M182.203 74.7344H178.899V94.1325H182.203V74.7344Z" fill="#044938"/><path d="M190.669 67.0264C190.669 67.0264 190.669 67.0171 190.669 67.0077C192.616 62.3664 192.26 58.2865 188.208 54.5903C187.385 48.5828 182.612 43.1086 177.653 43.1086C164.646 43.1086 172.095 61.5523 172.095 61.5523C168.95 64.6964 159.864 82.4663 180.254 82.4663C202.338 82.4663 190.856 67.2604 190.679 67.0264H190.669Z" fill="#36B78B"/><path d="M193.316 77.566C190.649 80.2236 171.99 83.8449 171.99 73.9634C171.99 64.0819 175.564 61.2933 175.564 61.2933C175.564 61.2933 169.295 51.9733 173.365 44.0662C166.553 47.8466 172.074 61.546 172.074 61.546C168.93 64.6901 159.844 82.46 180.234 82.46C188.571 82.46 192.127 80.2891 193.306 77.5754L193.316 77.566Z" fill="#0C936B"/><path d="M151.027 21.2706L149.314 21.1116L149.96 95.2043L151.551 95.2791L151.027 21.2706Z" fill="#DFDAF8"/><path d="M132.462 94.3553L130.535 19.4297L128.822 19.28L130.862 94.2804L132.462 94.3553Z" fill="#DFDAF8"/><path d="M137.366 20.0179L135.653 19.8682L137.225 94.5598L138.816 94.6346L137.366 20.0179Z" fill="#DFDAF8"/><path d="M144.184 20.6574L142.48 20.4983L143.585 94.8904L145.175 94.9653L144.184 20.6574Z" fill="#DFDAF8"/><path d="M219.234 123.368H94.7889C84.7764 123.368 80.996 113.131 80.996 108.911C80.996 108.911 102.574 86.3125 155.079 86.3125C207.584 86.3125 219.234 123.368 219.234 123.368Z" fill="#36B78B"/><path d="M128.503 112.52C139.292 121.868 154.975 104.838 183.487 123.366H94.7875C84.775 123.366 80.9946 113.129 80.9946 108.908C99.354 102.863 116.899 102.48 128.503 112.52Z" fill="#0C936B"/></g><path d="M226.315 111.876C213.643 99.0062 206.001 95.9209 196.121 95.9209H169.632L178.706 111.876H226.315Z" fill="url(#prefix__paint0_linear_18861_62260)"/><path d="M216.381 102.984C219.387 105.234 222.64 108.143 226.315 111.876H195.664C199.679 105.838 206.895 104.743 212.601 103.877C213.951 103.673 215.096 103.348 216.16 103.046C216.234 103.025 216.308 103.004 216.381 102.984Z" fill="url(#prefix__paint1_linear_18861_62260)"/><path d="M170.682 95.9209C165.223 95.9209 160.073 99.6165 153.664 108.517C153.664 108.517 153.664 110.547 153.664 111.876H188.527C180.549 99.1143 176.14 95.9209 170.682 95.9209Z" fill="url(#prefix__paint2_linear_18861_62260)"/><path d="M153.697 108.472L153.677 108.517L153.677 111.876H176.35C174.626 108.046 170.065 106.401 165.995 104.933C165.764 104.85 165.534 104.768 165.306 104.686C162.923 103.834 160.682 102.81 159.46 101.543C157.632 103.362 155.727 105.655 153.697 108.472Z" fill="url(#prefix__paint3_linear_18861_62260)"/><mask id="prefix__mask0_18861_62260" style="mask-type:alpha" maskUnits="userSpaceOnUse" x="147" y="108" width="97" height="27"><path d="M154.181 109.285C155.45 110.916 157.44 111.877 159.555 111.877H226.316L243.531 117.545V127.832C243.531 131.542 240.522 134.55 236.812 134.55H150.214C148.598 134.55 147.737 126.571 147.622 121.293C147.558 118.31 148.891 115.404 150.524 112.87L151.158 111.877C151.577 111.269 152.417 110.137 153.677 108.517L154.181 109.285Z" fill="white"/></mask><g mask="url(#prefix__mask0_18861_62260)"><path d="M236.812 134.55C240.522 134.55 243.53 131.542 243.53 127.832V117.754L226.315 111.876H185.587V134.55H236.812Z" fill="url(#prefix__paint4_linear_18861_62260)"/><path d="M203.222 117.754V127.832C203.222 131.542 200.226 134.55 196.516 134.55C180.118 134.55 151.392 134.55 150.214 134.55C148.598 134.55 147.737 126.571 147.622 121.293C147.558 118.31 148.891 115.404 150.524 112.87C150.794 112.45 151.021 112.096 151.158 111.876H188.527L203.222 117.754Z" fill="url(#prefix__paint5_linear_18861_62260)"/><path d="M188.57 111.876H159.555C157.44 111.876 155.449 110.916 154.18 109.285L153.676 108.517C152.417 110.137 151.577 111.269 151.157 111.876C155.776 115.318 153.676 115.235 171.941 115.235H188.526C193.145 115.235 197.036 117.681 199.136 118.814C200.512 119.557 201.962 119.434 203.222 119.434V117.754L188.57 111.876Z" fill="url(#prefix__paint6_linear_18861_62260)"/><path fill-rule="evenodd" clip-rule="evenodd" d="M234.083 129.511C235.763 131.191 238.492 131.191 240.591 131.191H243.53V134.55H142.76V131.191H207.505C209.268 131.191 212.249 131.191 214.349 129.511C216.093 128.116 217.54 127.832 218.59 127.832H229.38C231.522 127.832 232.761 128.189 234.083 129.511Z" fill="url(#prefix__paint7_linear_18861_62260)"/><path fill-rule="evenodd" clip-rule="evenodd" d="M234.083 129.511C235.763 131.191 238.492 131.191 240.591 131.191H243.53V134.55H142.76V131.191H207.505C209.268 131.191 212.249 131.191 214.349 129.511C216.093 128.116 217.54 127.832 218.59 127.832H229.38C231.522 127.832 232.761 128.189 234.083 129.511Z" fill="url(#prefix__paint8_linear_18861_62260)"/></g><path opacity="0.8" d="M211.199 117.754H235.552L232.193 119.434H214.558L211.199 117.754Z" fill="url(#prefix__paint9_linear_18861_62260)"/><path d="M243.53 117.754H232.193V119.434H243.53V117.754Z" fill="white"/><path d="M214.559 119.434H203.223C203.223 119.434 203.223 118.678 203.223 117.754H214.559V119.434Z" fill="white"/><path d="M203.222 119.434H201.543C200.615 119.434 199.863 118.682 199.863 117.754H203.222V119.434Z" fill="url(#prefix__paint10_radial_18861_62260)"/><rect x="199.863" y="117.754" width="3.35902" height="1.67951" fill="url(#prefix__paint11_linear_18861_62260)"/><path opacity="0.24" d="M209.94 119.434L205.783 132.03H203.222V119.434H209.94Z" fill="url(#prefix__paint12_linear_18861_62260)"/><path opacity="0.24" d="M236.812 119.434L241.346 132.03H243.53V119.434H236.812Z" fill="url(#prefix__paint13_linear_18861_62260)"/><path opacity="0.64" d="M160.815 131.191C160.815 130.141 160.815 128.429 160.815 127.636C160.815 121.712 158.001 116.915 154.472 116.915C150.943 116.915 148.219 121.712 148.219 127.636C148.219 128.429 148.219 130.351 148.219 131.191" fill="url(#prefix__paint14_linear_18861_62260)"/><path opacity="0.64" d="M195.245 131.191C195.245 130.351 195.245 128.429 195.245 127.636C195.245 121.712 192.431 116.915 188.902 116.915C185.373 116.915 182.648 121.712 182.648 127.636C182.648 128.429 182.648 130.351 182.648 131.191" fill="url(#prefix__paint15_linear_18861_62260)"/><path d="M159.796 134.55C159.207 134.55 158.547 134.05 158.716 133.5C159.221 132.018 159.556 130.351 159.556 128.461C159.556 122.998 157.666 118.174 154.448 118.174C151.158 118.174 149.059 123.041 149.059 128.461C149.059 133.924 151.506 137.909 154.376 137.909H159.556C161.24 137.909 162.744 136.794 163.754 134.55H159.796Z" fill="url(#prefix__paint16_linear_18861_62260)"/><path d="M194.226 134.55C193.636 134.55 192.977 134.05 193.145 133.5C193.651 132.018 193.985 130.351 193.985 128.461C193.985 122.998 192.096 118.174 188.878 118.174C185.588 118.174 183.488 123.041 183.488 128.461C183.488 133.924 185.935 137.909 188.806 137.909H193.985C195.67 137.909 197.173 136.794 198.184 134.55H194.226Z" fill="url(#prefix__paint17_linear_18861_62260)"/><path d="M218.338 134.55C219.388 136.859 220.37 137.909 222.117 137.909H227.904C229.675 137.909 231.192 136.848 232.194 134.55H218.338Z" fill="url(#prefix__paint18_linear_18861_62260)"/><path d="M185.167 128.041C185.167 132.08 186.777 135.389 188.736 135.389C190.695 135.389 192.305 132.08 192.305 128.041C192.305 124.003 190.695 120.694 188.736 120.694C186.777 120.694 185.167 124.003 185.167 128.041Z" fill="url(#prefix__paint19_linear_18861_62260)"/><path d="M150.737 128.041C150.737 132.08 152.348 135.389 154.306 135.389C156.265 135.389 157.875 132.08 157.875 128.041C157.875 124.003 156.265 120.694 154.306 120.694C152.348 120.694 150.737 124.003 150.737 128.041Z" fill="url(#prefix__paint20_linear_18861_62260)"/><path d="M186.466 128.09C186.466 124.489 187.721 121.472 189.366 120.84C189.149 120.742 188.933 120.694 188.716 120.694C186.769 120.694 185.167 124.003 185.167 128.041C185.167 132.08 186.769 135.389 188.716 135.389C188.933 135.389 189.149 135.341 189.366 135.243C187.721 134.708 186.466 131.691 186.466 128.09Z" fill="url(#prefix__paint21_linear_18861_62260)"/><path d="M152.036 128.09C152.036 124.489 153.291 121.472 154.936 120.84C154.72 120.742 154.503 120.694 154.287 120.694C152.339 120.694 150.737 124.003 150.737 128.041C150.737 132.08 152.339 135.389 154.287 135.389C154.503 135.389 154.72 135.341 154.936 135.243C153.291 134.708 152.036 131.691 152.036 128.09Z" fill="url(#prefix__paint22_linear_18861_62260)"/><path opacity="0.75" d="M193.145 141.268C220.972 141.268 243.53 139.764 243.53 137.909C243.53 136.053 220.972 134.55 193.145 134.55C165.318 134.55 142.76 136.053 142.76 137.909C142.76 139.764 165.318 141.268 193.145 141.268Z" fill="url(#prefix__paint23_radial_18861_62260)"/><path opacity="0.75" d="M193.145 140.008C220.972 140.008 243.53 138.974 243.53 137.699C243.53 136.423 220.972 135.389 193.145 135.389C165.318 135.389 142.76 136.423 142.76 137.699C142.76 138.974 165.318 140.008 193.145 140.008Z" fill="url(#prefix__paint24_radial_18861_62260)"/><path opacity="0.8" d="M224.006 139.252C232.007 139.252 238.492 138.688 238.492 137.993C238.492 137.297 232.007 136.733 224.006 136.733C216.006 136.733 209.521 137.297 209.521 137.993C209.521 138.688 216.006 139.252 224.006 139.252Z" fill="url(#prefix__paint25_radial_18861_62260)"/><path opacity="0.8" d="M158.505 139.588C167.201 139.588 174.251 138.836 174.251 137.909C174.251 136.981 167.201 136.229 158.505 136.229C149.809 136.229 142.76 136.981 142.76 137.909C142.76 138.836 149.809 139.588 158.505 139.588Z" fill="url(#prefix__paint26_radial_18861_62260)"/><path opacity="0.8" d="M191.256 139.252C201.227 139.252 209.311 138.688 209.311 137.993C209.311 137.297 201.227 136.733 191.256 136.733C181.285 136.733 173.201 137.297 173.201 137.993C173.201 138.688 181.285 139.252 191.256 139.252Z" fill="url(#prefix__paint27_radial_18861_62260)"/><path opacity="0.64" d="M219.471 138.832C227.24 138.832 233.537 138.456 233.537 137.993C233.537 137.529 227.24 137.153 219.471 137.153C211.703 137.153 205.405 137.529 205.405 137.993C205.405 138.456 211.703 138.832 219.471 138.832Z" fill="url(#prefix__paint28_radial_18861_62260)"/><path opacity="0.64" d="M159.639 138.832C167.407 138.832 173.705 138.456 173.705 137.993C173.705 137.529 167.407 137.153 159.639 137.153C151.871 137.153 145.573 137.529 145.573 137.993C145.573 138.456 151.871 138.832 159.639 138.832Z" fill="url(#prefix__paint29_radial_18861_62260)"/><g opacity="0.75"><path opacity="0.75" d="M120.716 140.202C143.717 140.202 162.362 139.269 162.362 138.119C162.362 136.969 143.717 136.037 120.716 136.037C97.7158 136.037 79.0703 136.969 79.0703 138.119C79.0703 139.269 97.7158 140.202 120.716 140.202Z" fill="url(#prefix__paint30_radial_18861_62260)"/><path opacity="0.8" d="M131.892 139.334C138.945 139.334 144.663 138.712 144.663 137.946C144.663 137.179 138.945 136.558 131.892 136.558C124.838 136.558 119.12 137.179 119.12 137.946C119.12 138.712 124.838 139.334 131.892 139.334Z" fill="url(#prefix__paint31_radial_18861_62260)"/><path opacity="0.75" d="M106.488 139.334C114.729 139.334 121.411 138.79 121.411 138.119C121.411 137.449 114.729 136.905 106.488 136.905C98.2458 136.905 91.5645 137.449 91.5645 138.119C91.5645 138.79 98.2458 139.334 106.488 139.334Z" fill="url(#prefix__paint32_radial_18861_62260)"/><path opacity="0.8" d="M135.569 138.64C141.99 138.64 147.196 138.329 147.196 137.946C147.196 137.562 141.99 137.252 135.569 137.252C129.149 137.252 123.943 137.562 123.943 137.946C123.943 138.329 129.149 138.64 135.569 138.64Z" fill="url(#prefix__paint33_radial_18861_62260)"/></g><path d="M136.825 102.54L140.185 112.665C140.567 113.97 140.533 115.482 140.046 116.754L134.518 130.086C133.927 131.46 132.276 131.873 131.164 131.873H118.668L120.789 127.405L124.579 118.197C125.448 116.032 125.552 113.42 124.857 111.118L122.875 104.727L124.741 100.638C127.231 100.638 131.603 100.638 134.19 100.638C135.387 100.638 136.448 101.405 136.825 102.54Z" fill="url(#prefix__paint34_linear_18861_62260)"/><path d="M138.796 97.3416H135.673C135.673 97.8968 135.673 99.4238 135.673 99.4238H138.796C139.317 99.4238 139.664 98.9376 139.664 98.3824C139.664 97.8271 139.317 97.3416 138.796 97.3416Z" fill="url(#prefix__paint35_linear_18861_62260)"/><path d="M135.674 97.3416C135.288 97.3416 134.979 97.8274 134.979 98.3827C134.979 98.938 135.288 99.4238 135.674 99.4238C136.059 99.4238 136.368 98.938 136.368 98.3827C136.368 97.8274 136.059 97.3416 135.674 97.3416Z" fill="#131345"/><path d="M135.188 97.8616C134.459 97.8616 133.8 98.278 133.522 98.9027C133.487 98.9374 133.418 99.0068 133.314 99.0068H132.203V100.048H133.314C133.869 100.048 134.355 99.7356 134.563 99.3192C134.667 99.0762 134.91 98.9374 135.188 98.9374H135.396C135.708 98.9374 135.951 98.6945 135.951 98.4168C135.951 98.1045 135.708 97.8616 135.396 97.8616H135.188Z" fill="url(#prefix__paint36_linear_18861_62260)"/><path d="M128.695 96.5752L131.192 96.4736C132.163 98.3697 130.776 100.638 128.661 100.638H126.823C126.164 100.638 125.609 100.13 125.609 99.5547C125.574 97.9634 126.962 96.6768 128.695 96.5752Z" fill="#131345"/><path d="M127.413 99.4927C127.413 99.2151 127.205 98.9722 126.962 98.9722H126.719C126.615 98.9722 126.546 98.9375 126.511 98.8681C126.233 98.2434 125.574 97.8269 124.845 97.8269H123.665V98.8681H124.845C125.123 98.8681 125.366 99.0069 125.47 99.2498C125.678 99.701 126.164 99.9786 126.719 99.9786H126.962C127.24 100.013 127.413 99.8051 127.413 99.4927Z" fill="url(#prefix__paint37_linear_18861_62260)"/><path d="M133.835 99.0539L132.555 96.4485C132.341 96.026 131.914 95.7795 131.417 95.7795H128.109C127.219 95.7795 126.615 96.6245 126.971 97.3639L127.789 99.0539C128.144 99.7932 127.54 100.638 126.65 100.638H132.661C133.586 100.638 134.191 99.7932 133.835 99.0539Z" fill="url(#prefix__paint38_linear_18861_62260)"/><path d="M123.527 97.3416H120.403C120.403 97.8968 120.403 99.4238 120.403 99.4238H123.527C124.047 99.4238 124.394 98.9376 124.394 98.3824C124.394 97.8271 124.047 97.3416 123.527 97.3416Z" fill="url(#prefix__paint39_linear_18861_62260)"/><path d="M120.403 97.3416C120.017 97.3416 119.709 97.8274 119.709 98.3827C119.709 98.938 120.017 99.4238 120.403 99.4238C120.789 99.4238 121.097 98.938 121.097 98.3827C121.097 97.8274 120.789 97.3416 120.403 97.3416Z" fill="#131345"/><path d="M127.691 100.638H134.285L136.963 109.054C137.441 110.557 136.32 112.091 134.743 112.091C132.714 112.091 130.918 110.778 130.302 108.844L127.691 100.638Z" fill="url(#prefix__paint40_linear_18861_62260)"/><path opacity="0.4" d="M129.732 109.488C131.12 112.264 133.966 113.93 136.083 113.201C138.269 112.472 138.929 109.627 137.54 106.85C136.152 104.074 133.306 102.408 131.189 103.137C129.072 103.9 128.413 106.711 129.732 109.488Z" fill="url(#prefix__paint41_radial_18861_62260)"/><path d="M109.992 113.826H114.157L118.668 128.402H114.157L109.992 113.826Z" fill="url(#prefix__paint42_linear_18861_62260)"/><path d="M113.983 113.826H120.924L119.924 117.827C119.671 118.841 119.709 119.906 120.033 120.899L122.486 128.402H115.025L112.86 120.899C112.574 119.905 112.57 118.852 112.85 117.856L113.983 113.826Z" fill="url(#prefix__paint43_linear_18861_62260)"/><path d="M131.353 117.297L126.668 129.096H132.897L137.253 117.297H131.353Z" fill="url(#prefix__paint44_linear_18861_62260)"/><path d="M136.021 119.726L139.227 128.543C139.376 128.955 139.815 129.184 140.239 129.073C140.846 128.913 141.181 128.263 140.961 127.676L137.062 117.297L136.021 119.726Z" fill="url(#prefix__paint45_linear_18861_62260)"/><path d="M138.755 118.06H134.521V138.119H138.755C141.914 138.119 144.482 133.643 144.482 128.124C144.482 122.606 141.914 118.06 138.755 118.06Z" fill="url(#prefix__paint46_linear_18861_62260)"/><path d="M134.521 138.119C137.679 138.119 140.248 133.643 140.248 128.09C140.248 122.537 137.679 118.06 134.521 118.06C131.363 118.06 128.795 122.537 128.795 128.09C128.795 133.643 131.363 138.119 134.521 138.119Z" fill="#1A1A38"/><path d="M131.433 128.09C131.433 131.109 132.821 133.573 134.521 133.573C136.222 133.573 137.61 131.109 137.61 128.09C137.61 125.07 136.222 122.606 134.521 122.606C132.821 122.606 131.433 125.07 131.433 128.09Z" fill="url(#prefix__paint47_linear_18861_62260)"/><path d="M132.127 128.055C132.127 125.244 133.341 122.919 134.868 122.641C134.764 122.606 134.625 122.606 134.521 122.606C132.821 122.606 131.433 125.07 131.433 128.09C131.433 131.109 132.821 133.573 134.521 133.573C134.625 133.573 134.764 133.573 134.868 133.538C133.341 133.157 132.127 130.831 132.127 128.055Z" fill="url(#prefix__paint48_linear_18861_62260)"/><path d="M130.468 119.726L133.674 128.543C133.824 128.955 134.263 129.184 134.686 129.073C135.293 128.913 135.629 128.263 135.408 127.676L131.509 117.297L130.468 119.726Z" fill="url(#prefix__paint49_linear_18861_62260)"/><path d="M106.341 118.06C104.075 118.06 101.934 118.06 101.934 118.06C101.934 118.06 101.934 135.071 101.934 138.12H106.341C109.499 138.12 112.067 133.643 112.067 128.09C112.067 122.537 109.499 118.06 106.341 118.06Z" fill="url(#prefix__paint50_linear_18861_62260)"/><path d="M101.933 138.119C105.091 138.119 107.66 133.643 107.66 128.09C107.66 122.537 105.091 118.06 101.933 118.06C98.7752 118.06 96.207 122.572 96.207 128.09C96.207 133.608 98.7752 138.119 101.933 138.119Z" fill="#1A1A38"/><path d="M98.8447 128.055C98.8447 131.075 100.233 133.539 101.933 133.539C103.634 133.539 105.022 131.075 105.022 128.055C105.022 125.036 103.634 122.572 101.933 122.572C100.233 122.572 98.8447 125.036 98.8447 128.055Z" fill="url(#prefix__paint51_linear_18861_62260)"/><path d="M99.5388 128.021C99.5388 125.21 100.753 122.884 102.281 122.607C102.176 122.572 102.038 122.572 101.933 122.572C100.233 122.572 98.8447 125.036 98.8447 128.055C98.8447 131.075 100.233 133.539 101.933 133.539C102.038 133.539 102.176 133.539 102.281 133.504C100.753 133.122 99.5388 130.797 99.5388 128.021Z" fill="url(#prefix__paint52_linear_18861_62260)"/><path d="M109.083 125.279H102.181C101.331 125.279 100.622 126.51 100.622 128.055C100.622 129.572 101.331 130.832 102.181 130.832H110.756L109.083 125.279Z" fill="url(#prefix__paint53_linear_18861_62260)"/><path d="M116.586 113.826H121.097C121.097 113.826 123.033 110.646 119.622 108.112C118.716 107.438 117.561 107.232 116.431 107.232H107.869C107.236 107.232 106.674 107.753 106.428 108.551L105.827 111.397V113.826H116.586Z" fill="url(#prefix__paint54_linear_18861_62260)"/><path d="M109.645 113.826H114.157C114.677 112.264 114.851 107.232 109.955 107.232H101.275C100.643 107.232 100.081 107.753 99.8351 108.551L98.8867 111.397V113.826H109.645Z" fill="#131345"/><path d="M124.752 100.638L128.473 112.665C128.855 113.97 128.82 115.482 128.334 116.753L122.312 131.873H111.671C109.723 131.873 108.063 130.395 107.472 128.505L104.656 119.399L98.8526 119.397C96.9773 119.396 95.642 117.575 96.2054 115.787L97.1509 112.785L98.8861 111.397H108.25C108.87 111.397 109.415 111.808 109.585 112.404L114.156 128.402H119.433C119.989 128.402 120.511 128.093 120.789 127.405L124.578 118.197C125.448 116.032 125.552 113.42 124.857 111.118L122.875 104.727C122.284 102.803 123.292 100.638 124.752 100.638Z" fill="url(#prefix__paint55_linear_18861_62260)"/><path d="M131.606 108.863C132.335 110.321 133.827 111.188 134.938 110.807C136.083 110.425 136.43 108.932 135.701 107.475C134.972 106.017 133.48 105.15 132.37 105.531C131.259 105.913 130.912 107.405 131.606 108.863Z" fill="#F8F9FB"/><path d="M132.435 108.584C132.871 109.455 133.763 109.974 134.427 109.746C135.112 109.518 135.319 108.625 134.883 107.754C134.448 106.882 133.555 106.364 132.891 106.592C132.227 106.82 132.02 107.712 132.435 108.584Z" fill="url(#prefix__paint56_linear_18861_62260)"/><path d="M103.367 109.28C103.222 109.072 103.005 108.968 102.751 108.968H98.0415H97.498C97.498 109.731 98.1502 110.356 98.9473 110.356H102.353H104.092L103.367 109.28Z" fill="url(#prefix__paint57_linear_18861_62260)"/><path d="M98.8866 111.397H108.251C108.871 111.397 109.415 111.808 109.586 112.404L114.157 128.402H112.422L108.2 113.788C108.028 113.194 107.484 112.785 106.866 112.785H97.1514L98.8866 111.397Z" fill="url(#prefix__paint58_linear_18861_62260)"/><g opacity="0.75"><path opacity="0.75" d="M71.9219 140.202C91.9514 140.202 108.188 139.192 108.188 137.946C108.188 136.7 91.9514 135.69 71.9219 135.69C51.8924 135.69 35.6553 136.7 35.6553 137.946C35.6553 139.192 51.8924 140.202 71.9219 140.202Z" fill="url(#prefix__paint59_radial_18861_62260)"/><path opacity="0.6" d="M59.6707 139.187C65.4016 139.187 70.0475 138.631 70.0475 137.946C70.0475 137.261 65.4016 136.705 59.6707 136.705C53.9398 136.705 49.2939 137.261 49.2939 137.946C49.2939 138.631 53.9398 139.187 59.6707 139.187Z" fill="url(#prefix__paint60_radial_18861_62260)"/><path opacity="0.6" d="M83.1658 139.187C88.8967 139.187 93.5426 138.631 93.5426 137.946C93.5426 137.261 88.8967 136.705 83.1658 136.705C77.4349 136.705 72.7891 137.261 72.7891 137.946C72.7891 138.631 77.4349 139.187 83.1658 139.187Z" fill="url(#prefix__paint61_radial_18861_62260)"/><path opacity="0.8" d="M58.2137 138.467C63.1971 138.467 67.237 138.234 67.237 137.946C67.237 137.659 63.1971 137.426 58.2137 137.426C53.2303 137.426 49.1904 137.659 49.1904 137.946C49.1904 138.234 53.2303 138.467 58.2137 138.467Z" fill="url(#prefix__paint62_radial_18861_62260)"/><path opacity="0.8" d="M83.9647 138.386C88.9481 138.386 92.9879 138.153 92.9879 137.865C92.9879 137.578 88.9481 137.344 83.9647 137.344C78.9813 137.344 74.9414 137.578 74.9414 137.865C74.9414 138.153 78.9813 138.386 83.9647 138.386Z" fill="url(#prefix__paint63_radial_18861_62260)"/></g><path d="M56.5125 132.913C57.1834 132.913 57.7272 131.997 57.7272 130.866C57.7272 129.735 57.1834 128.818 56.5125 128.818C55.8417 128.818 55.2979 129.735 55.2979 130.866C55.2979 131.997 55.8417 132.913 56.5125 132.913Z" fill="url(#prefix__paint64_linear_18861_62260)"/><path d="M81.1182 96.1265L83.374 125.973H86.3239L84.4151 96.1265H81.1182Z" fill="url(#prefix__paint65_linear_18861_62260)"/><path d="M82.1596 119.726L76.7804 128.75H59.0987C58.4296 128.75 57.8662 129.721 57.8662 130.866C57.8662 132.011 58.4296 132.914 59.0987 132.914H74.9101C77.7272 132.914 78.5372 131.282 80.0162 128.575L82.5067 124.064L82.1596 119.726Z" fill="url(#prefix__paint66_linear_18861_62260)"/><path d="M58.6641 123.787H56.5471V124.758C55.2978 126.008 54.4648 128.264 54.4648 130.901C54.4648 133.504 55.2978 135.795 56.5471 137.044V138.016H58.6641C60.9894 138.016 62.8634 134.823 62.8634 130.901C62.8634 126.979 60.9547 123.787 58.6641 123.787Z" fill="url(#prefix__paint67_linear_18861_62260)"/><path d="M56.5128 138.016C58.832 138.016 60.7121 134.83 60.7121 130.901C60.7121 126.972 58.832 123.787 56.5128 123.787C54.1936 123.787 52.3135 126.972 52.3135 130.901C52.3135 134.83 54.1936 138.016 56.5128 138.016Z" fill="#1A1A38"/><path d="M56.5132 135.517C58.0274 135.517 59.2549 133.45 59.2549 130.901C59.2549 128.352 58.0274 126.285 56.5132 126.285C54.999 126.285 53.7715 128.352 53.7715 130.901C53.7715 133.45 54.999 135.517 56.5132 135.517Z" fill="url(#prefix__paint68_linear_18861_62260)"/><path d="M54.4998 130.901C54.4998 128.541 55.5409 126.597 56.8944 126.32C56.7903 126.285 56.6515 126.285 56.5474 126.285C55.055 126.285 53.8057 128.367 53.8057 130.901C53.8057 133.469 55.0203 135.517 56.5474 135.517C56.6515 135.517 56.7903 135.517 56.8944 135.482C55.5409 135.204 54.4998 133.261 54.4998 130.901Z" fill="url(#prefix__paint69_linear_18861_62260)"/><path d="M85.1446 123.787H83.0276V124.758C81.7782 126.008 80.9453 128.264 80.9453 130.901C80.9453 133.504 81.7782 135.795 83.0276 137.044V138.016H85.1446C87.4698 138.016 89.3439 134.823 89.3439 130.901C89.3439 126.979 87.4698 123.787 85.1446 123.787Z" fill="url(#prefix__paint70_linear_18861_62260)"/><path d="M83.0274 138.016C85.3466 138.016 87.2267 134.83 87.2267 130.901C87.2267 126.972 85.3466 123.787 83.0274 123.787C80.7082 123.787 78.8281 126.972 78.8281 130.901C78.8281 134.83 80.7082 138.016 83.0274 138.016Z" fill="#1A1A38"/><path d="M83.0278 135.517C84.542 135.517 85.7695 133.45 85.7695 130.901C85.7695 128.352 84.542 126.285 83.0278 126.285C81.5136 126.285 80.2861 128.352 80.2861 130.901C80.2861 133.45 81.5136 135.517 83.0278 135.517Z" fill="url(#prefix__paint71_linear_18861_62260)"/><path d="M80.9802 130.935C80.9802 128.575 82.0214 126.632 83.3749 126.354C83.2708 126.32 83.1319 126.32 83.0278 126.32C81.5355 126.32 80.2861 128.402 80.2861 130.935C80.2861 133.503 81.5008 135.551 83.0278 135.551C83.1319 135.551 83.2708 135.551 83.3749 135.516C82.0214 135.239 80.9802 133.295 80.9802 130.935Z" fill="url(#prefix__paint72_linear_18861_62260)"/><path d="M58.769 122.884H56.5479L58.2137 123.543L61.1636 128.749L61.3024 130.831H63.5235C63.4888 126.424 61.3718 122.884 58.769 122.884Z" fill="url(#prefix__paint73_linear_18861_62260)"/><path d="M81.1185 96.1272H81.4656L82.8507 115.028L84.1634 131.565C84.2063 132.105 83.5794 132.568 83.038 132.566C82.292 132.563 81.8929 131.98 81.8466 131.236L81.2502 121.659L77.2398 128.575C77.199 128.65 77.1587 128.724 77.1189 128.797C75.7146 131.371 74.8732 132.914 72.1337 132.914H56.3224C55.6533 132.914 55.0898 132.011 55.0898 130.866C55.0898 129.721 55.6533 128.75 56.3224 128.75H71.311C74.2262 128.75 76.9291 127.226 78.4379 124.731L81.1612 120.229L79.8414 99.0354C79.7717 97.9165 80.2475 96.833 81.1185 96.1272Z" fill="url(#prefix__paint74_linear_18861_62260)"/><path d="M52.7646 126.042C53.1117 126.458 53.7364 126.424 54.0487 125.973C54.7081 125.001 55.5757 124.411 56.5475 124.411C58.6645 124.411 60.365 127.291 60.365 130.831H61.2673C61.2673 126.424 59.1503 122.884 56.5475 122.884C54.9858 122.884 53.6323 124.098 52.7646 126.042Z" fill="url(#prefix__paint75_linear_18861_62260)"/><path d="M89.7939 94.0481C89.8169 94.0463 89.84 94.0442 89.8633 94.0442C90.4721 94.0442 90.9735 94.6579 90.9736 95.4319C90.9736 96.206 90.4722 96.8206 89.8633 96.8206C89.84 96.8206 89.8169 96.8175 89.7939 96.8157V96.8206H74.8711V94.0442H89.7939V94.0481Z" fill="url(#prefix__paint76_linear_18861_62260)"/><path d="M74.9405 94.0442C75.5495 94.0442 76.051 94.6581 76.051 95.4323C76.051 96.2064 75.5495 96.8203 74.9405 96.8203C74.3316 96.8203 73.8301 96.2064 73.8301 95.4323C73.8301 94.6581 74.3316 94.0442 74.9405 94.0442Z" fill="#131345"/><path d="M56.4785 130.831C56.4785 130.448 56.7116 130.137 56.9991 130.137H59.4284C59.7159 130.137 59.949 130.448 59.949 130.831C59.949 131.215 59.7159 131.525 59.4284 131.525H56.9991C56.7116 131.525 56.4785 131.215 56.4785 130.831Z" fill="url(#prefix__paint77_linear_18861_62260)"/><path opacity="0.8" d="M84.6147 97.4424L85.5608 106.278L82.0435 106.622L81.1508 97.1614L84.6147 97.4424Z" fill="url(#prefix__paint78_radial_18861_62260)"/><rect x="83.8594" y="99.9438" width="2.96109" height="1.12123" rx="0.560617" transform="rotate(87.08 83.8594 99.9438)" fill="white"/><defs><linearGradient id="prefix__paint0_linear_18861_62260" x1="195.647" y1="89.7597" x2="202.836" y2="121.146" gradientUnits="userSpaceOnUse"><stop stop-color="#D1F1FF"/><stop offset="1" stop-color="#34BFFA"/></linearGradient><linearGradient id="prefix__paint1_linear_18861_62260" x1="215.987" y1="97.2354" x2="212.364" y2="127.515" gradientUnits="userSpaceOnUse"><stop stop-color="#E5F7FF"/><stop offset="0.999" stop-color="#32BEFA"/></linearGradient><linearGradient id="prefix__paint2_linear_18861_62260" x1="202.638" y1="66.4427" x2="143.936" y2="153.38" gradientUnits="userSpaceOnUse"><stop offset="0.0012901" stop-color="#D1F1FF"/><stop offset="0.290086" stop-color="#85DAFF"/><stop offset="0.637502" stop-color="#32BEFA"/><stop offset="1" stop-color="#325E9F"/></linearGradient><linearGradient id="prefix__paint3_linear_18861_62260" x1="176.17" y1="90.6222" x2="148.407" y2="126.784" gradientUnits="userSpaceOnUse"><stop offset="0.0012901" stop-color="#D1F1FF"/><stop offset="0.3278" stop-color="#85DAFF"/><stop offset="0.7656" stop-color="#32BEFA"/><stop offset="1" stop-color="#325E9F"/></linearGradient><linearGradient id="prefix__paint4_linear_18861_62260" x1="161.832" y1="102.093" x2="287.748" y2="140.515" gradientUnits="userSpaceOnUse"><stop stop-color="#F5F6FA"/><stop offset="0.267563" stop-color="#F9F9FF"/><stop offset="0.59012" stop-color="#C3C3EB"/><stop offset="1" stop-color="#42428F"/></linearGradient><linearGradient id="prefix__paint5_linear_18861_62260" x1="85.2607" y1="99.4059" x2="225.274" y2="141.753" gradientUnits="userSpaceOnUse"><stop offset="0.333337" stop-color="#A2A2DB"/><stop offset="0.595746" stop-color="#DEDEF7"/><stop offset="0.677391" stop-color="#EDEDFC"/><stop offset="1" stop-color="#57579F"/></linearGradient><linearGradient id="prefix__paint6_linear_18861_62260" x1="115.205" y1="103.09" x2="197.435" y2="125.59" gradientUnits="userSpaceOnUse"><stop stop-color="#C3A9FF"/><stop offset="0.549022" stop-color="white"/><stop offset="1" stop-color="white" stop-opacity="0.36"/></linearGradient><linearGradient id="prefix__paint7_linear_18861_62260" x1="194.311" y1="134.55" x2="194.312" y2="127.832" gradientUnits="userSpaceOnUse"><stop stop-color="#2C2643" stop-opacity="0"/><stop offset="1" stop-color="#2C2643" stop-opacity="0.24"/></linearGradient><linearGradient id="prefix__paint8_linear_18861_62260" x1="193.145" y1="127.832" x2="193.145" y2="131.191" gradientUnits="userSpaceOnUse"><stop stop-color="#212240" stop-opacity="0.08"/><stop offset="1" stop-color="#212240" stop-opacity="0"/></linearGradient><linearGradient id="prefix__paint9_linear_18861_62260" x1="223.657" y1="120.114" x2="223.658" y2="117.754" gradientUnits="userSpaceOnUse"><stop stop-color="#2C2643" stop-opacity="0"/><stop offset="1" stop-color="#2C2643" stop-opacity="0.4"/></linearGradient><radialGradient id="prefix__paint10_radial_18861_62260" cx="0" cy="0" r="1" gradientUnits="userSpaceOnUse" gradientTransform="translate(203.432 117.754) rotate(164.055) scale(3.05675 6.1135)"><stop stop-color="white" stop-opacity="0.96"/><stop offset="1" stop-color="white" stop-opacity="0.64"/></radialGradient><linearGradient id="prefix__paint11_linear_18861_62260" x1="203.432" y1="119.644" x2="202.115" y2="117.861" gradientUnits="userSpaceOnUse"><stop stop-color="#212240" stop-opacity="0.08"/><stop offset="1" stop-color="#212240" stop-opacity="0"/></linearGradient><linearGradient id="prefix__paint12_linear_18861_62260" x1="199.233" y1="120.484" x2="206.106" y2="125.52" gradientUnits="userSpaceOnUse"><stop stop-color="white"/><stop offset="1" stop-color="white" stop-opacity="0"/></linearGradient><linearGradient id="prefix__paint13_linear_18861_62260" x1="247.728" y1="120.926" x2="240.491" y2="125.919" gradientUnits="userSpaceOnUse"><stop stop-color="white"/><stop offset="1" stop-color="white" stop-opacity="0"/></linearGradient><linearGradient id="prefix__paint14_linear_18861_62260" x1="154.521" y1="114.407" x2="154.521" y2="138.261" gradientUnits="userSpaceOnUse"><stop offset="0.000404094" stop-color="#212240"/><stop offset="0.2945" stop-color="#212240" stop-opacity="0"/></linearGradient><linearGradient id="prefix__paint15_linear_18861_62260" x1="188.951" y1="114.407" x2="188.951" y2="138.261" gradientUnits="userSpaceOnUse"><stop offset="0.000404094" stop-color="#212240"/><stop offset="0.2945" stop-color="#212240" stop-opacity="0"/></linearGradient><linearGradient id="prefix__paint16_linear_18861_62260" x1="157.666" y1="131.61" x2="161.657" y2="136.343" gradientUnits="userSpaceOnUse"><stop stop-color="#1A1A38"/><stop offset="1" stop-color="#434366"/></linearGradient><linearGradient id="prefix__paint17_linear_18861_62260" x1="192.096" y1="131.61" x2="196.086" y2="136.343" gradientUnits="userSpaceOnUse"><stop stop-color="#1A1A38"/><stop offset="1" stop-color="#434366"/></linearGradient><linearGradient id="prefix__paint18_linear_18861_62260" x1="222.747" y1="136.229" x2="223.669" y2="138.663" gradientUnits="userSpaceOnUse"><stop stop-color="#1A1A38"/><stop offset="1" stop-color="#434366"/></linearGradient><linearGradient id="prefix__paint19_linear_18861_62260" x1="188.526" y1="130.531" x2="190.019" y2="116.695" gradientUnits="userSpaceOnUse"><stop offset="0.000421262" stop-color="#E6E8F5"/><stop offset="1" stop-color="#7EB5F0"/></linearGradient><linearGradient id="prefix__paint20_linear_18861_62260" x1="154.096" y1="130.531" x2="155.589" y2="116.695" gradientUnits="userSpaceOnUse"><stop offset="0.000421262" stop-color="#E6E8F5"/><stop offset="1" stop-color="#7EB5F0"/></linearGradient><linearGradient id="prefix__paint21_linear_18861_62260" x1="188.212" y1="139.818" x2="187.119" y2="125.968" gradientUnits="userSpaceOnUse"><stop offset="0.000421262" stop-color="#E6E8F5"/><stop offset="1" stop-color="#7EB5F0"/></linearGradient><linearGradient id="prefix__paint22_linear_18861_62260" x1="153.782" y1="139.818" x2="152.69" y2="125.968" gradientUnits="userSpaceOnUse"><stop offset="0.000421262" stop-color="#E6E8F5"/><stop offset="1" stop-color="#7EB5F0"/></linearGradient><radialGradient id="prefix__paint23_radial_18861_62260" cx="0" cy="0" r="1" gradientUnits="userSpaceOnUse" gradientTransform="translate(193.14 137.916) rotate(90) scale(3.35902 50.3852)"><stop stop-color="#212240" stop-opacity="0.23"/><stop offset="1" stop-color="#23266A" stop-opacity="0"/></radialGradient><radialGradient id="prefix__paint24_radial_18861_62260" cx="0" cy="0" r="1" gradientUnits="userSpaceOnUse" gradientTransform="translate(193.14 137.706) rotate(90) scale(2.30932 50.3852)"><stop stop-color="#212240" stop-opacity="0.51"/><stop offset="1" stop-color="#23266A" stop-opacity="0"/></radialGradient><radialGradient id="prefix__paint25_radial_18861_62260" cx="0" cy="0" r="1" gradientUnits="userSpaceOnUse" gradientTransform="translate(224.008 138.001) rotate(90) scale(1.25963 14.4858)"><stop stop-color="#212240"/><stop offset="1" stop-color="#23266A" stop-opacity="0"/></radialGradient><radialGradient id="prefix__paint26_radial_18861_62260" cx="0" cy="0" r="1" gradientUnits="userSpaceOnUse" gradientTransform="translate(158.503 137.917) rotate(90) scale(1.67951 15.745)"><stop stop-color="#212240"/><stop offset="1" stop-color="#23266A" stop-opacity="0"/></radialGradient><radialGradient id="prefix__paint27_radial_18861_62260" cx="0" cy="0" r="1" gradientUnits="userSpaceOnUse" gradientTransform="translate(191.254 137.999) rotate(90) scale(1.25963 18.0543)"><stop stop-color="#212240"/><stop offset="1" stop-color="#23266A" stop-opacity="0"/></radialGradient><radialGradient id="prefix__paint28_radial_18861_62260" cx="0" cy="0" r="1" gradientUnits="userSpaceOnUse" gradientTransform="translate(219.467 138) rotate(90) scale(0.839754 14.0465)"><stop stop-color="#212240"/><stop offset="1" stop-color="#23266A" stop-opacity="0"/></radialGradient><radialGradient id="prefix__paint29_radial_18861_62260" cx="0" cy="0" r="1" gradientUnits="userSpaceOnUse" gradientTransform="translate(159.634 138) rotate(90) scale(0.839754 14.0465)"><stop stop-color="#212240"/><stop offset="1" stop-color="#23266A" stop-opacity="0"/></radialGradient><radialGradient id="prefix__paint30_radial_18861_62260" cx="0" cy="0" r="1" gradientUnits="userSpaceOnUse" gradientTransform="translate(120.716 138.11) rotate(90) scale(2.08229 41.6459)"><stop stop-color="#212240" stop-opacity="0.51"/><stop offset="1" stop-color="#23266A" stop-opacity="0"/></radialGradient><radialGradient id="prefix__paint31_radial_18861_62260" cx="0" cy="0" r="1" gradientUnits="userSpaceOnUse" gradientTransform="translate(131.891 137.936) rotate(90) scale(1.3882 12.7711)"><stop stop-color="#212240"/><stop offset="1" stop-color="#23266A" stop-opacity="0"/></radialGradient><radialGradient id="prefix__paint32_radial_18861_62260" cx="0" cy="0" r="1" gradientUnits="userSpaceOnUse" gradientTransform="translate(106.48 138.11) rotate(90) scale(1.21467 14.9273)"><stop stop-color="#212240"/><stop offset="1" stop-color="#23266A" stop-opacity="0"/></radialGradient><radialGradient id="prefix__paint33_radial_18861_62260" cx="0" cy="0" r="1" gradientUnits="userSpaceOnUse" gradientTransform="translate(135.573 137.936) rotate(90) scale(0.694098 11.6101)"><stop stop-color="#212240"/><stop offset="1" stop-color="#23266A" stop-opacity="0"/></radialGradient><linearGradient id="prefix__paint34_linear_18861_62260" x1="159.273" y1="116.255" x2="125.454" y2="116.298" gradientUnits="userSpaceOnUse"><stop offset="0.00173748" stop-color="#25255C"/><stop offset="1" stop-color="#9D95DD"/></linearGradient><linearGradient id="prefix__paint35_linear_18861_62260" x1="137.674" y1="96.3885" x2="137.674" y2="101.091" gradientUnits="userSpaceOnUse"><stop stop-color="#616A8F"/><stop offset="1" stop-color="#212240"/></linearGradient><linearGradient id="prefix__paint36_linear_18861_62260" x1="134.083" y1="96.8609" x2="134.083" y2="101.799" gradientUnits="userSpaceOnUse"><stop stop-color="#616A8F"/><stop offset="1" stop-color="#212240"/></linearGradient><linearGradient id="prefix__paint37_linear_18861_62260" x1="125.545" y1="96.8404" x2="125.545" y2="101.708" gradientUnits="userSpaceOnUse"><stop stop-color="#616A8F"/><stop offset="1" stop-color="#212240"/></linearGradient><linearGradient id="prefix__paint38_linear_18861_62260" x1="130.249" y1="95.5987" x2="130.249" y2="102.814" gradientUnits="userSpaceOnUse"><stop stop-color="#2E2E75"/><stop offset="1" stop-color="#131345"/></linearGradient><linearGradient id="prefix__paint39_linear_18861_62260" x1="122.405" y1="96.3885" x2="122.405" y2="101.091" gradientUnits="userSpaceOnUse"><stop stop-color="#616A8F"/><stop offset="1" stop-color="#212240"/></linearGradient><linearGradient id="prefix__paint40_linear_18861_62260" x1="123.874" y1="107.753" x2="151.234" y2="120.704" gradientUnits="userSpaceOnUse"><stop stop-color="#171146"/><stop stop-color="#171146"/><stop offset="0.9981" stop-color="#988EE7"/></linearGradient><radialGradient id="prefix__paint41_radial_18861_62260" cx="0" cy="0" r="1" gradientTransform="matrix(1.91705 4.48731 3.59516 -1.53232 133.8 108.228)" gradientUnits="userSpaceOnUse"><stop offset="0.2269" stop-color="#F8F9FB" stop-opacity="0.5"/><stop offset="0.9991" stop-color="#F8F9FB" stop-opacity="0"/></radialGradient><linearGradient id="prefix__paint42_linear_18861_62260" x1="108.124" y1="121.114" x2="120.353" y2="119.498" gradientUnits="userSpaceOnUse"><stop stop-color="#110E55"/><stop offset="0.56154" stop-color="#5B599D"/><stop offset="0.901732" stop-color="#13133C"/></linearGradient><linearGradient id="prefix__paint43_linear_18861_62260" x1="133.765" y1="121.114" x2="112.386" y2="126.976" gradientUnits="userSpaceOnUse"><stop offset="0.0563914" stop-color="#453975"/><stop offset="0.322117" stop-color="#7262AA"/><stop offset="0.812475" stop-color="#9899D4"/></linearGradient><linearGradient id="prefix__paint44_linear_18861_62260" x1="118.126" y1="123.994" x2="135.293" y2="121.982" gradientUnits="userSpaceOnUse"><stop stop-color="#171146"/><stop stop-color="#7D60C4"/><stop offset="0.9981" stop-color="#1A1A38"/></linearGradient><linearGradient id="prefix__paint45_linear_18861_62260" x1="134.835" y1="122.287" x2="149.31" y2="124.33" gradientUnits="userSpaceOnUse"><stop stop-color="#2D2E46"/><stop stop-color="#171146"/><stop offset="0.9981" stop-color="#A5A3E0"/></linearGradient><linearGradient id="prefix__paint46_linear_18861_62260" x1="147.899" y1="114.838" x2="127.831" y2="136.152" gradientUnits="userSpaceOnUse"><stop stop-color="#616A8F"/><stop offset="1" stop-color="#212240"/></linearGradient><linearGradient id="prefix__paint47_linear_18861_62260" x1="134.407" y1="129.438" x2="135.333" y2="118.622" gradientUnits="userSpaceOnUse"><stop offset="0.000421262" stop-color="#E6E8F5"/><stop offset="1" stop-color="#7EB5F0"/></linearGradient><linearGradient id="prefix__paint48_linear_18861_62260" x1="133.356" y1="138.068" x2="133.182" y2="127.367" gradientUnits="userSpaceOnUse"><stop offset="0.000421262" stop-color="#E6E8F5"/><stop offset="1" stop-color="#7EB5F0"/></linearGradient><linearGradient id="prefix__paint49_linear_18861_62260" x1="129.282" y1="122.287" x2="143.757" y2="124.33" gradientUnits="userSpaceOnUse"><stop stop-color="#2D2E46"/><stop stop-color="#171146"/><stop offset="0.9981" stop-color="#A5A3E0"/></linearGradient><linearGradient id="prefix__paint50_linear_18861_62260" x1="115.544" y1="114.838" x2="95.4995" y2="136.497" gradientUnits="userSpaceOnUse"><stop stop-color="#616A8F"/><stop offset="1" stop-color="#212240"/></linearGradient><linearGradient id="prefix__paint51_linear_18861_62260" x1="101.819" y1="129.403" x2="102.745" y2="118.587" gradientUnits="userSpaceOnUse"><stop offset="0.000421262" stop-color="#E6E8F5"/><stop offset="1" stop-color="#7EB5F0"/></linearGradient><linearGradient id="prefix__paint52_linear_18861_62260" x1="100.768" y1="138.033" x2="100.594" y2="127.333" gradientUnits="userSpaceOnUse"><stop offset="0.000421262" stop-color="#E6E8F5"/><stop offset="1" stop-color="#7EB5F0"/></linearGradient><linearGradient id="prefix__paint53_linear_18861_62260" x1="88.5448" y1="125.254" x2="110.167" y2="126.453" gradientUnits="userSpaceOnUse"><stop stop-color="#171146"/><stop stop-color="#7D60C4"/><stop offset="0.9981" stop-color="#1A1A38"/></linearGradient><linearGradient id="prefix__paint54_linear_18861_62260" x1="106.463" y1="114.966" x2="125.034" y2="95.8581" gradientUnits="userSpaceOnUse"><stop stop-color="#2E2E75"/><stop offset="1" stop-color="#131345"/></linearGradient><linearGradient id="prefix__paint55_linear_18861_62260" x1="87.8216" y1="116.255" x2="133.482" y2="105.331" gradientUnits="userSpaceOnUse"><stop stop-color="#110E55"/><stop offset="0.56154" stop-color="#5B599D"/><stop offset="0.901732" stop-color="#13133C"/></linearGradient><linearGradient id="prefix__paint56_linear_18861_62260" x1="134.461" y1="109.625" x2="129.661" y2="101.358" gradientUnits="userSpaceOnUse"><stop offset="0.000421262" stop-color="#D6F3FF"/><stop offset="1" stop-color="#32BEFA"/></linearGradient><linearGradient id="prefix__paint57_linear_18861_62260" x1="101.175" y1="107.044" x2="99.7268" y2="118.039" gradientUnits="userSpaceOnUse"><stop stop-color="#616A8F"/><stop offset="1" stop-color="#212240"/></linearGradient><linearGradient id="prefix__paint58_linear_18861_62260" x1="115.996" y1="128.402" x2="95.9555" y2="126.58" gradientUnits="userSpaceOnUse"><stop offset="0.0943126" stop-color="#9D95DD"/><stop offset="0.403367" stop-color="#5A589C"/><stop offset="0.774744" stop-color="#D2BFFF"/><stop offset="1" stop-color="#D2BFFF"/></linearGradient><radialGradient id="prefix__paint59_radial_18861_62260" cx="0" cy="0" r="1" gradientUnits="userSpaceOnUse" gradientTransform="translate(71.9216 137.946) rotate(90) scale(2.25582 36.2666)"><stop stop-color="#212240" stop-opacity="0.51"/><stop offset="1" stop-color="#23266A" stop-opacity="0"/></radialGradient><radialGradient id="prefix__paint60_radial_18861_62260" cx="0" cy="0" r="1" gradientUnits="userSpaceOnUse" gradientTransform="translate(59.668 137.892) rotate(90) scale(1.22382 10.393)"><stop stop-color="#212240"/><stop offset="1" stop-color="#23266A" stop-opacity="0"/></radialGradient><radialGradient id="prefix__paint61_radial_18861_62260" cx="0" cy="0" r="1" gradientUnits="userSpaceOnUse" gradientTransform="translate(83.1631 137.892) rotate(90) scale(1.22382 10.393)"><stop stop-color="#212240"/><stop offset="1" stop-color="#23266A" stop-opacity="0"/></radialGradient><radialGradient id="prefix__paint62_radial_18861_62260" cx="0" cy="0" r="1" gradientUnits="userSpaceOnUse" gradientTransform="translate(58.2109 137.972) rotate(90) scale(0.529553 9.03136)"><stop stop-color="#212240"/><stop offset="1" stop-color="#23266A" stop-opacity="0"/></radialGradient><radialGradient id="prefix__paint63_radial_18861_62260" cx="0" cy="0" r="1" gradientUnits="userSpaceOnUse" gradientTransform="translate(83.9508 137.891) rotate(90) scale(0.529553 9.03136)"><stop stop-color="#212240"/><stop offset="1" stop-color="#23266A" stop-opacity="0"/></radialGradient><linearGradient id="prefix__paint64_linear_18861_62260" x1="56.7659" y1="133.681" x2="55.9707" y2="124.255" gradientUnits="userSpaceOnUse"><stop offset="0.000421262" stop-color="#CFD5EB"/><stop offset="0.9991" stop-color="#747C99"/></linearGradient><linearGradient id="prefix__paint65_linear_18861_62260" x1="92.3181" y1="122.242" x2="82.4762" y2="122.242" gradientUnits="userSpaceOnUse"><stop offset="0.00173748" stop-color="#25255C"/><stop offset="1" stop-color="#9391CE"/></linearGradient><linearGradient id="prefix__paint66_linear_18861_62260" x1="43.1452" y1="125.147" x2="84.6244" y2="114.704" gradientUnits="userSpaceOnUse"><stop stop-color="#171146"/><stop stop-color="#7D60C4"/><stop offset="0.9981" stop-color="#1A1A38"/></linearGradient><linearGradient id="prefix__paint67_linear_18861_62260" x1="65.7444" y1="121.501" x2="51.8625" y2="139.027" gradientUnits="userSpaceOnUse"><stop stop-color="#616A8F"/><stop offset="1" stop-color="#212240"/></linearGradient><linearGradient id="prefix__paint68_linear_18861_62260" x1="56.5286" y1="136.93" x2="56.5286" y2="113.521" gradientUnits="userSpaceOnUse"><stop offset="0.000421262" stop-color="#E6E8F5"/><stop offset="1" stop-color="#7EB5F0"/></linearGradient><linearGradient id="prefix__paint69_linear_18861_62260" x1="55.335" y1="140.895" x2="55.335" y2="129.673" gradientUnits="userSpaceOnUse"><stop offset="0.000421262" stop-color="#E6E8F5"/><stop offset="1" stop-color="#7EB5F0"/></linearGradient><linearGradient id="prefix__paint70_linear_18861_62260" x1="92.2249" y1="121.501" x2="78.343" y2="139.027" gradientUnits="userSpaceOnUse"><stop stop-color="#616A8F"/><stop offset="1" stop-color="#212240"/></linearGradient><linearGradient id="prefix__paint71_linear_18861_62260" x1="83.0192" y1="133.875" x2="83.0192" y2="108.213" gradientUnits="userSpaceOnUse"><stop offset="0.000421262" stop-color="#E6E8F5"/><stop offset="1" stop-color="#7EB5F0"/></linearGradient><linearGradient id="prefix__paint72_linear_18861_62260" x1="81.8262" y1="140.93" x2="81.8262" y2="129.708" gradientUnits="userSpaceOnUse"><stop offset="0.000421262" stop-color="#E6E8F5"/><stop offset="1" stop-color="#7EB5F0"/></linearGradient><linearGradient id="prefix__paint73_linear_18861_62260" x1="67.4564" y1="130.831" x2="54.9357" y2="129.751" gradientUnits="userSpaceOnUse"><stop offset="0.245824" stop-color="#372D5E"/><stop offset="0.9981" stop-color="#9974EE"/></linearGradient><linearGradient id="prefix__paint74_linear_18861_62260" x1="48.8305" y1="114.52" x2="89.2805" y2="107.423" gradientUnits="userSpaceOnUse"><stop stop-color="#110E55"/><stop offset="0.56154" stop-color="#5B599D"/><stop offset="0.901732" stop-color="#13133C"/></linearGradient><linearGradient id="prefix__paint75_linear_18861_62260" x1="46.4137" y1="128.228" x2="63.7136" y2="132.644" gradientUnits="userSpaceOnUse"><stop stop-color="#171146"/><stop offset="0.281361" stop-color="#171146"/><stop offset="0.9981" stop-color="#524186"/></linearGradient><linearGradient id="prefix__paint76_linear_18861_62260" x1="80.2733" y1="92.7736" x2="80.2733" y2="99.0432" gradientUnits="userSpaceOnUse"><stop stop-color="#616A8F"/><stop offset="1" stop-color="#212240"/></linearGradient><linearGradient id="prefix__paint77_linear_18861_62260" x1="59.5266" y1="128.694" x2="59.4694" y2="132.291" gradientUnits="userSpaceOnUse"><stop stop-color="#FD665B"/><stop offset="1" stop-color="#FC8549"/></linearGradient><radialGradient id="prefix__paint78_radial_18861_62260" cx="0" cy="0" r="1" gradientTransform="matrix(-1.33437 2.01184 0.859721 3.44407 83.3409 101.607)" gradientUnits="userSpaceOnUse"><stop offset="0.2269" stop-color="#F8F9FB" stop-opacity="0.5"/><stop offset="0.9991" stop-color="#F8F9FB" stop-opacity="0"/></radialGradient><clipPath id="prefix__clip0_18861_62260"><rect width="138.238" height="104.626" fill="white" transform="translate(80.9961 18.7422)"/></clipPath></defs></svg>