<svg width="64" height="64" viewBox="0 0 64 64" fill="none" xmlns="http://www.w3.org/2000/svg">
<g clip-path="url(#clip0_8643_37103)">
<g clip-path="url(#clip1_8643_37103)">
<path d="M51.7335 33.0667C45.241 25.323 39.0401 23.4667 35.1711 23.4667H17.4668L27.2001 33.0667H51.7335Z" fill="url(#paint0_linear_8643_37103)"/>
<path d="M44.2683 26.3766C46.6257 27.8472 49.1567 29.9933 51.7335 33.0667H27.2002C30.3706 28.5092 36.0677 27.6831 40.5737 27.0297C41.9522 26.8298 43.2192 26.646 44.2683 26.3766Z" fill="url(#paint1_linear_8643_37103)"/>
<path d="M17.707 23.4677C10.5331 23.4677 4.7998 31.9999 4.7998 31.9999L27.1998 33.0666C26.0434 29.9821 22.1982 23.4677 17.707 23.4677Z" fill="url(#paint2_linear_8643_37103)"/>
<path d="M20.9247 32.7679C19.4801 29.8782 16.6937 28.5203 14.2019 27.306C13.0986 26.7684 12.0531 26.2588 11.2073 25.657C7.50251 28.0937 4.98694 31.7262 4.81006 31.9854C4.89052 31.9943 4.97099 32.0032 5.05147 32.012L20.9247 32.7679Z" fill="url(#paint3_linear_8643_37103)"/>
<mask id="mask0_8643_37103" style="mask-type:alpha" maskUnits="userSpaceOnUse" x="0" y="32" width="64" height="16">
<path fill-rule="evenodd" clip-rule="evenodd" d="M27.2 33.0667L4.80003 32L1.46669 33.0667C1.46669 33.0667 0.826321 36.8644 0.213996 41.4282C0.0726754 42.4815 0.334477 43.5513 0.984124 44.3923C2.11284 45.8535 3.92053 48 4.80002 48H27.2H36.2675H61.8667C63.0449 48 64 47.0449 64 45.8667V36.8L51.7334 33.0667H27.2Z" fill="white"/>
</mask>
<g mask="url(#mask0_8643_37103)">
<path d="M64.0002 48V36.8L51.7335 33.0667H27.2002V48H64.0002Z" fill="url(#paint4_linear_8643_37103)"/>
<path d="M38.4 45.8667C38.4 47.0449 37.4453 48 36.2671 48C29.0368 48 5.84356 48 4.73424 48C3.41918 48 0 43.0667 0 43.0667C0.657537 37.8111 1.44658 33.0667 1.44658 33.0667L4.73425 32L27.2 33.0667L38.4 36.8V45.8667Z" fill="url(#paint5_linear_8643_37103)"/>
<path d="M64 47.9999H0V45.8661H41.1201C42.2401 45.8661 44.1335 45.8663 45.4668 44.7997C46.5742 43.9138 47.4935 43.7333 48.1602 43.7333H55.0137C56.3734 43.7333 57.1607 43.9604 58 44.7997C59.0667 45.8663 60.8005 45.8661 62.1338 45.8661H64V47.9999Z" fill="url(#paint6_linear_8643_37103)"/>
<path d="M64 47.9999H0V45.8661H41.1201C42.2401 45.8661 44.1335 45.8663 45.4668 44.7997C46.5742 43.9138 47.4935 43.7333 48.1602 43.7333H55.0137C56.3734 43.7333 57.1607 43.9604 58 44.7997C59.0667 45.8663 60.8005 45.8661 62.1338 45.8661H64V47.9999Z" fill="url(#paint7_linear_8643_37103)"/>
<path d="M38.4001 36.8L27.2001 33.0667L4.80013 32L1.4668 33.0667C3.4668 34.1333 7.92002 35.7333 15.4668 35.7333H27.7335C32.5335 35.7333 32.5335 37.8667 37.4616 37.8667C38.532 37.8667 38.4001 37.8667 38.4001 37.8667C38.4001 36.8 38.4001 37.8667 38.4001 36.8Z" fill="url(#paint8_linear_8643_37103)"/>
</g>
<path opacity="0.8" d="M43.4668 36.8H58.9335L56.8001 37.8667H45.6001L43.4668 36.8Z" fill="url(#paint9_linear_8643_37103)"/>
<path d="M63.9998 36.8H56.7998V37.8667H63.9998V36.8Z" fill="white"/>
<path d="M45.5999 37.8667H38.3999C38.3999 37.8667 38.3999 37.3867 38.3999 36.8H45.5999V37.8667Z" fill="white"/>
<path d="M38.3999 37.8667H37.3333C36.7442 37.8667 36.2666 37.3892 36.2666 36.8H38.3999V37.8667Z" fill="url(#paint10_radial_8643_37103)"/>
<rect x="36.2666" y="36.8" width="2.13333" height="1.06667" fill="url(#paint11_linear_8643_37103)"/>
<path opacity="0.24" d="M42.6666 37.8667L40.0266 45.8667H38.3999V37.8667H42.6666Z" fill="url(#paint12_linear_8643_37103)"/>
<path opacity="0.24" d="M59.7334 37.8667L62.6134 45.8667H64.0001V37.8667H59.7334Z" fill="url(#paint13_linear_8643_37103)"/>
<path opacity="0.64" d="M11.4668 45.8666C11.4668 45.1999 11.4668 44.1127 11.4668 43.6093C11.4668 39.8469 9.67957 36.7999 7.43843 36.7999C5.1973 36.7999 3.4668 39.8469 3.4668 43.6093C3.4668 44.1127 3.46679 45.3333 3.46681 45.8666" fill="url(#paint14_linear_8643_37103)"/>
<path opacity="0.64" d="M33.3335 45.8666C33.3335 45.3333 33.3335 44.1127 33.3335 43.6093C33.3335 39.8469 31.5463 36.7999 29.3051 36.7999C27.064 36.7999 25.3335 39.8469 25.3335 43.6093C25.3335 44.1127 25.3335 45.3333 25.3335 45.8666" fill="url(#paint15_linear_8643_37103)"/>
<path d="M10.8195 48C10.4451 48 10.0264 47.683 10.1333 47.3333C10.4542 46.392 10.6667 45.3333 10.6667 44.1333C10.6667 40.6638 9.46667 37.6 7.42311 37.6C5.33333 37.6 4 40.6907 4 44.1333C4 47.6028 5.55416 50.1333 7.37727 50.1333H10.6667C11.7364 50.1333 12.6915 49.4254 13.3333 48H10.8195Z" fill="url(#paint16_linear_8643_37103)"/>
<path d="M32.6862 48C32.3118 48 31.8931 47.683 32 47.3333C32.3209 46.392 32.5334 45.3333 32.5334 44.1333C32.5334 40.6638 31.3334 37.6 29.2898 37.6C27.2 37.6 25.8667 40.6907 25.8667 44.1333C25.8667 47.6028 27.4209 50.1333 29.244 50.1333H32.5334C33.6031 50.1333 34.5582 49.4254 35.2 48H32.6862Z" fill="url(#paint17_linear_8643_37103)"/>
<path d="M48 48C48.6667 49.4667 49.2905 50.1333 50.4 50.1333H54.0753C55.2 50.1333 56.1635 49.4597 56.8 48H48Z" fill="url(#paint18_linear_8643_37103)"/>
<path d="M26.9336 43.8666C26.9336 46.4317 27.9564 48.5333 29.2003 48.5333C30.4442 48.5333 31.4669 46.4317 31.4669 43.8666C31.4669 41.3015 30.4442 39.2 29.2003 39.2C27.9564 39.2 26.9336 41.3015 26.9336 43.8666Z" fill="url(#paint19_linear_8643_37103)"/>
<path d="M5.06689 43.8666C5.06689 46.4317 6.08966 48.5333 7.33356 48.5333C8.57746 48.5333 9.60023 46.4317 9.60023 43.8666C9.60023 41.3015 8.57746 39.2 7.33356 39.2C6.08966 39.2 5.06689 41.3015 5.06689 43.8666Z" fill="url(#paint20_linear_8643_37103)"/>
<path d="M27.7583 43.8975C27.7583 41.6105 28.5556 39.6944 29.6003 39.2927C29.4628 39.2309 29.3253 39.2 29.1879 39.2C27.9508 39.2 26.9336 41.3015 26.9336 43.8666C26.9336 46.4317 27.9508 48.5333 29.1879 48.5333C29.3253 48.5333 29.4628 48.5024 29.6003 48.4406C28.5556 48.1006 27.7583 46.1845 27.7583 43.8975Z" fill="url(#paint21_linear_8643_37103)"/>
<path d="M5.89164 43.8975C5.89164 41.6105 6.68889 39.6944 7.73356 39.2927C7.5961 39.2309 7.45865 39.2 7.32119 39.2C6.08408 39.2 5.06689 41.3015 5.06689 43.8666C5.06689 46.4317 6.08408 48.5333 7.32119 48.5333C7.45865 48.5333 7.5961 48.5024 7.73356 48.4406C6.68889 48.1006 5.89164 46.1845 5.89164 43.8975Z" fill="url(#paint22_linear_8643_37103)"/>
<path opacity="0.75" d="M32 52.2667C49.6731 52.2667 64 51.3115 64 50.1333C64 48.9551 49.6731 48 32 48C14.3269 48 0 48.9551 0 50.1333C0 51.3115 14.3269 52.2667 32 52.2667Z" fill="url(#paint23_radial_8643_37103)"/>
<path opacity="0.75" d="M32 51.4667C49.6731 51.4667 64 50.81 64 50C64 49.19 49.6731 48.5333 32 48.5333C14.3269 48.5333 0 49.19 0 50C0 50.81 14.3269 51.4667 32 51.4667Z" fill="url(#paint24_radial_8643_37103)"/>
<path opacity="0.8" d="M51.5999 50.9867C56.6809 50.9867 60.7999 50.6285 60.7999 50.1867C60.7999 49.7449 56.6809 49.3867 51.5999 49.3867C46.5189 49.3867 42.3999 49.7449 42.3999 50.1867C42.3999 50.6285 46.5189 50.9867 51.5999 50.9867Z" fill="url(#paint25_radial_8643_37103)"/>
<path opacity="0.8" d="M10 51.2C15.5228 51.2 20 50.7224 20 50.1333C20 49.5442 15.5228 49.0667 10 49.0667C4.47715 49.0667 0 49.5442 0 50.1333C0 50.7224 4.47715 51.2 10 51.2Z" fill="url(#paint26_radial_8643_37103)"/>
<path opacity="0.8" d="M30.8002 50.9867C37.133 50.9867 42.2668 50.6285 42.2668 50.1867C42.2668 49.7449 37.133 49.3867 30.8002 49.3867C24.4673 49.3867 19.3335 49.7449 19.3335 50.1867C19.3335 50.6285 24.4673 50.9867 30.8002 50.9867Z" fill="url(#paint27_radial_8643_37103)"/>
<path opacity="0.64" d="M48.72 50.7201C53.6537 50.7201 57.6533 50.4813 57.6533 50.1868C57.6533 49.8922 53.6537 49.6534 48.72 49.6534C43.7862 49.6534 39.7866 49.8922 39.7866 50.1868C39.7866 50.4813 43.7862 50.7201 48.72 50.7201Z" fill="url(#paint28_radial_8643_37103)"/>
<path opacity="0.64" d="M10.72 50.7201C15.6537 50.7201 19.6533 50.4813 19.6533 50.1868C19.6533 49.8922 15.6537 49.6534 10.72 49.6534C5.78621 49.6534 1.78662 49.8922 1.78662 50.1868C1.78662 50.4813 5.78621 50.7201 10.72 50.7201Z" fill="url(#paint29_radial_8643_37103)"/>
<g opacity="0.88" filter="url(#filter0_d_8643_37103)">
<path fill-rule="evenodd" clip-rule="evenodd" d="M16 40C24.8366 40 32 32.8366 32 24C32 15.1634 24.8366 8 16 8C7.16344 8 0 15.1634 0 24C0 32.8366 7.16344 40 16 40Z" fill="#F8F8FE"/>
</g>
<path opacity="0.88" fill-rule="evenodd" clip-rule="evenodd" d="M16 40C24.8366 40 32 32.8366 32 24C32 15.1634 24.8366 8 16 8C7.16344 8 0 15.1634 0 24C0 32.8366 7.16344 40 16 40Z" fill="#F8F8FE"/>
<path d="M21.6652 25.357L20.6154 24.3059L22.7151 22.2039C23.095 21.8235 23.095 21.1829 22.7151 20.8025C22.3351 20.4221 21.7052 20.4121 21.3153 20.8025L19.2157 22.9046L17.1061 20.7925L19.2057 18.6904C19.5856 18.31 19.5856 17.6694 19.2057 17.289C18.8257 16.9087 18.1959 16.8987 17.8059 17.289L15.7063 19.3911L14.6565 18.3401C14.2666 17.9497 13.6467 17.9497 13.2567 18.3401L11.807 19.7915C9.94733 21.6533 9.90734 24.6363 11.647 26.5882L11.727 26.6682L9.33744 29.0306C8.88752 29.481 8.88752 30.2117 9.33744 30.6622C9.78736 31.1126 10.5172 31.1126 10.9671 30.6622L13.3367 28.2898L13.4167 28.3699C15.3664 30.1116 18.3458 30.0716 20.2055 28.2098L21.6552 26.7583C22.0352 26.378 22.0352 25.7373 21.6552 25.357H21.6652Z" fill="url(#paint30_linear_8643_37103)"/>
</g>
</g>
<defs>
<filter id="filter0_d_8643_37103" x="0" y="8" width="36" height="38" filterUnits="userSpaceOnUse" color-interpolation-filters="sRGB">
<feFlood flood-opacity="0" result="BackgroundImageFix"/>
<feColorMatrix in="SourceAlpha" type="matrix" values="0 0 0 0 0 0 0 0 0 0 0 0 0 0 0 0 0 0 127 0" result="hardAlpha"/>
<feOffset dx="2" dy="4"/>
<feGaussianBlur stdDeviation="1"/>
<feColorMatrix type="matrix" values="0 0 0 0 0.129412 0 0 0 0 0.133333 0 0 0 0 0.25098 0 0 0 0.08 0"/>
<feBlend mode="normal" in2="BackgroundImageFix" result="effect1_dropShadow_8643_37103"/>
<feBlend mode="normal" in="SourceGraphic" in2="effect1_dropShadow_8643_37103" result="shape"/>
</filter>
<linearGradient id="paint0_linear_8643_37103" x1="33.0552" y1="19.7596" x2="37.3335" y2="38.6667" gradientUnits="userSpaceOnUse">
<stop stop-color="#D1F1FF"/>
<stop offset="1" stop-color="#34BFFA"/>
</linearGradient>
<linearGradient id="paint1_linear_8643_37103" x1="43.4669" y1="21.7334" x2="40.752" y2="45.1944" gradientUnits="userSpaceOnUse">
<stop stop-color="#E5F7FF"/>
<stop offset="0.999" stop-color="#32BEFA"/>
</linearGradient>
<linearGradient id="paint2_linear_8643_37103" x1="36.2665" y1="5.73321" x2="1.87137" y2="60.1363" gradientUnits="userSpaceOnUse">
<stop offset="0.0012901" stop-color="#D1F1FF"/>
<stop offset="0.290086" stop-color="#85DAFF"/>
<stop offset="0.637502" stop-color="#32BEFA"/>
<stop offset="1" stop-color="#325E9F"/>
</linearGradient>
<linearGradient id="paint3_linear_8643_37103" x1="20.8" y1="18.6667" x2="2.59996" y2="43.4177" gradientUnits="userSpaceOnUse">
<stop offset="0.0012901" stop-color="#D1F1FF"/>
<stop offset="0.3278" stop-color="#85DAFF"/>
<stop offset="0.7656" stop-color="#32BEFA"/>
<stop offset="1" stop-color="#325E9F"/>
</linearGradient>
<linearGradient id="paint4_linear_8643_37103" x1="64.0002" y1="40.5333" x2="38.6674" y2="40.6472" gradientUnits="userSpaceOnUse">
<stop offset="0.00173748" stop-color="#25255C"/>
<stop offset="1" stop-color="#9D95DD"/>
</linearGradient>
<linearGradient id="paint5_linear_8643_37103" x1="-8.26667" y1="40" x2="34.6248" y2="17.1481" gradientUnits="userSpaceOnUse">
<stop stop-color="#110E55"/>
<stop offset="0.56154" stop-color="#5B599D"/>
<stop offset="0.901732" stop-color="#13133C"/>
</linearGradient>
<linearGradient id="paint6_linear_8643_37103" x1="32.7406" y1="47.9999" x2="32.7413" y2="43.7333" gradientUnits="userSpaceOnUse">
<stop stop-color="#2C2643" stop-opacity="0"/>
<stop offset="1" stop-color="#2C2643" stop-opacity="0.24"/>
</linearGradient>
<linearGradient id="paint7_linear_8643_37103" x1="32" y1="43.7333" x2="32" y2="45.8666" gradientUnits="userSpaceOnUse">
<stop stop-color="#212240" stop-opacity="0.08"/>
<stop offset="1" stop-color="#212240" stop-opacity="0"/>
</linearGradient>
<linearGradient id="paint8_linear_8643_37103" x1="42.4001" y1="37.8667" x2="9.34232" y2="18.9428" gradientUnits="userSpaceOnUse">
<stop offset="0.0943126" stop-color="#9D95DD"/>
<stop offset="0.403367" stop-color="#5A589C"/>
<stop offset="0.774744" stop-color="#D2BFFF"/>
<stop offset="1" stop-color="#D2BFFF"/>
</linearGradient>
<linearGradient id="paint9_linear_8643_37103" x1="51.3791" y1="38.2985" x2="51.3794" y2="36.8" gradientUnits="userSpaceOnUse">
<stop stop-color="#2C2643" stop-opacity="0"/>
<stop offset="1" stop-color="#2C2643" stop-opacity="0.4"/>
</linearGradient>
<radialGradient id="paint10_radial_8643_37103" cx="0" cy="0" r="1" gradientUnits="userSpaceOnUse" gradientTransform="translate(38.5333 36.8) rotate(164.055) scale(1.94136 3.88273)">
<stop stop-color="white" stop-opacity="0.96"/>
<stop offset="1" stop-color="white" stop-opacity="0.64"/>
</radialGradient>
<linearGradient id="paint11_linear_8643_37103" x1="38.5333" y1="38" x2="37.6969" y2="36.8678" gradientUnits="userSpaceOnUse">
<stop stop-color="#212240" stop-opacity="0.08"/>
<stop offset="1" stop-color="#212240" stop-opacity="0"/>
</linearGradient>
<linearGradient id="paint12_linear_8643_37103" x1="35.8666" y1="38.5334" x2="40.232" y2="41.7319" gradientUnits="userSpaceOnUse">
<stop stop-color="white"/>
<stop offset="1" stop-color="white" stop-opacity="0"/>
</linearGradient>
<linearGradient id="paint13_linear_8643_37103" x1="66.6667" y1="38.8141" x2="62.0699" y2="41.9852" gradientUnits="userSpaceOnUse">
<stop stop-color="white"/>
<stop offset="1" stop-color="white" stop-opacity="0"/>
</linearGradient>
<linearGradient id="paint14_linear_8643_37103" x1="7.46958" y1="35.207" x2="7.46958" y2="50.3569" gradientUnits="userSpaceOnUse">
<stop offset="0.000404094" stop-color="#212240"/>
<stop offset="0.2945" stop-color="#212240" stop-opacity="0"/>
</linearGradient>
<linearGradient id="paint15_linear_8643_37103" x1="29.3363" y1="35.207" x2="29.3363" y2="50.3569" gradientUnits="userSpaceOnUse">
<stop offset="0.000404094" stop-color="#212240"/>
<stop offset="0.2945" stop-color="#212240" stop-opacity="0"/>
</linearGradient>
<linearGradient id="paint16_linear_8643_37103" x1="9.46667" y1="46.1333" x2="12.0012" y2="49.1392" gradientUnits="userSpaceOnUse">
<stop stop-color="#1A1A38"/>
<stop offset="1" stop-color="#434366"/>
</linearGradient>
<linearGradient id="paint17_linear_8643_37103" x1="31.3334" y1="46.1333" x2="33.8678" y2="49.1392" gradientUnits="userSpaceOnUse">
<stop stop-color="#1A1A38"/>
<stop offset="1" stop-color="#434366"/>
</linearGradient>
<linearGradient id="paint18_linear_8643_37103" x1="50.8" y1="49.0667" x2="51.3857" y2="50.6127" gradientUnits="userSpaceOnUse">
<stop stop-color="#1A1A38"/>
<stop offset="1" stop-color="#434366"/>
</linearGradient>
<linearGradient id="paint19_linear_8643_37103" x1="29.0669" y1="45.4479" x2="30.015" y2="36.6602" gradientUnits="userSpaceOnUse">
<stop offset="0.000421262" stop-color="#E6E8F5"/>
<stop offset="1" stop-color="#7EB5F0"/>
</linearGradient>
<linearGradient id="paint20_linear_8643_37103" x1="7.20024" y1="45.4479" x2="8.14826" y2="36.6602" gradientUnits="userSpaceOnUse">
<stop offset="0.000421262" stop-color="#E6E8F5"/>
<stop offset="1" stop-color="#7EB5F0"/>
</linearGradient>
<linearGradient id="paint21_linear_8643_37103" x1="28.8675" y1="51.3462" x2="28.1735" y2="42.5497" gradientUnits="userSpaceOnUse">
<stop offset="0.000421262" stop-color="#E6E8F5"/>
<stop offset="1" stop-color="#7EB5F0"/>
</linearGradient>
<linearGradient id="paint22_linear_8643_37103" x1="7.00081" y1="51.3462" x2="6.30685" y2="42.5497" gradientUnits="userSpaceOnUse">
<stop offset="0.000421262" stop-color="#E6E8F5"/>
<stop offset="1" stop-color="#7EB5F0"/>
</linearGradient>
<radialGradient id="paint23_radial_8643_37103" cx="0" cy="0" r="1" gradientUnits="userSpaceOnUse" gradientTransform="translate(31.9969 50.1383) rotate(90) scale(2.13333 32)">
<stop stop-color="#212240" stop-opacity="0.23"/>
<stop offset="1" stop-color="#23266A" stop-opacity="0"/>
</radialGradient>
<radialGradient id="paint24_radial_8643_37103" cx="0" cy="0" r="1" gradientUnits="userSpaceOnUse" gradientTransform="translate(31.9969 50.0045) rotate(90) scale(1.46667 32)">
<stop stop-color="#212240" stop-opacity="0.51"/>
<stop offset="1" stop-color="#23266A" stop-opacity="0"/>
</radialGradient>
<radialGradient id="paint25_radial_8643_37103" cx="0" cy="0" r="1" gradientUnits="userSpaceOnUse" gradientTransform="translate(51.601 50.1919) rotate(90) scale(0.8 9.2)">
<stop stop-color="#212240"/>
<stop offset="1" stop-color="#23266A" stop-opacity="0"/>
</radialGradient>
<radialGradient id="paint26_radial_8643_37103" cx="0" cy="0" r="1" gradientUnits="userSpaceOnUse" gradientTransform="translate(9.99895 50.1389) rotate(90) scale(1.06667 9.99978)">
<stop stop-color="#212240"/>
<stop offset="1" stop-color="#23266A" stop-opacity="0"/>
</radialGradient>
<radialGradient id="paint27_radial_8643_37103" cx="0" cy="0" r="1" gradientUnits="userSpaceOnUse" gradientTransform="translate(30.799 50.1909) rotate(90) scale(0.8 11.4664)">
<stop stop-color="#212240"/>
<stop offset="1" stop-color="#23266A" stop-opacity="0"/>
</radialGradient>
<radialGradient id="paint28_radial_8643_37103" cx="0" cy="0" r="1" gradientUnits="userSpaceOnUse" gradientTransform="translate(48.7176 50.1918) rotate(90) scale(0.533333 8.92101)">
<stop stop-color="#212240"/>
<stop offset="1" stop-color="#23266A" stop-opacity="0"/>
</radialGradient>
<radialGradient id="paint29_radial_8643_37103" cx="0" cy="0" r="1" gradientUnits="userSpaceOnUse" gradientTransform="translate(10.7166 50.1918) rotate(90) scale(0.533333 8.92101)">
<stop stop-color="#212240"/>
<stop offset="1" stop-color="#23266A" stop-opacity="0"/>
</radialGradient>
<linearGradient id="paint30_linear_8643_37103" x1="1.02759" y1="8.44444" x2="21.1759" y2="33.9336" gradientUnits="userSpaceOnUse">
<stop stop-color="#212240"/>
<stop offset="1" stop-color="#515984"/>
</linearGradient>
<clipPath id="clip0_8643_37103">
<rect width="64" height="64" fill="white"/>
</clipPath>
<clipPath id="clip1_8643_37103">
<rect width="64" height="64" fill="white"/>
</clipPath>
</defs>
</svg>
