<svg width="64" height="64" viewBox="0 0 64 64" fill="none" xmlns="http://www.w3.org/2000/svg">
<g clip-path="url(#clip0_5556_184929)">
<path d="M51.7332 33.0667C45.2408 25.323 39.0399 23.4667 35.1709 23.4667H17.4666L27.1999 33.0667H51.7332Z" fill="url(#paint0_linear_5556_184929)"/>
<path d="M44.2681 26.3766C46.6255 27.8472 49.1564 29.9933 51.7333 33.0667H27.2C30.3704 28.5092 36.0674 27.6831 40.5734 27.0297C41.9519 26.8298 43.219 26.646 44.2681 26.3766Z" fill="url(#paint1_linear_5556_184929)"/>
<path d="M17.7072 23.4677C10.5334 23.4677 4.80005 31.9999 4.80005 31.9999L27.2 33.0666C26.0437 29.9821 22.1985 23.4677 17.7072 23.4677Z" fill="url(#paint2_linear_5556_184929)"/>
<path d="M20.9247 32.7679C19.4801 29.8782 16.6937 28.5203 14.2019 27.306C13.0986 26.7684 12.0531 26.2588 11.2073 25.657C7.50251 28.0937 4.98694 31.7262 4.81006 31.9854C4.89052 31.9943 4.97099 32.0032 5.05147 32.012L20.9247 32.7679Z" fill="url(#paint3_linear_5556_184929)"/>
<mask id="mask0_5556_184929" style="mask-type:alpha" maskUnits="userSpaceOnUse" x="0" y="32" width="64" height="16">
<path d="M27.2002 33.0664H51.7334L64 36.7998V45.8662C64 47.0444 63.0444 48 61.8662 48H4.7998C3.92029 47.9996 2.11301 45.8537 0.984375 44.3926C0.334728 43.5515 0.0725466 42.481 0.213867 41.4277C0.826174 36.8642 1.4668 33.0664 1.4668 33.0664L4.7998 32L27.2002 33.0664Z" fill="white"/>
</mask>
<g mask="url(#mask0_5556_184929)">
<path d="M63.9999 48V36.8L51.7333 33.0667H27.2V48H63.9999Z" fill="url(#paint4_linear_5556_184929)"/>
<path d="M38.4 45.8667C38.4 47.0449 37.4453 48 36.2671 48C29.0368 48 5.84356 48 4.73424 48C3.41918 48 0 43.0667 0 43.0667C0.657537 37.8111 1.44658 33.0667 1.44658 33.0667L4.73425 32L27.2 33.0667L38.4 36.8V45.8667Z" fill="url(#paint5_linear_5556_184929)"/>
<path d="M64 47.9999H0V45.8661H41.1201C42.2401 45.8661 44.1335 45.8663 45.4668 44.7997C46.5742 43.9138 47.4935 43.7333 48.1602 43.7333H55.0137C56.3734 43.7333 57.1607 43.9604 58 44.7997C59.0667 45.8663 60.8005 45.8661 62.1338 45.8661H64V47.9999Z" fill="url(#paint6_linear_5556_184929)"/>
<path d="M64 47.9999H0V45.8661H41.1201C42.2401 45.8661 44.1335 45.8663 45.4668 44.7997C46.5742 43.9138 47.4935 43.7333 48.1602 43.7333H55.0137C56.3734 43.7333 57.1607 43.9604 58 44.7997C59.0667 45.8663 60.8005 45.8661 62.1338 45.8661H64V47.9999Z" fill="url(#paint7_linear_5556_184929)"/>
<path d="M38.3999 36.8L27.1999 33.0667L4.79989 32L1.46655 33.0667C3.46655 34.1333 7.91978 35.7333 15.4666 35.7333H27.7332C32.5332 35.7333 32.5332 37.8667 37.4613 37.8667C38.5318 37.8667 38.3999 37.8667 38.3999 37.8667C38.3999 36.8 38.3999 37.8667 38.3999 36.8Z" fill="url(#paint8_linear_5556_184929)"/>
</g>
<path opacity="0.8" d="M43.4668 36.8H58.9335L56.8001 37.8667H45.6001L43.4668 36.8Z" fill="url(#paint9_linear_5556_184929)"/>
<path d="M64.0001 36.8H56.8V37.8667H64.0001V36.8Z" fill="white"/>
<path d="M45.5999 37.8667H38.3999C38.3999 37.8667 38.3999 37.3867 38.3999 36.8H45.5999V37.8667Z" fill="white"/>
<path d="M38.3999 37.8667H37.3333C36.7442 37.8667 36.2666 37.3892 36.2666 36.8H38.3999V37.8667Z" fill="url(#paint10_radial_5556_184929)"/>
<rect x="36.2666" y="36.8" width="2.13333" height="1.06667" fill="url(#paint11_linear_5556_184929)"/>
<path opacity="0.24" d="M42.6666 37.8667L40.0266 45.8667H38.3999V37.8667H42.6666Z" fill="url(#paint12_linear_5556_184929)"/>
<path opacity="0.24" d="M59.7332 37.8667L62.6132 45.8667H63.9998V37.8667H59.7332Z" fill="url(#paint13_linear_5556_184929)"/>
<path opacity="0.64" d="M11.4666 45.8666C11.4666 45.1999 11.4666 44.1127 11.4666 43.6093C11.4666 39.8469 9.67932 36.7999 7.43819 36.7999C5.19705 36.7999 3.46656 39.8469 3.46656 43.6093C3.46656 44.1127 3.46654 45.3333 3.46657 45.8666" fill="url(#paint14_linear_5556_184929)"/>
<path opacity="0.64" d="M33.3333 45.8666C33.3333 45.3333 33.3333 44.1127 33.3333 43.6093C33.3333 39.8469 31.546 36.7999 29.3049 36.7999C27.0637 36.7999 25.3333 39.8469 25.3333 43.6093C25.3333 44.1127 25.3333 45.3333 25.3333 45.8666" fill="url(#paint15_linear_5556_184929)"/>
<path d="M10.8195 48C10.4451 48 10.0264 47.683 10.1333 47.3333C10.4542 46.392 10.6667 45.3333 10.6667 44.1333C10.6667 40.6638 9.46667 37.6 7.42311 37.6C5.33333 37.6 4 40.6907 4 44.1333C4 47.6028 5.55416 50.1333 7.37727 50.1333H10.6667C11.7364 50.1333 12.6915 49.4254 13.3333 48H10.8195Z" fill="url(#paint16_linear_5556_184929)"/>
<path d="M32.6862 48C32.3118 48 31.8931 47.683 32 47.3333C32.3209 46.392 32.5334 45.3333 32.5334 44.1333C32.5334 40.6638 31.3334 37.6 29.2898 37.6C27.2 37.6 25.8667 40.6907 25.8667 44.1333C25.8667 47.6028 27.4209 50.1333 29.244 50.1333H32.5334C33.6031 50.1333 34.5582 49.4254 35.2 48H32.6862Z" fill="url(#paint17_linear_5556_184929)"/>
<path d="M48 48C48.6667 49.4667 49.2905 50.1333 50.4 50.1333H54.0753C55.2 50.1333 56.1635 49.4597 56.8 48H48Z" fill="url(#paint18_linear_5556_184929)"/>
<path d="M26.9333 43.8666C26.9333 46.4317 27.9561 48.5333 29.2 48.5333C30.4439 48.5333 31.4667 46.4317 31.4667 43.8666C31.4667 41.3015 30.4439 39.2 29.2 39.2C27.9561 39.2 26.9333 41.3015 26.9333 43.8666Z" fill="url(#paint19_linear_5556_184929)"/>
<path d="M5.06665 43.8666C5.06665 46.4317 6.08942 48.5333 7.33332 48.5333C8.57722 48.5333 9.59998 46.4317 9.59998 43.8666C9.59998 41.3015 8.57722 39.2 7.33332 39.2C6.08942 39.2 5.06665 41.3015 5.06665 43.8666Z" fill="url(#paint20_linear_5556_184929)"/>
<path d="M27.7581 43.8975C27.7581 41.6105 28.5553 39.6944 29.6 39.2927C29.4626 39.2309 29.3251 39.2 29.1876 39.2C27.9505 39.2 26.9333 41.3015 26.9333 43.8666C26.9333 46.4317 27.9505 48.5333 29.1876 48.5333C29.3251 48.5333 29.4626 48.5024 29.6 48.4406C28.5553 48.1006 27.7581 46.1845 27.7581 43.8975Z" fill="url(#paint21_linear_5556_184929)"/>
<path d="M5.89139 43.8975C5.89139 41.6105 6.68864 39.6944 7.73332 39.2927C7.59586 39.2309 7.4584 39.2 7.32095 39.2C6.08383 39.2 5.06665 41.3015 5.06665 43.8666C5.06665 46.4317 6.08383 48.5333 7.32095 48.5333C7.4584 48.5333 7.59586 48.5024 7.73332 48.4406C6.68864 48.1006 5.89139 46.1845 5.89139 43.8975Z" fill="url(#paint22_linear_5556_184929)"/>
<path opacity="0.75" d="M32 52.2667C49.6731 52.2667 64 51.3115 64 50.1333C64 48.9551 49.6731 48 32 48C14.3269 48 0 48.9551 0 50.1333C0 51.3115 14.3269 52.2667 32 52.2667Z" fill="url(#paint23_radial_5556_184929)"/>
<path opacity="0.75" d="M32 51.4667C49.6731 51.4667 64 50.81 64 50C64 49.19 49.6731 48.5333 32 48.5333C14.3269 48.5333 0 49.19 0 50C0 50.81 14.3269 51.4667 32 51.4667Z" fill="url(#paint24_radial_5556_184929)"/>
<path opacity="0.8" d="M51.5999 50.9867C56.6809 50.9867 60.7999 50.6285 60.7999 50.1867C60.7999 49.7449 56.6809 49.3867 51.5999 49.3867C46.5189 49.3867 42.3999 49.7449 42.3999 50.1867C42.3999 50.6285 46.5189 50.9867 51.5999 50.9867Z" fill="url(#paint25_radial_5556_184929)"/>
<path opacity="0.8" d="M10 51.2C15.5228 51.2 20 50.7224 20 50.1333C20 49.5442 15.5228 49.0667 10 49.0667C4.47715 49.0667 0 49.5442 0 50.1333C0 50.7224 4.47715 51.2 10 51.2Z" fill="url(#paint26_radial_5556_184929)"/>
<path opacity="0.8" d="M30.7999 50.9867C37.1328 50.9867 42.2666 50.6285 42.2666 50.1867C42.2666 49.7449 37.1328 49.3867 30.7999 49.3867C24.4671 49.3867 19.3333 49.7449 19.3333 50.1867C19.3333 50.6285 24.4671 50.9867 30.7999 50.9867Z" fill="url(#paint27_radial_5556_184929)"/>
<path opacity="0.64" d="M48.72 50.7201C53.6537 50.7201 57.6533 50.4813 57.6533 50.1868C57.6533 49.8922 53.6537 49.6534 48.72 49.6534C43.7862 49.6534 39.7866 49.8922 39.7866 50.1868C39.7866 50.4813 43.7862 50.7201 48.72 50.7201Z" fill="url(#paint28_radial_5556_184929)"/>
<path opacity="0.64" d="M10.72 50.7201C15.6537 50.7201 19.6533 50.4813 19.6533 50.1868C19.6533 49.8922 15.6537 49.6534 10.72 49.6534C5.78621 49.6534 1.78662 49.8922 1.78662 50.1868C1.78662 50.4813 5.78621 50.7201 10.72 50.7201Z" fill="url(#paint29_radial_5556_184929)"/>
<g opacity="0.88" filter="url(#filter0_d_5556_184929)">
<path fill-rule="evenodd" clip-rule="evenodd" d="M16 40C24.8366 40 32 32.8366 32 24C32 15.1634 24.8366 8 16 8C7.16344 8 0 15.1634 0 24C0 32.8366 7.16344 40 16 40Z" fill="#F8F8FE"/>
</g>
<path opacity="0.88" fill-rule="evenodd" clip-rule="evenodd" d="M16 40C24.8366 40 32 32.8366 32 24C32 15.1634 24.8366 8 16 8C7.16344 8 0 15.1634 0 24C0 32.8366 7.16344 40 16 40Z" fill="#F8F8FE"/>
<path d="M23 27C23 22.5817 19.4182 18.9999 14.9999 19L9.00001 19.0001L9 20C8.99996 24.9706 13.0294 29.0001 18 29.0001H20.9999V30.9999H22.9999L23 27Z" fill="url(#paint30_linear_5556_184929)"/>
</g>
<defs>
<filter id="filter0_d_5556_184929" x="0" y="8" width="36" height="38" filterUnits="userSpaceOnUse" color-interpolation-filters="sRGB">
<feFlood flood-opacity="0" result="BackgroundImageFix"/>
<feColorMatrix in="SourceAlpha" type="matrix" values="0 0 0 0 0 0 0 0 0 0 0 0 0 0 0 0 0 0 127 0" result="hardAlpha"/>
<feOffset dx="2" dy="4"/>
<feGaussianBlur stdDeviation="1"/>
<feColorMatrix type="matrix" values="0 0 0 0 0.129412 0 0 0 0 0.133333 0 0 0 0 0.25098 0 0 0 0.08 0"/>
<feBlend mode="normal" in2="BackgroundImageFix" result="effect1_dropShadow_5556_184929"/>
<feBlend mode="normal" in="SourceGraphic" in2="effect1_dropShadow_5556_184929" result="shape"/>
</filter>
<linearGradient id="paint0_linear_5556_184929" x1="33.0549" y1="19.7596" x2="37.3332" y2="38.6667" gradientUnits="userSpaceOnUse">
<stop stop-color="#D1F1FF"/>
<stop offset="1" stop-color="#34BFFA"/>
</linearGradient>
<linearGradient id="paint1_linear_5556_184929" x1="43.4666" y1="21.7334" x2="40.7517" y2="45.1944" gradientUnits="userSpaceOnUse">
<stop stop-color="#E5F7FF"/>
<stop offset="0.999" stop-color="#32BEFA"/>
</linearGradient>
<linearGradient id="paint2_linear_5556_184929" x1="36.2667" y1="5.73321" x2="1.87161" y2="60.1363" gradientUnits="userSpaceOnUse">
<stop offset="0.0012901" stop-color="#D1F1FF"/>
<stop offset="0.290086" stop-color="#85DAFF"/>
<stop offset="0.637502" stop-color="#32BEFA"/>
<stop offset="1" stop-color="#325E9F"/>
</linearGradient>
<linearGradient id="paint3_linear_5556_184929" x1="20.8" y1="18.6667" x2="2.59996" y2="43.4177" gradientUnits="userSpaceOnUse">
<stop offset="0.0012901" stop-color="#D1F1FF"/>
<stop offset="0.3278" stop-color="#85DAFF"/>
<stop offset="0.7656" stop-color="#32BEFA"/>
<stop offset="1" stop-color="#325E9F"/>
</linearGradient>
<linearGradient id="paint4_linear_5556_184929" x1="64" y1="40.5333" x2="38.6671" y2="40.6472" gradientUnits="userSpaceOnUse">
<stop offset="0.00173748" stop-color="#25255C"/>
<stop offset="1" stop-color="#9D95DD"/>
</linearGradient>
<linearGradient id="paint5_linear_5556_184929" x1="-8.26667" y1="40" x2="34.6248" y2="17.1481" gradientUnits="userSpaceOnUse">
<stop stop-color="#110E55"/>
<stop offset="0.56154" stop-color="#5B599D"/>
<stop offset="0.901732" stop-color="#13133C"/>
</linearGradient>
<linearGradient id="paint6_linear_5556_184929" x1="32.7406" y1="47.9999" x2="32.7413" y2="43.7333" gradientUnits="userSpaceOnUse">
<stop stop-color="#2C2643" stop-opacity="0"/>
<stop offset="1" stop-color="#2C2643" stop-opacity="0.24"/>
</linearGradient>
<linearGradient id="paint7_linear_5556_184929" x1="32" y1="43.7333" x2="32" y2="45.8666" gradientUnits="userSpaceOnUse">
<stop stop-color="#212240" stop-opacity="0.08"/>
<stop offset="1" stop-color="#212240" stop-opacity="0"/>
</linearGradient>
<linearGradient id="paint8_linear_5556_184929" x1="42.3999" y1="37.8667" x2="9.34207" y2="18.9428" gradientUnits="userSpaceOnUse">
<stop offset="0.0943126" stop-color="#9D95DD"/>
<stop offset="0.403367" stop-color="#5A589C"/>
<stop offset="0.774744" stop-color="#D2BFFF"/>
<stop offset="1" stop-color="#D2BFFF"/>
</linearGradient>
<linearGradient id="paint9_linear_5556_184929" x1="51.3791" y1="38.2985" x2="51.3794" y2="36.8" gradientUnits="userSpaceOnUse">
<stop stop-color="#2C2643" stop-opacity="0"/>
<stop offset="1" stop-color="#2C2643" stop-opacity="0.4"/>
</linearGradient>
<radialGradient id="paint10_radial_5556_184929" cx="0" cy="0" r="1" gradientUnits="userSpaceOnUse" gradientTransform="translate(38.5333 36.8) rotate(164.055) scale(1.94136 3.88273)">
<stop stop-color="white" stop-opacity="0.96"/>
<stop offset="1" stop-color="white" stop-opacity="0.64"/>
</radialGradient>
<linearGradient id="paint11_linear_5556_184929" x1="38.5333" y1="38" x2="37.6969" y2="36.8678" gradientUnits="userSpaceOnUse">
<stop stop-color="#212240" stop-opacity="0.08"/>
<stop offset="1" stop-color="#212240" stop-opacity="0"/>
</linearGradient>
<linearGradient id="paint12_linear_5556_184929" x1="35.8666" y1="38.5334" x2="40.232" y2="41.7319" gradientUnits="userSpaceOnUse">
<stop stop-color="white"/>
<stop offset="1" stop-color="white" stop-opacity="0"/>
</linearGradient>
<linearGradient id="paint13_linear_5556_184929" x1="66.6665" y1="38.8141" x2="62.0697" y2="41.9852" gradientUnits="userSpaceOnUse">
<stop stop-color="white"/>
<stop offset="1" stop-color="white" stop-opacity="0"/>
</linearGradient>
<linearGradient id="paint14_linear_5556_184929" x1="7.46933" y1="35.207" x2="7.46933" y2="50.3569" gradientUnits="userSpaceOnUse">
<stop offset="0.000404094" stop-color="#212240"/>
<stop offset="0.2945" stop-color="#212240" stop-opacity="0"/>
</linearGradient>
<linearGradient id="paint15_linear_5556_184929" x1="29.336" y1="35.207" x2="29.336" y2="50.3569" gradientUnits="userSpaceOnUse">
<stop offset="0.000404094" stop-color="#212240"/>
<stop offset="0.2945" stop-color="#212240" stop-opacity="0"/>
</linearGradient>
<linearGradient id="paint16_linear_5556_184929" x1="9.46667" y1="46.1333" x2="12.0012" y2="49.1392" gradientUnits="userSpaceOnUse">
<stop stop-color="#1A1A38"/>
<stop offset="1" stop-color="#434366"/>
</linearGradient>
<linearGradient id="paint17_linear_5556_184929" x1="31.3334" y1="46.1333" x2="33.8678" y2="49.1392" gradientUnits="userSpaceOnUse">
<stop stop-color="#1A1A38"/>
<stop offset="1" stop-color="#434366"/>
</linearGradient>
<linearGradient id="paint18_linear_5556_184929" x1="50.8" y1="49.0667" x2="51.3857" y2="50.6127" gradientUnits="userSpaceOnUse">
<stop stop-color="#1A1A38"/>
<stop offset="1" stop-color="#434366"/>
</linearGradient>
<linearGradient id="paint19_linear_5556_184929" x1="29.0667" y1="45.4479" x2="30.0147" y2="36.6602" gradientUnits="userSpaceOnUse">
<stop offset="0.000421262" stop-color="#E6E8F5"/>
<stop offset="1" stop-color="#7EB5F0"/>
</linearGradient>
<linearGradient id="paint20_linear_5556_184929" x1="7.2" y1="45.4479" x2="8.14802" y2="36.6602" gradientUnits="userSpaceOnUse">
<stop offset="0.000421262" stop-color="#E6E8F5"/>
<stop offset="1" stop-color="#7EB5F0"/>
</linearGradient>
<linearGradient id="paint21_linear_5556_184929" x1="28.8673" y1="51.3462" x2="28.1733" y2="42.5497" gradientUnits="userSpaceOnUse">
<stop offset="0.000421262" stop-color="#E6E8F5"/>
<stop offset="1" stop-color="#7EB5F0"/>
</linearGradient>
<linearGradient id="paint22_linear_5556_184929" x1="7.00056" y1="51.3462" x2="6.30661" y2="42.5497" gradientUnits="userSpaceOnUse">
<stop offset="0.000421262" stop-color="#E6E8F5"/>
<stop offset="1" stop-color="#7EB5F0"/>
</linearGradient>
<radialGradient id="paint23_radial_5556_184929" cx="0" cy="0" r="1" gradientUnits="userSpaceOnUse" gradientTransform="translate(31.9969 50.1383) rotate(90) scale(2.13333 32)">
<stop stop-color="#212240" stop-opacity="0.23"/>
<stop offset="1" stop-color="#23266A" stop-opacity="0"/>
</radialGradient>
<radialGradient id="paint24_radial_5556_184929" cx="0" cy="0" r="1" gradientUnits="userSpaceOnUse" gradientTransform="translate(31.9969 50.0045) rotate(90) scale(1.46667 32)">
<stop stop-color="#212240" stop-opacity="0.51"/>
<stop offset="1" stop-color="#23266A" stop-opacity="0"/>
</radialGradient>
<radialGradient id="paint25_radial_5556_184929" cx="0" cy="0" r="1" gradientUnits="userSpaceOnUse" gradientTransform="translate(51.601 50.1919) rotate(90) scale(0.8 9.2)">
<stop stop-color="#212240"/>
<stop offset="1" stop-color="#23266A" stop-opacity="0"/>
</radialGradient>
<radialGradient id="paint26_radial_5556_184929" cx="0" cy="0" r="1" gradientUnits="userSpaceOnUse" gradientTransform="translate(9.99895 50.1389) rotate(90) scale(1.06667 9.99978)">
<stop stop-color="#212240"/>
<stop offset="1" stop-color="#23266A" stop-opacity="0"/>
</radialGradient>
<radialGradient id="paint27_radial_5556_184929" cx="0" cy="0" r="1" gradientUnits="userSpaceOnUse" gradientTransform="translate(30.7987 50.1909) rotate(90) scale(0.8 11.4664)">
<stop stop-color="#212240"/>
<stop offset="1" stop-color="#23266A" stop-opacity="0"/>
</radialGradient>
<radialGradient id="paint28_radial_5556_184929" cx="0" cy="0" r="1" gradientUnits="userSpaceOnUse" gradientTransform="translate(48.7176 50.1918) rotate(90) scale(0.533333 8.92101)">
<stop stop-color="#212240"/>
<stop offset="1" stop-color="#23266A" stop-opacity="0"/>
</radialGradient>
<radialGradient id="paint29_radial_5556_184929" cx="0" cy="0" r="1" gradientUnits="userSpaceOnUse" gradientTransform="translate(10.7166 50.1918) rotate(90) scale(0.533333 8.92101)">
<stop stop-color="#212240"/>
<stop offset="1" stop-color="#23266A" stop-opacity="0"/>
</radialGradient>
<linearGradient id="paint30_linear_5556_184929" x1="22.3906" y1="31.9998" x2="11.9074" y2="17.1322" gradientUnits="userSpaceOnUse">
<stop stop-color="#2A7B5C"/>
<stop offset="1" stop-color="#30A375"/>
</linearGradient>
<clipPath id="clip0_5556_184929">
<rect width="64" height="64" fill="white"/>
</clipPath>
</defs>
</svg>
