<svg fill="none" xmlns="http://www.w3.org/2000/svg" viewBox="0 0 288 160"><g clip-path="url(#prefix__clip0_6380_66724)"><path d="M157.007 34.6216L153.831 34.2729L155.848 16C157.601 16.1885 158.864 17.7717 158.666 19.5245L156.998 34.631L157.007 34.6216Z" fill="#2EAEE4"/><path d="M155.556 34.4708L157.148 20.4575C157.328 18.8554 156.866 17.2534 155.848 16L153.831 34.2729L155.556 34.4614V34.4708Z" fill="#63D0FD"/><path d="M195.512 126.367C207.358 126.367 216.961 116.765 216.961 104.919C216.961 93.0729 207.358 83.47 195.512 83.47C183.666 83.47 174.063 93.0729 174.063 104.919C174.063 116.765 183.666 126.367 195.512 126.367Z" fill="#FEB54E"/><path d="M195.512 83.47C183.666 83.47 174.063 93.0729 174.063 104.919C174.063 116.765 183.666 126.367 195.512 126.367C195.88 126.367 196.228 126.33 196.586 126.311L197.689 114.729C197.689 114.729 189.839 98.2937 196.558 83.5359C196.21 83.5171 195.861 83.4794 195.512 83.4794V83.47Z" fill="#EA8C2E"/><path d="M187.896 112.681C187.896 108.44 190.648 105.425 193.399 105.425C196.151 105.425 198.583 105.133 201.023 102.984C203.775 100.562 208.76 101.316 212.69 106.235C217.374 112.097 219.994 105.415 223.782 111.409C225.818 114.613 220.606 121.671 215.96 121.671C209.514 121.671 193.154 117.836 193.154 117.836C193.154 117.836 187.896 115.838 187.896 112.681Z" fill="#0C936B"/><path d="M222.896 116.949C215.63 121.331 211.917 110.107 204.953 110.107C200.43 110.107 197.461 108.1 197.8 104.82C196.396 105.282 194.945 105.385 193.399 105.385C190.648 105.385 187.896 108.411 187.896 112.642C187.896 115.789 193.154 117.797 193.154 117.797C193.154 117.797 209.514 121.632 215.96 121.632C218.552 121.632 221.304 119.446 222.896 116.949Z" fill="#017251"/><path d="M114.929 78.2061C105.298 78.2061 105.986 88.2613 105.986 90.5042C105.986 92.7471 92.5761 99.9658 99.2764 113.715H125.626C125.626 113.715 133.598 97.9302 124.721 92.0497C124.721 92.0497 127.303 78.2061 114.92 78.2061H114.929Z" fill="#36B78B"/><path d="M124.783 92.0497C124.783 92.0497 127.366 78.2061 114.983 78.2061C113.239 78.2061 111.845 78.5453 110.714 79.0919C109.017 82.7578 109.479 88.1765 113.22 92.7754C113.22 92.7754 106.605 103.839 116.019 113.715H125.688C125.688 113.715 133.661 97.9302 124.783 92.0497Z" fill="#0C936B"/><path d="M120.128 105.495L109.395 56.0384C109.395 56.0384 154.328 35.7488 138.731 105.495H120.119H120.128Z" fill="#EA8C2E"/><path d="M132.548 55.8853L133.66 105.455H138.759C145.798 73.9508 140.493 60.8139 132.558 55.8853H132.548Z" fill="#D06204"/><path d="M168.519 106.45L178.668 40.0398L198.704 60.075L187.442 111.086H168.519V106.45Z" fill="#7145D6"/><path d="M198.748 60.075L178.713 40.0398L187.487 66.0026L198.748 60.075Z" fill="#A697ED"/><path d="M187.446 66.0526L172.745 111.136H187.446L198.708 60.125L187.446 66.0526Z" fill="#8A6EE4"/><path d="M180.701 109.566L186.722 95.4676C184.47 93.5451 181.954 92.0656 179.362 90.9253L173.284 109.566H180.701Z" fill="#7145D6"/><path d="M138.299 29.5029L165.364 32.5657L157.448 105.459H136L138.299 29.5029Z" fill="#63D0FD"/><path d="M165.359 32.5757L157.443 105.469H163.06L172.502 34.6112L165.359 32.5757Z" fill="#2EAEE4"/><path d="M153.226 105.438L151.68 83.5933C151.68 83.5933 172.319 80.5023 185.041 91.3303L179.019 105.428H153.226V105.438Z" fill="#FCABDA"/><path d="M167.899 83.9462C159.163 82.4761 151.68 83.5881 151.68 83.5881L153.226 105.433H163.799L167.899 83.9462Z" fill="#FDD0EB"/><path d="M78.8036 138.086H204.132C214.215 138.086 218.022 127.776 218.022 123.526C218.022 123.526 196.291 100.768 143.414 100.768C90.5363 100.768 78.8036 138.086 78.8036 138.086Z" fill="#36B78B"/><path d="M170.171 127.543C159.306 136.958 143.511 119.806 114.797 138.466H204.126C214.209 138.466 218.016 128.156 218.016 123.906C199.527 117.818 181.857 117.432 170.171 127.543Z" fill="#0C936B"/><path d="M144.82 115.736C134.833 103.757 124.175 101.298 118.224 101.298H90.9877L106.457 115.736H144.82Z" fill="url(#prefix__paint0_linear_6380_66724)"/><path d="M106.457 115.736C111.715 108.961 120.348 107.735 127.184 106.803C129.487 106.489 131.591 106.202 133.304 105.737C136.781 107.778 140.436 110.692 144.024 114.803C144.286 115.107 144.55 115.418 144.816 115.736L106.457 115.736Z" fill="url(#prefix__paint1_linear_6380_66724)"/><path d="M91.031 101.305C90.9852 101.305 91.0768 101.305 91.031 101.305C85.8259 101.249 77.9502 101.305 70.3621 111.612V115.736H106.457C104.406 110.169 98.6787 101.387 91.031 101.305Z" fill="url(#prefix__paint2_linear_6380_66724)"/><path d="M96.8194 115.736C94.2962 111.101 91.7302 110.163 88.5943 109.016C86.0104 108.071 83.0397 106.984 79.3872 103.572C79.3465 103.578 79.3058 103.585 79.2652 103.593C76.3753 105.091 73.3504 107.556 70.3698 111.602C70.3647 111.611 70.3621 111.616 70.3621 111.616V115.736H96.8194Z" fill="url(#prefix__paint3_linear_6380_66724)"/><mask id="prefix__mask0_6380_66724" style="mask-type:alpha" maskUnits="userSpaceOnUse" x="63" y="111" width="100" height="29"><path fill-rule="evenodd" clip-rule="evenodd" d="M119.869 139.249H159.465C161.287 139.249 162.765 137.772 162.765 135.949V121.924L144.82 115.736H106.457H81.7062C79.4195 115.736 79.1781 115.493 77.5902 113.891C77.4594 113.759 77.3195 113.618 77.1686 113.467C75.5185 111.817 75.3123 111.611 70.3621 111.611C67.2683 114.705 63.7619 115.736 63.7619 115.736V130.417C63.7619 132.236 64.5088 133.979 65.8642 135.192C67.817 136.941 70.5209 139.249 71.1871 139.249H119.864C119.865 139.249 119.867 139.249 119.869 139.249Z" fill="white"/></mask><g mask="url(#prefix__mask0_6380_66724)"><path d="M162.765 139.249V121.924L144.82 115.736H106.457V139.249H162.765Z" fill="url(#prefix__paint4_linear_6380_66724)"/><path d="M123.164 121.924L106.457 115.736H70.3621V111.611C69.1415 112.848 66.8134 114.705 63.7619 115.736V132.213C63.7619 134.855 65.3301 137.261 67.796 138.208C69.246 138.765 70.6359 139.249 71.0854 139.249H119.864C121.686 139.249 123.164 137.772 123.164 135.949V121.924Z" fill="url(#prefix__paint5_linear_6380_66724)"/><path fill-rule="evenodd" clip-rule="evenodd" d="M151.481 134.299C152.796 135.949 154.933 135.949 156.577 135.949H162.765V139.249H63.7619V135.949H130.671C132.052 135.949 134.386 135.949 136.03 134.299C137.395 132.928 138.529 132.649 139.351 132.649H147.799C149.476 132.649 150.447 133 151.481 134.299Z" fill="url(#prefix__paint6_linear_6380_66724)"/><path d="M123.164 121.924L106.457 115.736H84.8V111.611H63.7619C63.7619 111.611 63.7619 115.53 63.7619 115.736C65.6182 119.378 71.8059 119.449 84.8 119.449H103.455C114.501 119.449 114.707 123.574 122.132 123.574H123.164V121.924Z" fill="url(#prefix__paint7_linear_6380_66724)"/><path d="M101.672 123.986H100.475V126.42H101.672V123.986Z" fill="#1A1A38"/></g><path opacity="0.8" d="M134.301 123.574L134.301 121.924H151.627V123.574C151.008 129.761 148.242 130.586 145.027 130.586H140.902C137.687 130.544 134.714 129.761 134.301 123.574Z" fill="url(#prefix__paint8_linear_6380_66724)"/><path d="M142.964 126.049L141.727 124.811L142.964 123.574L144.202 124.811L142.964 126.049Z" fill="url(#prefix__paint9_linear_6380_66724)"/><path d="M162.765 121.924H151.627V123.574H162.765V121.924Z" fill="white"/><path d="M134.301 123.574H123.164C123.164 123.574 123.164 122.831 123.164 121.924H134.301V123.574Z" fill="white"/><path d="M123.164 123.574H121.514C120.602 123.574 119.864 122.835 119.864 121.924H123.164V123.574Z" fill="url(#prefix__paint10_radial_6380_66724)"/><rect x="119.864" y="121.924" width="3.30009" height="1.65005" fill="url(#prefix__paint11_linear_6380_66724)"/><path opacity="0.24" d="M129.764 123.574L125.68 135.949H123.164V123.574H129.764Z" fill="url(#prefix__paint12_linear_6380_66724)"/><path opacity="0.24" d="M156.165 123.574L160.62 135.949H162.765V123.574H156.165Z" fill="url(#prefix__paint13_linear_6380_66724)"/><path opacity="0.64" d="M81.4999 135.949C81.4999 134.918 81.4999 133.236 81.4999 132.457C81.4999 126.637 78.7352 121.924 75.2684 121.924C71.8015 121.924 69.1246 126.637 69.1246 132.457C69.1246 133.236 69.1246 135.124 69.1246 135.949" fill="url(#prefix__paint14_linear_6380_66724)"/><path opacity="0.64" d="M115.326 135.949C115.326 135.124 115.326 133.236 115.326 132.457C115.326 126.637 112.561 121.924 109.094 121.924C105.627 121.924 102.951 126.637 102.951 132.457C102.951 133.236 102.951 135.124 102.951 135.949" fill="url(#prefix__paint15_linear_6380_66724)"/><path d="M80.4988 139.249C79.9196 139.249 79.2719 138.759 79.4374 138.218C79.9338 136.762 80.2624 135.124 80.2624 133.268C80.2624 127.901 78.4061 123.161 75.2449 123.161C72.0122 123.161 69.9496 127.942 69.9496 133.268C69.9496 138.635 72.3538 142.549 75.174 142.549H80.2624C81.9172 142.549 83.3947 141.454 84.3875 139.249H80.4988Z" fill="url(#prefix__paint16_linear_6380_66724)"/><path d="M114.325 139.249C113.746 139.249 113.098 138.759 113.263 138.218C113.76 136.762 114.088 135.124 114.088 133.268C114.088 127.901 112.232 123.161 109.071 123.161C105.838 123.161 103.776 127.942 103.776 133.268C103.776 138.635 106.18 142.549 109 142.549H114.088C115.743 142.549 117.221 141.454 118.213 139.249H114.325Z" fill="url(#prefix__paint17_linear_6380_66724)"/><path d="M138.014 139.249C139.045 141.518 140.01 142.549 141.727 142.549H147.412C149.152 142.549 150.642 141.507 151.627 139.249H138.014Z" fill="url(#prefix__paint18_linear_6380_66724)"/><path d="M105.426 132.855C105.426 136.823 107.008 140.074 108.932 140.074C110.856 140.074 112.438 136.823 112.438 132.855C112.438 128.887 110.856 125.636 108.932 125.636C107.008 125.636 105.426 128.887 105.426 132.855Z" fill="url(#prefix__paint19_linear_6380_66724)"/><path d="M71.5997 132.855C71.5997 136.823 73.1818 140.074 75.106 140.074C77.0302 140.074 78.6124 136.823 78.6124 132.855C78.6124 128.887 77.0302 125.636 75.106 125.636C73.1818 125.636 71.5997 128.887 71.5997 132.855Z" fill="url(#prefix__paint20_linear_6380_66724)"/><path d="M106.701 132.903C106.701 129.365 107.935 126.401 109.551 125.78C109.338 125.684 109.125 125.636 108.913 125.636C106.999 125.636 105.426 128.887 105.426 132.855C105.426 136.823 106.999 140.074 108.913 140.074C109.125 140.074 109.338 140.026 109.551 139.931C107.935 139.405 106.701 136.441 106.701 132.903Z" fill="url(#prefix__paint21_linear_6380_66724)"/><path d="M72.8755 132.903C72.8755 129.365 74.1087 126.401 75.7248 125.78C75.5121 125.684 75.2995 125.636 75.0869 125.636C73.1732 125.636 71.5997 128.887 71.5997 132.855C71.5997 136.823 73.1732 140.074 75.0869 140.074C75.2995 140.074 75.5121 140.026 75.7248 139.931C74.1087 139.405 72.8755 136.441 72.8755 132.903Z" fill="url(#prefix__paint22_linear_6380_66724)"/><path opacity="0.75" d="M113.263 145.849C140.602 145.849 162.765 144.372 162.765 142.549C162.765 140.727 140.602 139.249 113.263 139.249C85.9245 139.249 63.7619 140.727 63.7619 142.549C63.7619 144.372 85.9245 145.849 113.263 145.849Z" fill="url(#prefix__paint23_radial_6380_66724)"/><path opacity="0.75" d="M113.263 144.612C140.602 144.612 162.765 143.596 162.765 142.343C162.765 141.09 140.602 140.074 113.263 140.074C85.9245 140.074 63.7619 141.09 63.7619 142.343C63.7619 143.596 85.9245 144.612 113.263 144.612Z" fill="url(#prefix__paint24_radial_6380_66724)"/><path opacity="0.8" d="M143.583 143.87C151.443 143.87 157.815 143.316 157.815 142.632C157.815 141.949 151.443 141.395 143.583 141.395C135.723 141.395 129.351 141.949 129.351 142.632C129.351 143.316 135.723 143.87 143.583 143.87Z" fill="url(#prefix__paint25_radial_6380_66724)"/><path opacity="0.8" d="M79.2311 144.2C87.7745 144.2 94.7003 143.461 94.7003 142.549C94.7003 141.638 87.7745 140.899 79.2311 140.899C70.6877 140.899 63.7619 141.638 63.7619 142.549C63.7619 143.461 70.6877 144.2 79.2311 144.2Z" fill="url(#prefix__paint26_radial_6380_66724)"/><path opacity="0.8" d="M111.407 143.87C121.203 143.87 129.145 143.316 129.145 142.632C129.145 141.949 121.203 141.395 111.407 141.395C101.611 141.395 93.669 141.949 93.669 142.632C93.669 143.316 101.611 143.87 111.407 143.87Z" fill="url(#prefix__paint27_radial_6380_66724)"/><path opacity="0.64" d="M139.128 143.457C146.76 143.457 152.947 143.088 152.947 142.632C152.947 142.176 146.76 141.807 139.128 141.807C131.496 141.807 125.309 142.176 125.309 142.632C125.309 143.088 131.496 143.457 139.128 143.457Z" fill="url(#prefix__paint28_radial_6380_66724)"/><path opacity="0.64" d="M80.345 143.457C87.9771 143.457 94.1641 143.088 94.1641 142.632C94.1641 142.176 87.9771 141.807 80.345 141.807C72.7129 141.807 66.5258 142.176 66.5258 142.632C66.5258 143.088 72.7129 143.457 80.345 143.457Z" fill="url(#prefix__paint29_radial_6380_66724)"/></g><defs><linearGradient id="prefix__paint0_linear_6380_66724" x1="118.884" y1="99.648" x2="113.08" y2="116.953" gradientUnits="userSpaceOnUse"><stop stop-color="#A2A2DB"/><stop offset="0.999" stop-color="#42428F"/></linearGradient><linearGradient id="prefix__paint1_linear_6380_66724" x1="111.576" y1="70.9861" x2="128.517" y2="122.674" gradientUnits="userSpaceOnUse"><stop offset="0.446867" stop-color="#A2A2DB"/><stop offset="0.950125" stop-color="#2E2E75"/></linearGradient><linearGradient id="prefix__paint2_linear_6380_66724" x1="96.0515" y1="73.3525" x2="86.675" y2="121.481" gradientUnits="userSpaceOnUse"><stop offset="0.000904403" stop-color="#7171B3"/><stop offset="0.9968" stop-color="#131345"/></linearGradient><linearGradient id="prefix__paint3_linear_6380_66724" x1="73.8926" y1="61.2961" x2="85.5777" y2="124.177" gradientUnits="userSpaceOnUse"><stop stop-color="#A2A2DB"/><stop offset="0.961146" stop-color="#1F1F5C"/></linearGradient><linearGradient id="prefix__paint4_linear_6380_66724" x1="180.293" y1="90.8356" x2="131.865" y2="131.215" gradientUnits="userSpaceOnUse"><stop offset="0.491924" stop-color="#2C2643"/><stop offset="1" stop-color="#62628A"/></linearGradient><linearGradient id="prefix__paint5_linear_6380_66724" x1="77.5952" y1="152.656" x2="121.413" y2="116.743" gradientUnits="userSpaceOnUse"><stop stop-color="#62628A"/><stop offset="0.526378" stop-color="#323252"/><stop offset="1" stop-color="#1A1A38"/></linearGradient><linearGradient id="prefix__paint6_linear_6380_66724" x1="113.263" y1="132.649" x2="113.263" y2="139.249" gradientUnits="userSpaceOnUse"><stop stop-color="#212240" stop-opacity="0.24"/><stop offset="1" stop-color="#212240" stop-opacity="0"/></linearGradient><linearGradient id="prefix__paint7_linear_6380_66724" x1="129.588" y1="123.574" x2="58.8334" y2="91.8081" gradientUnits="userSpaceOnUse"><stop offset="0.0943126" stop-color="#5C5C84"/><stop offset="0.296662" stop-color="#3A3A5B"/><stop offset="0.774744" stop-color="#A192C5"/><stop offset="1" stop-color="#F3EDFF"/></linearGradient><linearGradient id="prefix__paint8_linear_6380_66724" x1="143.165" y1="136.361" x2="143.183" y2="121.924" gradientUnits="userSpaceOnUse"><stop stop-color="#2C2643" stop-opacity="0"/><stop offset="1" stop-color="#2C2643" stop-opacity="0.8"/></linearGradient><linearGradient id="prefix__paint9_linear_6380_66724" x1="141.734" y1="124.83" x2="144.209" y2="124.83" gradientUnits="userSpaceOnUse"><stop offset="0.000423337" stop-color="#FCC565"/><stop offset="0.9995" stop-color="#FFDA84"/></linearGradient><radialGradient id="prefix__paint10_radial_6380_66724" cx="0" cy="0" r="1" gradientUnits="userSpaceOnUse" gradientTransform="translate(123.37 121.924) rotate(164.055) scale(3.00313 6.00626)"><stop stop-color="white" stop-opacity="0.96"/><stop offset="1" stop-color="white" stop-opacity="0.64"/></radialGradient><linearGradient id="prefix__paint11_linear_6380_66724" x1="123.37" y1="123.78" x2="122.076" y2="122.028" gradientUnits="userSpaceOnUse"><stop stop-color="#212240" stop-opacity="0.08"/><stop offset="1" stop-color="#212240" stop-opacity="0"/></linearGradient><linearGradient id="prefix__paint12_linear_6380_66724" x1="119.245" y1="124.605" x2="125.998" y2="129.553" gradientUnits="userSpaceOnUse"><stop stop-color="white"/><stop offset="1" stop-color="white" stop-opacity="0"/></linearGradient><linearGradient id="prefix__paint13_linear_6380_66724" x1="166.89" y1="125.039" x2="159.779" y2="129.945" gradientUnits="userSpaceOnUse"><stop stop-color="white"/><stop offset="1" stop-color="white" stop-opacity="0"/></linearGradient><linearGradient id="prefix__paint14_linear_6380_66724" x1="75.3166" y1="119.46" x2="75.3166" y2="142.895" gradientUnits="userSpaceOnUse"><stop offset="0.000404094" stop-color="#212240"/><stop offset="0.2945" stop-color="#212240" stop-opacity="0"/></linearGradient><linearGradient id="prefix__paint15_linear_6380_66724" x1="109.143" y1="119.46" x2="109.143" y2="142.895" gradientUnits="userSpaceOnUse"><stop offset="0.000404094" stop-color="#212240"/><stop offset="0.2945" stop-color="#212240" stop-opacity="0"/></linearGradient><linearGradient id="prefix__paint16_linear_6380_66724" x1="78.4061" y1="136.362" x2="82.3267" y2="141.011" gradientUnits="userSpaceOnUse"><stop stop-color="#1A1A38"/><stop offset="1" stop-color="#434366"/></linearGradient><linearGradient id="prefix__paint17_linear_6380_66724" x1="112.232" y1="136.362" x2="116.153" y2="141.011" gradientUnits="userSpaceOnUse"><stop stop-color="#1A1A38"/><stop offset="1" stop-color="#434366"/></linearGradient><linearGradient id="prefix__paint18_linear_6380_66724" x1="142.345" y1="140.899" x2="143.251" y2="143.291" gradientUnits="userSpaceOnUse"><stop stop-color="#1A1A38"/><stop offset="1" stop-color="#434366"/></linearGradient><linearGradient id="prefix__paint19_linear_6380_66724" x1="108.726" y1="135.301" x2="110.192" y2="121.707" gradientUnits="userSpaceOnUse"><stop offset="0.000421262" stop-color="#E6E8F5"/><stop offset="1" stop-color="#7EB5F0"/></linearGradient><linearGradient id="prefix__paint20_linear_6380_66724" x1="74.8998" y1="135.301" x2="76.3663" y2="121.707" gradientUnits="userSpaceOnUse"><stop offset="0.000421262" stop-color="#E6E8F5"/><stop offset="1" stop-color="#7EB5F0"/></linearGradient><linearGradient id="prefix__paint21_linear_6380_66724" x1="108.417" y1="144.426" x2="107.344" y2="130.818" gradientUnits="userSpaceOnUse"><stop offset="0.000421262" stop-color="#E6E8F5"/><stop offset="1" stop-color="#7EB5F0"/></linearGradient><linearGradient id="prefix__paint22_linear_6380_66724" x1="74.5913" y1="144.426" x2="73.5178" y2="130.818" gradientUnits="userSpaceOnUse"><stop offset="0.000421262" stop-color="#E6E8F5"/><stop offset="1" stop-color="#7EB5F0"/></linearGradient><radialGradient id="prefix__paint23_radial_6380_66724" cx="0" cy="0" r="1" gradientUnits="userSpaceOnUse" gradientTransform="translate(113.259 142.557) rotate(90) scale(3.30009 49.5014)"><stop stop-color="#212240" stop-opacity="0.23"/><stop offset="1" stop-color="#23266A" stop-opacity="0"/></radialGradient><radialGradient id="prefix__paint24_radial_6380_66724" cx="0" cy="0" r="1" gradientUnits="userSpaceOnUse" gradientTransform="translate(113.259 142.35) rotate(90) scale(2.26881 49.5014)"><stop stop-color="#212240" stop-opacity="0.51"/><stop offset="1" stop-color="#23266A" stop-opacity="0"/></radialGradient><radialGradient id="prefix__paint25_radial_6380_66724" cx="0" cy="0" r="1" gradientUnits="userSpaceOnUse" gradientTransform="translate(143.585 142.64) rotate(90) scale(1.23754 14.2317)"><stop stop-color="#212240"/><stop offset="1" stop-color="#23266A" stop-opacity="0"/></radialGradient><radialGradient id="prefix__paint26_radial_6380_66724" cx="0" cy="0" r="1" gradientUnits="userSpaceOnUse" gradientTransform="translate(79.2295 142.558) rotate(90) scale(1.65005 15.4689)"><stop stop-color="#212240"/><stop offset="1" stop-color="#23266A" stop-opacity="0"/></radialGradient><radialGradient id="prefix__paint27_radial_6380_66724" cx="0" cy="0" r="1" gradientUnits="userSpaceOnUse" gradientTransform="translate(111.405 142.639) rotate(90) scale(1.23754 17.7376)"><stop stop-color="#212240"/><stop offset="1" stop-color="#23266A" stop-opacity="0"/></radialGradient><radialGradient id="prefix__paint28_radial_6380_66724" cx="0" cy="0" r="1" gradientUnits="userSpaceOnUse" gradientTransform="translate(139.124 142.64) rotate(90) scale(0.825023 13.8001)"><stop stop-color="#212240"/><stop offset="1" stop-color="#23266A" stop-opacity="0"/></radialGradient><radialGradient id="prefix__paint29_radial_6380_66724" cx="0" cy="0" r="1" gradientUnits="userSpaceOnUse" gradientTransform="translate(80.3398 142.64) rotate(90) scale(0.825023 13.8001)"><stop stop-color="#212240"/><stop offset="1" stop-color="#23266A" stop-opacity="0"/></radialGradient><clipPath id="prefix__clip0_6380_66724"><rect width="288" height="160" fill="white"/></clipPath></defs></svg>