<svg width="64" height="64" viewBox="0 0 64 64" fill="none" xmlns="http://www.w3.org/2000/svg">
<g clip-path="url(#clip0_34684_11255)">
<path d="M6.65497 16.645L7.97997 45.32L35.5449 59.655L61.7799 45.32L60.4549 16.645L32.8949 2.31006L6.65997 16.645H6.65497Z" fill="#8A6EE4"/>
<path d="M55.7299 18.9352L59.5649 44.1652L60.4599 16.6452L32.9999 4.61523L55.7299 18.9352Z" fill="#7145D6"/>
<path d="M6.80997 20.0048L8.87497 17.7998C32.7849 16.8749 27.7949 44.1648 59.5649 44.1648C60.3399 44.1648 61.0599 44.1848 61.7349 44.2148L61.7849 45.3198L35.5499 59.6548L7.98497 45.3198L6.81497 20.0048H6.80997Z" fill="#7145D6"/>
<path d="M35.6498 61.9649L63.9998 46.4749L62.5698 15.49L32.7848 0L4.43482 15.49L5.86482 46.47L35.6448 61.9599L35.6498 61.9649ZM59.5648 44.165L35.4398 57.3499L10.0948 44.165L8.87482 17.8L32.9998 4.615L58.3448 17.8L59.5648 44.165Z" fill="#F8F8FB"/>
<path d="M31.2149 64.0001L1.42994 48.5101L5.86993 46.4751L35.6499 61.9651L31.2149 64.0001Z" fill="#9EA1BE"/>
<path d="M6.29425e-05 17.5252L1.43006 48.5102L5.87006 46.4752L4.43506 15.4902L6.29425e-05 17.5252Z" fill="#C0C2D8"/>
<path d="M32.7849 0L28.3499 2.035L-5.34058e-05 17.525L4.43494 15.49L32.7849 0Z" fill="#DBDCE8"/>
</g>
<defs>
<clipPath id="clip0_34684_11255">
<rect width="64" height="64" fill="white"/>
</clipPath>
</defs>
</svg>
