<svg fill="none" xmlns="http://www.w3.org/2000/svg" viewBox="0 0 288 160"><g clip-path="url(#prefix__clip0_15906_60140)"><path d="M43.7671 122.302V52.6694C43.7671 41.54 52.1781 32.2032 63.2484 31.0508L206.187 16.1198C219.02 14.7803 230.189 24.846 230.189 37.7383V122.292C230.189 134.298 220.458 144.029 208.452 144.029H65.5038C53.4979 144.029 43.7671 134.298 43.7671 122.292V122.302Z" fill="#F5F1FC"/><path d="M154.164 98.3963H99.9846L104.683 67.8546L110.651 29.0791H164.83L154.164 98.4061V98.3963Z" fill="#EA8C2E"/><path d="M216.814 98.3964H154.165L164.831 29.0693H227.48L216.814 98.3964Z" fill="#FEB54E"/><path d="M177.772 38.7509L171.567 44.1088L167.007 38.7509L173.212 33.3931L177.772 38.7509Z" fill="#FFF1DB"/><path d="M123.741 98.3958L127.208 75.8613L135.028 85.3065L133.018 98.3958H123.741Z" fill="#FEB54E"/><path d="M69.916 144.036H24L29.1609 110.52L35.7104 67.9727H81.6264L69.9258 144.036H69.916Z" fill="#EA8C2E"/><path d="M138.662 144.036H69.9158L81.6164 67.9727H150.362L138.662 144.036Z" fill="#FEB54E"/><path d="M95.8287 78.7083L89.2988 84.342L84.5122 78.7083L91.0421 73.0747L95.8287 78.7083Z" fill="#FFF1DB"/><path d="M41.8464 144.036L45.4413 120.694L53.547 130.484L51.459 144.046H41.8464V144.036Z" fill="#FEB54E"/><path d="M160.438 144.036H106.948L114.266 96.4756H167.756L160.438 144.036Z" fill="#2EAEE4"/><path d="M227.637 144.036H160.438L167.756 96.4756H234.955L227.637 144.036Z" fill="#B0E5FE"/><path d="M227.638 144.036L234.955 96.4756H198.278C198.091 97.0862 197.933 97.6969 197.825 98.3272C197.825 98.3075 197.815 98.2977 197.805 98.2878C197.775 98.4552 197.766 98.6325 197.736 98.7999C197.706 99.0068 197.677 99.2038 197.657 99.4106C197.618 99.8045 197.598 100.189 197.588 100.592C197.588 100.721 197.569 100.849 197.569 100.977C197.569 110.698 206.659 118.567 217.887 118.567C218.517 118.567 219.148 118.537 219.768 118.488C219.946 118.478 220.123 118.449 220.3 118.439C220.753 118.39 221.206 118.33 221.659 118.262C221.837 118.232 222.014 118.202 222.191 118.173C222.723 118.074 223.245 117.956 223.767 117.818C223.826 117.799 223.895 117.789 223.964 117.769C224.535 117.612 225.097 117.434 225.648 117.237C225.806 117.178 225.963 117.119 226.121 117.05C226.367 116.961 226.613 116.873 226.85 116.765C226.269 120.153 225.924 123.541 226.731 126.879C227.726 131.006 225.835 138.531 224.092 144.046H227.628L227.638 144.036Z" fill="#63D0FD"/><path d="M190.438 110.836L191.866 101.578C192.043 100.405 191.137 99.3418 189.946 99.3418H172.267C171.311 99.3418 170.494 100.041 170.346 100.987L168.918 110.245C168.741 111.417 169.647 112.48 170.839 112.48H188.517C189.473 112.48 190.29 111.781 190.438 110.836Z" fill="#E7F5FE"/><mask id="prefix__mask0_15906_60140" style="mask-type:luminance" maskUnits="userSpaceOnUse" x="48" y="91" width="114" height="50"><path d="M85.93 91.2656L102.555 112.579L102.604 112.608H147.979L161.629 120.616V136.63C161.629 138.708 159.522 140.402 156.931 140.402H97.6011V140.274H57.1611C56.0679 140.274 53.4284 138.403 51.3798 136.817C49.6562 135.478 48.7107 133.38 48.7107 131.193V94.7916C48.7107 92.8415 50.2865 91.2656 52.2366 91.2656H85.93Z" fill="white"/></mask><g mask="url(#prefix__mask0_15906_60140)"><path d="M161.383 140.284V120.567L153.868 112.589H101.816V140.284H161.383Z" fill="url(#prefix__paint0_linear_15906_60140)"/><path d="M102.063 91.2661H48.7009V131.204C48.7009 133.39 49.6464 135.478 51.37 136.828C53.4087 138.413 56.0483 140.285 57.1514 140.285H112.552C114.62 140.285 116.304 138.6 116.304 136.532V120.567L102.053 112.363V91.2661H102.063Z" fill="url(#prefix__paint1_linear_15906_60140)"/><path opacity="0.24" d="M161.383 140.285H48.7004V136.532H121.091C123.06 136.532 126.399 136.532 128.743 134.651C130.693 133.095 132.309 132.77 133.481 132.77H145.546C147.939 132.77 149.328 133.174 150.805 134.651C152.686 136.532 155.739 136.532 158.083 136.532H161.373V140.285H161.383Z" fill="url(#prefix__paint2_linear_15906_60140)"/><path d="M102.555 112.579H55.0037C53.2407 112.579 51.596 111.702 50.6111 110.235L48.7102 107.398V111.368C50.1974 117.819 56.6583 117.819 59.879 117.819H99.8363C105.303 117.819 106.928 122.438 114.905 122.438H116.314V120.576L102.564 112.569L102.555 112.579Z" fill="url(#prefix__paint3_linear_15906_60140)"/></g><path d="M126.39 91.2656H81.2227L102.319 112.608H148.087L144.512 106.354C139.204 97.1849 137.066 91.2656 126.4 91.2656H126.39Z" fill="url(#prefix__paint4_linear_15906_60140)"/><path d="M102.496 112.608C102.496 112.608 101.068 109.939 97.355 100.11C93.632 90.2807 81.4587 91.2853 77.2532 91.2853L83.6452 110.215C84.1278 111.653 85.4771 112.618 86.984 112.618H103.56H102.506L102.496 112.608Z" fill="url(#prefix__paint5_linear_15906_60140)"/><path d="M125.227 120.566H152.46L148.707 122.447H128.99L125.237 120.566H125.227Z" fill="url(#prefix__paint6_linear_15906_60140)"/><path d="M161.383 120.566H148.708V122.447H161.383V120.566Z" fill="white"/><path d="M128.99 122.438H116.314V120.557H128.99V122.438Z" fill="white"/><path d="M116.315 122.437H114.227C113.301 122.437 112.552 121.689 112.552 120.773V120.566H116.305V122.447L116.315 122.437Z" fill="url(#prefix__paint7_radial_15906_60140)"/><path d="M116.305 120.566H112.552V122.447H116.305V120.566Z" fill="url(#prefix__paint8_linear_15906_60140)"/><path opacity="0.24" d="M123.819 122.438L119.171 136.522H116.314V122.438H123.829H123.819Z" fill="url(#prefix__paint9_linear_15906_60140)"/><path opacity="0.24" d="M153.868 122.438L158.941 136.522H161.383V122.438H153.868Z" fill="url(#prefix__paint10_linear_15906_60140)"/><path opacity="0.64" d="M68.8912 136.522V132.543C68.8912 125.914 65.7395 120.557 61.7999 120.557C57.8603 120.557 54.8071 125.924 54.8071 132.543V136.522" fill="url(#prefix__paint11_linear_15906_60140)"/><path opacity="0.64" d="M107.391 136.522V132.543C107.391 125.914 104.24 120.557 100.3 120.557C96.3603 120.557 93.3071 125.924 93.3071 132.543V136.522" fill="url(#prefix__paint12_linear_15906_60140)"/><path d="M67.7587 140.284C67.0988 140.284 66.3601 139.722 66.5473 139.112C67.1087 137.457 67.4829 135.586 67.4829 133.478C67.4829 127.372 65.3752 121.975 61.7705 121.975C58.1658 121.975 55.7429 127.421 55.7429 133.478C55.7429 139.535 58.4809 144.046 61.6917 144.046H67.4829C69.3641 144.046 71.0482 142.795 72.1809 140.294H67.7587V140.284Z" fill="#212240"/><path d="M106.249 140.284C105.589 140.284 104.85 139.722 105.037 139.112C105.599 137.457 105.973 135.586 105.973 133.478C105.973 127.372 103.865 121.975 100.261 121.975C96.656 121.975 94.2332 127.421 94.2332 133.478C94.2332 139.535 96.9712 144.046 100.182 144.046H105.973C107.854 144.046 109.538 142.795 110.671 140.294H106.249V140.284Z" fill="#212240"/><path d="M133.215 140.284C134.387 142.865 135.49 144.037 137.441 144.037H143.911C145.891 144.037 147.585 142.855 148.708 140.284H133.215Z" fill="#212240"/><path d="M96.5967 133.005C96.5967 137.004 98.1824 140.284 100.123 140.284C102.063 140.284 103.639 137.004 103.639 133.005C103.639 129.007 102.053 125.727 100.123 125.727C98.1922 125.727 96.5967 129.007 96.5967 133.005Z" fill="url(#prefix__paint13_linear_15906_60140)"/><path d="M58.0972 133.005C58.0972 137.004 59.6829 140.284 61.6231 140.284C63.5634 140.284 65.1392 137.004 65.1392 133.005C65.1392 129.007 63.5535 125.727 61.6231 125.727C59.6927 125.727 58.0972 129.007 58.0972 133.005Z" fill="url(#prefix__paint14_linear_15906_60140)"/><path d="M59.4071 133.055C59.4071 129.489 60.6678 126.505 62.3224 125.875C62.1057 125.776 61.889 125.727 61.6724 125.727C59.7026 125.727 58.0972 129.007 58.0972 133.005C58.0972 137.004 59.7026 140.284 61.6724 140.284C61.889 140.284 62.1057 140.235 62.3224 140.136C60.6678 139.604 59.4071 136.62 59.4071 133.055Z" fill="url(#prefix__paint15_linear_15906_60140)"/><path d="M97.8968 133.055C97.8968 129.489 99.1575 126.505 100.812 125.875C100.595 125.776 100.379 125.727 100.162 125.727C98.2317 125.727 96.5869 129.007 96.5869 133.005C96.5869 137.004 98.1923 140.284 100.162 140.284C100.379 140.284 100.595 140.235 100.812 140.136C99.1575 139.604 97.8968 136.62 97.8968 133.055Z" fill="url(#prefix__paint16_linear_15906_60140)"/><path d="M227.933 88.5474L231.331 98.8692C231.331 105.832 227.933 113.062 229.637 120.094C231.341 127.126 224.634 144.037 224.634 144.037H236.797L237.89 133.065C238.235 129.588 238.087 126.092 237.437 122.635C237.014 120.379 236.807 118.104 236.807 115.829V92.4772L227.953 88.5376L227.933 88.5474Z" fill="#A64707"/><path d="M231.548 144.036H236.807L237.9 133.064C238.245 129.588 238.097 126.091 237.447 122.634C237.024 120.379 236.817 118.104 236.817 115.829V102.877L234.926 101.695L231.114 102.335C230.671 105.852 229.735 109.407 229.351 112.963C231.085 112.49 232.779 111.781 232.779 111.781C232.779 111.781 233.389 112.5 234.542 113.258C233.242 118.242 235.852 122.388 235.399 125.313C234.965 128.11 232.316 140.559 231.567 144.036H231.557H231.548Z" fill="#6F2A0B"/><path d="M220.803 111.781C232.03 111.781 241.121 103.911 241.121 94.1904C241.121 84.4694 232.03 76.6001 220.803 76.6001C209.575 76.6001 200.484 84.4694 200.484 94.1904C200.484 103.911 209.575 111.781 220.803 111.781Z" fill="#0C936B"/><path d="M224.516 94.1908C233.695 94.1908 241.121 86.7548 241.121 77.5854C241.121 68.416 233.685 60.98 224.516 60.98C215.346 60.98 207.91 68.416 207.91 77.5854C207.91 86.7548 215.346 94.1908 224.516 94.1908Z" fill="#0C936B"/><path d="M242.323 111.003C254.279 111.003 263.981 101.952 263.981 90.7733C263.981 79.5947 254.279 70.5435 242.323 70.5435C230.366 70.5435 220.665 79.6045 220.665 90.7733C220.665 101.942 230.366 111.003 242.323 111.003Z" fill="#0C936B"/><path d="M258.199 77.0139C258.199 77.0139 258.189 77.0139 258.189 77.0041C257.086 75.8912 255.845 74.8964 254.496 74.0396C251.965 78.0875 247.474 80.796 242.332 80.796C245.553 82.0566 248.961 82.0566 252.014 81.052C256.308 79.6239 260.819 82.6771 260.888 87.2077V87.4736C260.888 97.9332 251.886 106.413 240.776 106.413C230.258 106.413 221.64 98.7999 220.743 89.1085C220.694 89.6601 220.665 90.2214 220.665 90.7828C220.665 94.7717 221.896 98.4946 224.033 101.627C225.786 104.197 223.728 107.664 220.655 107.191C220.625 107.191 220.596 107.181 220.566 107.181C211.052 105.665 203.055 99.0855 200.711 91.5314C200.563 92.4079 200.484 93.3042 200.484 94.2103C200.484 103.921 209.575 111.801 220.803 111.801C225.067 111.801 229.027 110.658 232.296 108.718C235.3 110.185 238.708 111.023 242.332 111.023C254.289 111.023 263.99 101.961 263.99 90.7927C263.99 85.4742 261.794 80.6482 258.209 77.0336H258.199V77.0139ZM230.701 107.841C230.701 107.841 230.78 107.891 230.819 107.91C230.78 107.891 230.74 107.861 230.701 107.841Z" fill="#017251"/><path d="M242.323 80.7865C250.241 80.7865 256.653 74.3748 256.653 66.4563C256.653 58.5377 250.241 52.126 242.323 52.126C234.404 52.126 227.992 58.5377 227.992 66.4563C227.992 74.3748 234.414 80.7865 242.323 80.7865Z" fill="#0C936B"/><path d="M249.532 55.8684C249.532 67.1947 241.17 76.374 230.858 76.374C220.546 76.374 212.184 67.1947 212.184 55.8684C212.184 44.5421 220.546 35.3628 230.868 35.3628C241.19 35.3628 249.542 44.5421 249.542 55.8684H249.532Z" fill="#0C936B"/><path d="M249.453 54.0364C248.704 44.739 242.302 37.2242 234.039 35.6582C246.616 41.9714 242.332 52.1356 242.332 52.1356C244.922 52.1356 247.355 52.825 249.453 54.0364Z" fill="#017251"/><path d="M215.237 91.364C211.564 88.8919 208.934 84.972 208.146 80.4316C206.797 81.3673 205.595 82.431 204.551 83.6227C206.895 87.5623 210.776 90.3791 215.237 91.364Z" fill="#017251"/><path d="M212.687 60.606C213.002 62.044 213.436 63.4229 214.007 64.7229C216.873 62.3789 220.527 60.9705 224.516 60.9705C220.596 59.3355 216.41 59.306 212.687 60.5962V60.606Z" fill="#017251"/></g><defs><linearGradient id="prefix__paint0_linear_15906_60140" x1="119.623" y1="145.228" x2="162.328" y2="78.1568" gradientUnits="userSpaceOnUse"><stop stop-color="#8C5CFF"/><stop offset="1" stop-color="#7145D6"/></linearGradient><linearGradient id="prefix__paint1_linear_15906_60140" x1="82.9656" y1="54.7953" x2="82.3549" y2="133.243" gradientUnits="userSpaceOnUse"><stop stop-color="#8C5CFF"/><stop offset="1" stop-color="#7145D6"/></linearGradient><linearGradient id="prefix__paint2_linear_15906_60140" x1="105.047" y1="133.952" x2="105.047" y2="144.618" gradientUnits="userSpaceOnUse"><stop stop-color="#212240"/><stop offset="0.92" stop-color="#212240" stop-opacity="0"/></linearGradient><linearGradient id="prefix__paint3_linear_15906_60140" x1="148.658" y1="98.5934" x2="-42.4126" y2="145.731" gradientUnits="userSpaceOnUse"><stop stop-color="#7145D6"/><stop offset="1" stop-color="#B696FF" stop-opacity="0"/></linearGradient><linearGradient id="prefix__paint4_linear_15906_60140" x1="120.668" y1="63.6688" x2="111.479" y2="122.123" gradientUnits="userSpaceOnUse"><stop stop-color="white"/><stop offset="1" stop-color="#8FCEFF"/></linearGradient><linearGradient id="prefix__paint5_linear_15906_60140" x1="96.1731" y1="76.7777" x2="79.0851" y2="151.246" gradientUnits="userSpaceOnUse"><stop stop-color="#B2DEFF"/><stop offset="0.33" stop-color="#93C8FF"/><stop offset="0.77" stop-color="#6FAFFF"/><stop offset="1" stop-color="#61A5FF"/></linearGradient><linearGradient id="prefix__paint6_linear_15906_60140" x1="138.848" y1="122.9" x2="138.848" y2="112.815" gradientUnits="userSpaceOnUse"><stop stop-color="#2F315C" stop-opacity="0"/><stop offset="1" stop-color="#2F315C"/></linearGradient><radialGradient id="prefix__paint7_radial_15906_60140" cx="0" cy="0" r="1" gradientTransform="matrix(-3.28603 0.939153 1.8783 6.57207 117.309 123.256)" gradientUnits="userSpaceOnUse"><stop stop-color="white" stop-opacity="0.96"/><stop offset="1" stop-color="white" stop-opacity="0.64"/></radialGradient><linearGradient id="prefix__paint8_linear_15906_60140" x1="115.744" y1="123.265" x2="114.266" y2="121.275" gradientUnits="userSpaceOnUse"><stop stop-color="#212240" stop-opacity="0.08"/><stop offset="1" stop-color="#212240" stop-opacity="0"/></linearGradient><linearGradient id="prefix__paint9_linear_15906_60140" x1="111.922" y1="123.511" x2="119.604" y2="129.145" gradientUnits="userSpaceOnUse"><stop stop-color="white"/><stop offset="1" stop-color="white" stop-opacity="0"/></linearGradient><linearGradient id="prefix__paint10_linear_15906_60140" x1="165.864" y1="123.797" x2="157.769" y2="129.381" gradientUnits="userSpaceOnUse"><stop stop-color="white"/><stop offset="1" stop-color="white" stop-opacity="0"/></linearGradient><linearGradient id="prefix__paint11_linear_15906_60140" x1="61.8492" y1="117.75" x2="61.8492" y2="144.421" gradientUnits="userSpaceOnUse"><stop stop-color="#212240"/><stop offset="0.29" stop-color="#212240" stop-opacity="0"/></linearGradient><linearGradient id="prefix__paint12_linear_15906_60140" x1="100.349" y1="-5538.39" x2="100.349" y2="-5538.39" gradientUnits="userSpaceOnUse"><stop stop-color="#212240"/><stop offset="0.29" stop-color="#212240" stop-opacity="0"/></linearGradient><linearGradient id="prefix__paint13_linear_15906_60140" x1="99.8468" y1="135.458" x2="101.334" y2="121.758" gradientUnits="userSpaceOnUse"><stop stop-color="#E6E8F5"/><stop offset="1" stop-color="#7EB5F0"/></linearGradient><linearGradient id="prefix__paint14_linear_15906_60140" x1="61.3473" y1="135.458" x2="62.8345" y2="121.758" gradientUnits="userSpaceOnUse"><stop stop-color="#E6E8F5"/><stop offset="1" stop-color="#7EB5F0"/></linearGradient><linearGradient id="prefix__paint15_linear_15906_60140" x1="61.367" y1="144.647" x2="60.3033" y2="130.927" gradientUnits="userSpaceOnUse"><stop stop-color="#E6E8F5"/><stop offset="1" stop-color="#7EB5F0"/></linearGradient><linearGradient id="prefix__paint16_linear_15906_60140" x1="99.8666" y1="144.647" x2="98.8029" y2="130.927" gradientUnits="userSpaceOnUse"><stop stop-color="#E6E8F5"/><stop offset="1" stop-color="#7EB5F0"/></linearGradient><clipPath id="prefix__clip0_15906_60140"><rect width="240" height="128.037" fill="white" transform="translate(24 16)"/></clipPath></defs></svg>