<svg fill="none" xmlns="http://www.w3.org/2000/svg" viewBox="0 0 288 160"><path d="M129.4 64.4001C129.4 59.4296 125.37 55.4001 120.4 55.4001H104.8C99.8292 55.4001 95.7998 59.4296 95.7998 64.4001C95.7998 69.3707 99.8292 73.4001 104.8 73.4001H120.4C125.37 73.4001 129.4 69.3707 129.4 64.4001Z" fill="url(#prefix__paint0_linear_9725_69055)"/><path d="M129.4 64.4001C129.4 59.4296 125.37 55.4001 120.4 55.4001H104.8C99.8292 55.4001 95.7998 59.4296 95.7998 64.4001C95.7998 64.5658 95.9341 64.7001 96.0998 64.7001H129.1C129.265 64.7001 129.4 64.5658 129.4 64.4001Z" fill="url(#prefix__paint1_linear_9725_69055)"/><path d="M129.4 63.8H95.7998V64.9613V65H129.4V64.9613V63.8Z" fill="url(#prefix__paint2_linear_9725_69055)"/><path d="M164.853 100.334H160.785L159.278 105.909H165.606H170.576C171.782 105.909 172.684 105.003 172.684 103.801L164.853 100.334Z" fill="#F078A4"/><path d="M160.332 68.8396C162.74 68.3865 164.853 70.3466 164.853 72.6071V72.7597V100.334C164.853 101.388 164.252 102.294 163.193 102.442C161.987 102.595 161.085 101.841 160.785 100.783L155.816 73.6611C155.363 71.5532 156.87 69.4405 158.978 69.14L160.332 68.8396Z" fill="url(#prefix__paint3_linear_9725_69055)"/><path d="M177.868 51.5137H171.782C170.876 51.5137 170.156 52.3578 170.156 53.3211C170.156 54.3465 170.881 55.1286 171.782 55.1286H177.868C178.774 55.1286 179.494 54.2845 179.494 53.3211C179.499 52.2958 178.774 51.5137 177.868 51.5137Z" fill="url(#prefix__paint4_linear_9725_69055)"/><path d="M171.725 51.5137C170.819 51.5137 170.099 52.3578 170.099 53.3211C170.099 54.2845 170.824 55.1286 171.725 55.1286C172.631 55.1286 173.351 54.2845 173.351 53.3211C173.351 52.3578 172.626 51.5137 171.725 51.5137Z" fill="#131345"/><path d="M170.938 52.4769C169.675 52.4769 168.53 53.1398 168.044 54.2224C167.982 54.2844 167.862 54.4036 167.681 54.4036H165.754V56.2111H167.681C168.644 56.2111 169.489 55.6674 169.851 54.9473C170.032 54.5276 170.452 54.2844 170.934 54.2844H171.296C171.84 54.2844 172.259 53.8647 172.259 53.3783C172.259 52.8346 171.84 52.4722 171.296 52.4722H170.938V52.4769Z" fill="url(#prefix__paint5_linear_9725_69055)"/><path d="M159.488 49.8826L163.827 49.7014C165.516 53.0779 163.102 57.1125 159.43 57.1125H156.235C155.09 57.1125 154.127 56.2064 154.127 55.1858C154.065 52.3578 156.478 50.0639 159.488 49.8826Z" fill="#131345"/><path d="M157.38 55.2525C157.38 54.7708 157.017 54.3464 156.598 54.3464H156.178C155.997 54.3464 155.878 54.2844 155.816 54.1651C155.334 53.0826 154.189 52.3577 152.921 52.3577H150.87V54.1651H152.921C153.402 54.1651 153.827 54.4084 154.003 54.828C154.366 55.6102 155.21 56.0918 156.173 56.0918H156.593C157.079 56.1538 157.38 55.7914 157.38 55.2525Z" fill="url(#prefix__paint6_linear_9725_69055)"/><path d="M168.41 54.4037L166.241 49.9446C165.878 49.2197 165.158 48.8 164.314 48.8H158.71C157.203 48.8 156.178 50.2451 156.784 51.5136L158.171 54.4084C158.772 55.6722 157.752 57.122 156.245 57.122H166.431C167.986 57.1173 169.011 55.6722 168.41 54.4037Z" fill="url(#prefix__paint7_linear_9725_69055)"/><path d="M150.813 51.5137H145.629C144.723 51.5137 144.002 52.3578 144.002 53.3211C144.002 54.2845 144.727 55.1286 145.629 55.1286H150.813C151.719 55.1286 152.439 54.2845 152.439 53.3211C152.439 52.3578 151.714 51.5137 150.813 51.5137Z" fill="url(#prefix__paint8_linear_9725_69055)"/><path d="M145.629 51.5137C144.723 51.5137 144.002 52.3578 144.002 53.3211C144.002 54.2845 144.727 55.1286 145.629 55.1286C146.535 55.1286 147.255 54.2845 147.255 53.3211C147.255 52.3578 146.535 51.5137 145.629 51.5137Z" fill="url(#prefix__paint9_linear_9725_69055)"/><path d="M121.827 87.4961C116.342 87.4961 111.883 95.2696 111.883 104.913C111.883 111.122 113.753 116.544 116.524 119.62L114.172 122.334H121.827C127.311 122.334 131.77 114.56 131.77 104.917C131.77 95.2744 127.311 87.4961 121.827 87.4961Z" fill="url(#prefix__paint10_linear_9725_69055)"/><path d="M147.498 79.9608C148.342 79.9608 149.005 78.8783 148.824 77.7289C148.099 72.483 144.909 68.5056 141.05 68.5056H128.212C125.742 68.5056 120.014 71.038 120.014 74.1092H126.042C126.643 74.1092 127.249 74.5909 127.487 75.2538L128.751 78.8115C128.994 79.5364 132.972 85.3832 132.972 85.3832L147.498 79.9608Z" fill="url(#prefix__paint11_linear_9725_69055)"/><path d="M180.519 78.0915L172.021 58.1426C171.72 57.4177 171.058 56.998 170.275 56.998H168.95L160.518 58.7674L157.442 56.998H153.708L159.13 78.392C159.855 80.6811 147.317 112.266 145.572 112.505L159.674 112.567C162.387 112.567 165.277 111.06 166.665 108.652L168.234 105.881L180.047 85.2689C181.363 83.037 181.545 80.3854 180.519 78.0915Z" fill="url(#prefix__paint12_linear_9725_69055)"/><path d="M174.496 78.0343H169.674C167.805 78.0343 166.179 77.1282 165.578 75.6831L157.442 56.998H168.954L176.847 75.2587C177.51 76.5845 176.184 78.0343 174.496 78.0343Z" fill="url(#prefix__paint13_linear_9725_69055)"/><path opacity="0.4" d="M162.445 72.6071C164.853 77.4286 169.798 80.3234 173.471 79.0548C177.267 77.791 178.411 72.8455 176.003 68.024C173.59 63.2025 168.649 60.3125 164.972 61.5763C161.295 62.9021 160.151 67.7856 162.445 72.6071Z" fill="url(#prefix__paint14_radial_9725_69055)"/><path d="M165.697 71.5243C166.961 74.0567 169.555 75.5637 171.482 74.9008C173.471 74.2379 174.072 71.6483 172.808 69.116C171.544 66.5836 168.95 65.0766 167.023 65.7395C165.096 66.4024 164.491 68.992 165.697 71.5243Z" fill="white"/><path d="M164.371 86.1082L155.935 106.72L166.784 106.901L174.677 86.1082H164.371Z" fill="url(#prefix__paint15_linear_9725_69055)"/><path d="M180.882 103.83L174.672 86.1082H171.177L178.049 105.394C178.292 106.119 178.893 106.539 179.494 106.539C179.675 106.539 179.914 106.477 180.095 106.358C180.882 105.938 181.244 104.793 180.882 103.83Z" fill="url(#prefix__paint16_linear_9725_69055)"/><path d="M176.904 87.4961H169.551L172.14 89.604C169.007 92.556 166.899 98.2837 166.899 104.913C166.899 110.941 168.644 116.182 171.296 119.315L169.551 122.329H176.904C182.389 122.329 186.848 114.556 186.848 104.97C186.848 95.3889 182.389 87.4961 176.904 87.4961Z" fill="url(#prefix__paint17_linear_9725_69055)"/><path fill-rule="evenodd" clip-rule="evenodd" d="M100.892 68.3541C101.36 68.1845 101.876 68.4257 102.046 68.8929L105.031 77.1166C105.332 77.9471 106.121 78.5 107.005 78.5H112C112.497 78.5 112.9 78.903 112.9 79.4001C112.9 79.8971 112.497 80.3 112 80.3H107.005C105.364 80.3 103.899 79.2731 103.339 77.7309L100.354 69.5072C100.184 69.0399 100.425 68.5237 100.892 68.3541Z" fill="url(#prefix__paint18_linear_9725_69055)"/><path d="M169.555 122.329C175.04 122.329 179.499 114.556 179.499 104.913C179.499 95.2696 175.04 87.4961 169.555 87.4961C164.071 87.4961 159.612 95.2696 159.612 104.913C159.612 114.556 164.071 122.329 169.555 122.329Z" fill="#131345"/><path d="M164.19 104.913C164.19 110.159 166.598 114.436 169.555 114.436C172.507 114.436 174.92 110.159 174.92 104.913C174.92 99.6667 172.512 95.3889 169.555 95.3889C166.598 95.3889 164.19 99.6667 164.19 104.913Z" fill="url(#prefix__paint19_linear_9725_69055)"/><path d="M165.397 104.851C165.397 99.9671 167.504 95.9325 170.156 95.446C169.975 95.384 169.736 95.384 169.555 95.384C166.603 95.384 164.19 99.6619 164.19 104.908C164.19 110.154 166.598 114.432 169.555 114.432C169.736 114.432 169.975 114.432 170.156 114.37C167.504 113.711 165.397 109.672 165.397 104.851Z" fill="url(#prefix__paint20_linear_9725_69055)"/><path d="M145.929 93.2809C144.36 88.8218 144.966 83.6379 147.498 79.9609H134.541C132.008 83.6379 131.407 88.8218 132.972 93.2809L137.369 105.876L144.117 109.31L150.326 105.876L145.929 93.2809Z" fill="url(#prefix__paint21_linear_9725_69055)"/><path d="M114.172 122.329C119.657 122.329 124.116 114.556 124.116 104.913C124.116 95.2696 119.657 87.4961 114.172 87.4961C108.688 87.4961 104.229 95.3316 104.229 104.913C104.229 114.494 108.688 122.329 114.172 122.329Z" fill="#131345"/><path d="M108.807 104.851C108.807 110.097 111.215 114.374 114.172 114.374C117.129 114.374 119.537 110.097 119.537 104.851C119.537 99.6047 117.129 95.3269 114.172 95.3269C111.215 95.3269 108.807 99.6095 108.807 104.851Z" fill="url(#prefix__paint22_linear_9725_69055)"/><path d="M110.014 104.793C110.014 99.91 112.122 95.8753 114.773 95.3889C114.592 95.3269 114.354 95.3269 114.172 95.3269C111.22 95.3269 108.807 99.6047 108.807 104.851C108.807 110.097 111.215 114.374 114.172 114.374C114.354 114.374 114.592 114.374 114.773 114.312C112.122 113.654 110.014 109.615 110.014 104.793Z" fill="url(#prefix__paint23_linear_9725_69055)"/><path d="M124.416 99.0657H114.172C112.365 99.0657 110.858 101.655 110.858 104.913C110.858 108.108 112.365 110.759 114.172 110.759H127.974L124.416 99.0657Z" fill="url(#prefix__paint24_linear_9725_69055)"/><path d="M122.995 103.391H135.638L129.238 77.0089L122.246 71.7629L108.569 76.0408C107.486 76.0408 106.518 76.9469 106.098 78.3919L104.291 84.42C103.509 87.0096 104.835 89.9044 106.761 89.9044H118.875L122.995 103.391Z" fill="url(#prefix__paint25_linear_9725_69055)"/><path d="M135.638 103.391H135.957L129.238 77.0089L122.246 71.7629L108.569 76.0408C107.486 76.0408 106.518 76.9469 106.098 78.3919H119.714C121.822 78.3919 123.629 79.7177 124.235 81.7064L130.53 101.612C130.807 102.495 130.153 103.391 129.228 103.391H122.995L123.753 105.876L130.263 111.241L130.926 109.615L137.073 109.314L135.638 103.391Z" fill="url(#prefix__paint26_linear_9725_69055)"/><path d="M134.603 79.9609L129.181 79.0547L129.119 78.8115H127.011L130.745 91.1061L133.73 100.806C134.126 102.089 133.163 103.391 131.823 103.391H123L123.758 105.876H137.379L133.521 93.2808C132.128 88.8217 132.433 83.6378 134.603 79.9609Z" fill="url(#prefix__paint27_linear_9725_69055)"/><path d="M125.804 77.1901L126.286 78.7592C126.529 79.484 127.011 79.9037 127.55 79.9037H129.357H134.598C135.442 79.9037 136.105 78.8211 135.924 77.6718C135.199 72.4259 132.009 68.4485 128.151 68.4485H112.665C111.583 68.4485 110.615 69.3546 110.195 70.7376L108.569 75.9836H124.54C125.079 76.0408 125.561 76.5225 125.804 77.1901Z" fill="#131345"/><path d="M170.881 103.706L164.733 86.1082H164.371L162.32 91.0489L167.38 105.513C167.681 106.357 168.344 106.901 169.126 106.901C169.426 106.901 169.669 106.839 169.908 106.72C170.881 106.176 171.3 104.85 170.881 103.706Z" fill="url(#prefix__paint28_linear_9725_69055)"/><path d="M166.961 71.1002C167.805 72.7884 169.493 73.7517 170.819 73.3321C172.145 72.9124 172.507 71.1622 171.725 69.5359C170.881 67.8477 169.193 66.8843 167.867 67.304C166.541 67.7284 166.117 69.4167 166.961 71.1002Z" fill="url(#prefix__paint29_linear_9725_69055)"/><path d="M115.918 74.176C115.675 73.8135 115.317 73.6323 114.893 73.6323H107.062H106.156C106.156 74.9581 107.238 76.0455 108.564 76.0455H114.23H117.125L115.918 74.176Z" fill="url(#prefix__paint30_linear_9725_69055)"/><path d="M160.151 78.0915L153.703 56.998C151.171 56.998 149.425 60.7942 150.451 64.1707L153.884 75.3827C155.091 79.4221 154.91 84.0004 153.403 87.7965L146.836 103.949C146.354 105.156 145.448 105.876 144.484 105.876H123.753L124.054 106.839C125.079 110.154 128.031 112.443 131.408 112.443L145.629 112.505C147.556 112.505 149.306 111.06 150.331 108.647L151.476 105.876L159.912 85.2641C160.756 83.037 160.814 80.3854 160.151 78.0915Z" fill="url(#prefix__paint31_linear_9725_69055)"/><path d="M150.841 51.5137H144.813C143.907 51.5137 143.154 52.4198 143.154 53.3211C143.154 54.3751 143.907 55.1286 144.813 55.1286H150.841C151.748 55.1286 152.501 54.2225 152.501 53.3211C152.501 52.415 151.748 51.5137 150.841 51.5137Z" fill="url(#prefix__paint32_linear_9725_69055)"/><path d="M144.813 51.5137C143.907 51.5137 143.154 52.4198 143.154 53.3211C143.154 54.2273 143.907 55.1286 144.813 55.1286C145.72 55.1286 146.473 54.2225 146.473 53.3211C146.32 52.415 145.72 51.5137 144.813 51.5137Z" fill="#131345"/><g opacity="0.75"><path opacity="0.75" d="M146.56 125.6C186.324 125.6 218.56 123.988 218.56 122C218.56 120.012 186.324 118.4 146.56 118.4C106.795 118.4 74.5596 120.012 74.5596 122C74.5596 123.988 106.795 125.6 146.56 125.6Z" fill="url(#prefix__paint33_radial_9725_69055)"/><path opacity="0.8" d="M165.879 124.1C178.074 124.1 187.959 123.025 187.959 121.7C187.959 120.374 178.074 119.3 165.879 119.3C153.685 119.3 143.799 120.374 143.799 121.7C143.799 123.025 153.685 124.1 165.879 124.1Z" fill="url(#prefix__paint34_radial_9725_69055)"/><path opacity="0.75" d="M121.96 124.1C136.209 124.1 147.76 123.16 147.76 122C147.76 120.84 136.209 119.9 121.96 119.9C107.711 119.9 96.1597 120.84 96.1597 122C96.1597 123.16 107.711 124.1 121.96 124.1Z" fill="url(#prefix__paint35_radial_9725_69055)"/><path opacity="0.8" d="M172.24 122.9C183.341 122.9 192.34 122.363 192.34 121.7C192.34 121.037 183.341 120.5 172.24 120.5C161.139 120.5 152.14 121.037 152.14 121.7C152.14 122.363 161.139 122.9 172.24 122.9Z" fill="url(#prefix__paint36_radial_9725_69055)"/></g><path fill-rule="evenodd" clip-rule="evenodd" d="M179.314 16.0002H208V44.686H203.576V20.4243H179.314V16.0002ZM80.0004 16.0015H108.686V20.4256H84.4244V44.6872H80.0004V16.0015ZM80 115.314H84.424V139.576H108.686V144H80V115.314ZM208 115.314V144H179.314V139.576H203.576V115.314H208Z" fill="#F078A4"/><defs><linearGradient id="prefix__paint0_linear_9725_69055" x1="129.4" y1="44.0668" x2="115.78" y2="79.4911" gradientUnits="userSpaceOnUse"><stop stop-color="#7171B3"/><stop offset="1" stop-color="#131345"/></linearGradient><linearGradient id="prefix__paint1_linear_9725_69055" x1="152.028" y1="72.3394" x2="135.717" y2="97.9439" gradientUnits="userSpaceOnUse"><stop stop-color="#1E1E51"/><stop offset="1" stop-color="#7171B3"/></linearGradient><linearGradient id="prefix__paint2_linear_9725_69055" x1="143.8" y1="53.9" x2="144.696" y2="58.7236" gradientUnits="userSpaceOnUse"><stop stop-color="#50508C"/><stop offset="1" stop-color="#7171B3"/></linearGradient><linearGradient id="prefix__paint3_linear_9725_69055" x1="167.031" y1="83.9298" x2="148.751" y2="89.6222" gradientUnits="userSpaceOnUse"><stop stop-color="#925B54"/><stop offset="0.9991" stop-color="#784646"/></linearGradient><linearGradient id="prefix__paint4_linear_9725_69055" x1="174.827" y1="51.7694" x2="174.827" y2="56.4315" gradientUnits="userSpaceOnUse"><stop stop-color="#2E2E75"/><stop offset="1" stop-color="#131345"/></linearGradient><linearGradient id="prefix__paint5_linear_9725_69055" x1="169.011" y1="47.9028" x2="169.011" y2="59.5831" gradientUnits="userSpaceOnUse"><stop stop-color="#62628A"/><stop offset="1" stop-color="#1F1F5C"/></linearGradient><linearGradient id="prefix__paint6_linear_9725_69055" x1="154.126" y1="47.9027" x2="154.126" y2="59.5831" gradientUnits="userSpaceOnUse"><stop stop-color="#62628A"/><stop offset="1" stop-color="#1F1F5C"/></linearGradient><linearGradient id="prefix__paint7_linear_9725_69055" x1="161.705" y1="49.5264" x2="162.609" y2="57.9642" gradientUnits="userSpaceOnUse"><stop stop-color="#2E2E75"/><stop offset="1" stop-color="#131345"/></linearGradient><linearGradient id="prefix__paint8_linear_9725_69055" x1="148.22" y1="47.5932" x2="148.22" y2="56.9412" gradientUnits="userSpaceOnUse"><stop stop-color="#616A8F"/><stop offset="1" stop-color="#212240"/></linearGradient><linearGradient id="prefix__paint9_linear_9725_69055" x1="143.671" y1="45.4884" x2="144.575" y2="49.1047" gradientUnits="userSpaceOnUse"><stop stop-color="#373D5C"/><stop offset="1" stop-color="#212240"/></linearGradient><linearGradient id="prefix__paint10_linear_9725_69055" x1="122.89" y1="103.749" x2="105.328" y2="122.937" gradientUnits="userSpaceOnUse"><stop stop-color="#2E2E75"/><stop offset="1" stop-color="#131345"/></linearGradient><linearGradient id="prefix__paint11_linear_9725_69055" x1="129.07" y1="82.0937" x2="141.067" y2="68.4343" gradientUnits="userSpaceOnUse"><stop stop-color="#2E2E75"/><stop offset="1" stop-color="#131345"/></linearGradient><linearGradient id="prefix__paint12_linear_9725_69055" x1="167.876" y1="58.518" x2="161.749" y2="110.982" gradientUnits="userSpaceOnUse"><stop stop-color="#8C5CFF"/><stop offset="0.4642" stop-color="#7145D6"/><stop offset="1" stop-color="#7145D6"/></linearGradient><linearGradient id="prefix__paint13_linear_9725_69055" x1="170.981" y1="75.2168" x2="158.918" y2="46.6391" gradientUnits="userSpaceOnUse"><stop stop-color="#8C5CFF"/><stop offset="0.6773" stop-color="#7145D6"/><stop offset="1" stop-color="#8C5CFF"/></linearGradient><radialGradient id="prefix__paint14_radial_9725_69055" cx="0" cy="0" r="1" gradientTransform="matrix(3.34635 7.84315 6.27566 -2.67829 169.269 70.3462)" gradientUnits="userSpaceOnUse"><stop offset="0.2269" stop-color="#F8F9FB" stop-opacity="0.5"/><stop offset="0.9991" stop-color="#F8F9FB" stop-opacity="0"/></radialGradient><linearGradient id="prefix__paint15_linear_9725_69055" x1="165.585" y1="70.57" x2="165.326" y2="94.4479" gradientUnits="userSpaceOnUse"><stop stop-color="#131345"/><stop offset="1" stop-color="#2E2E75"/></linearGradient><linearGradient id="prefix__paint16_linear_9725_69055" x1="171.98" y1="81.78" x2="178.801" y2="103.967" gradientUnits="userSpaceOnUse"><stop stop-color="#131345"/><stop offset="1" stop-color="#57579F"/></linearGradient><linearGradient id="prefix__paint17_linear_9725_69055" x1="188.684" y1="95.6956" x2="160.39" y2="113.583" gradientUnits="userSpaceOnUse"><stop stop-color="#2E2E75"/><stop offset="1" stop-color="#131345"/></linearGradient><linearGradient id="prefix__paint18_linear_9725_69055" x1="113.687" y1="81.3125" x2="91.6653" y2="70.7138" gradientUnits="userSpaceOnUse"><stop stop-color="#372D5E"/><stop offset="1" stop-color="#616A8F"/></linearGradient><linearGradient id="prefix__paint19_linear_9725_69055" x1="169.553" y1="113.164" x2="169.553" y2="84.5865" gradientUnits="userSpaceOnUse"><stop stop-color="#E5F0FF"/><stop offset="1" stop-color="#84BAFF"/></linearGradient><linearGradient id="prefix__paint20_linear_9725_69055" x1="167.53" y1="122.241" x2="167.228" y2="103.657" gradientUnits="userSpaceOnUse"><stop offset="0.000421262" stop-color="#E5F0FF"/><stop offset="1" stop-color="#84BAFF"/></linearGradient><linearGradient id="prefix__paint21_linear_9725_69055" x1="139.624" y1="83.8277" x2="154.259" y2="162.044" gradientUnits="userSpaceOnUse"><stop stop-color="#2E2E75"/><stop offset="1" stop-color="#131345"/></linearGradient><linearGradient id="prefix__paint22_linear_9725_69055" x1="114.172" y1="113.164" x2="114.172" y2="84.5865" gradientUnits="userSpaceOnUse"><stop stop-color="#E5F0FF"/><stop offset="1" stop-color="#84BAFF"/></linearGradient><linearGradient id="prefix__paint23_linear_9725_69055" x1="112.148" y1="122.18" x2="111.847" y2="103.597" gradientUnits="userSpaceOnUse"><stop offset="0.000421262" stop-color="#E5F0FF"/><stop offset="1" stop-color="#84BAFF"/></linearGradient><linearGradient id="prefix__paint24_linear_9725_69055" x1="113.056" y1="109.972" x2="122.487" y2="103.792" gradientUnits="userSpaceOnUse"><stop stop-color="#2E2E75"/><stop offset="1" stop-color="#131345"/></linearGradient><linearGradient id="prefix__paint25_linear_9725_69055" x1="124.147" y1="81.4665" x2="116.392" y2="103.726" gradientUnits="userSpaceOnUse"><stop stop-color="#7145D6"/><stop offset="1" stop-color="#5B39A8"/></linearGradient><linearGradient id="prefix__paint26_linear_9725_69055" x1="122.863" y1="90.7161" x2="135.07" y2="61.1331" gradientUnits="userSpaceOnUse"><stop stop-color="#7145D6"/><stop offset="1" stop-color="#B696FF"/></linearGradient><linearGradient id="prefix__paint27_linear_9725_69055" x1="130.22" y1="99.2823" x2="130.527" y2="53.3835" gradientUnits="userSpaceOnUse"><stop stop-color="#131345"/><stop offset="1" stop-color="#57579F"/></linearGradient><linearGradient id="prefix__paint28_linear_9725_69055" x1="166.913" y1="109.971" x2="166.53" y2="89.8664" gradientUnits="userSpaceOnUse"><stop stop-color="#7145D6"/><stop offset="1" stop-color="#5B39A8"/></linearGradient><linearGradient id="prefix__paint29_linear_9725_69055" x1="170.924" y1="73.0038" x2="160.776" y2="55.771" gradientUnits="userSpaceOnUse"><stop offset="0.000421262" stop-color="#D6F3FF"/><stop offset="1" stop-color="#32BEFA"/></linearGradient><linearGradient id="prefix__paint30_linear_9725_69055" x1="111.753" y1="72.589" x2="111.322" y2="81.2054" gradientUnits="userSpaceOnUse"><stop stop-color="#E5F0FF"/><stop offset="1" stop-color="#84BAFF"/></linearGradient><linearGradient id="prefix__paint31_linear_9725_69055" x1="140.583" y1="47.545" x2="143.599" y2="134.427" gradientUnits="userSpaceOnUse"><stop stop-color="#7145D6"/><stop offset="1" stop-color="#5B39A8"/></linearGradient><linearGradient id="prefix__paint32_linear_9725_69055" x1="147.829" y1="51.7694" x2="147.829" y2="56.4315" gradientUnits="userSpaceOnUse"><stop stop-color="#2E2E75"/><stop offset="1" stop-color="#131345"/></linearGradient><radialGradient id="prefix__paint33_radial_9725_69055" cx="0" cy="0" r="1" gradientUnits="userSpaceOnUse" gradientTransform="translate(146.56 121.983) rotate(90) scale(3.6 72)"><stop stop-color="#212240" stop-opacity="0.51"/><stop offset="1" stop-color="#23266A" stop-opacity="0"/></radialGradient><radialGradient id="prefix__paint34_radial_9725_69055" cx="0" cy="0" r="1" gradientUnits="userSpaceOnUse" gradientTransform="translate(165.879 121.683) rotate(90) scale(2.4 22.0795)"><stop stop-color="#212240"/><stop offset="1" stop-color="#23266A" stop-opacity="0"/></radialGradient><radialGradient id="prefix__paint35_radial_9725_69055" cx="0" cy="0" r="1" gradientUnits="userSpaceOnUse" gradientTransform="translate(121.947 121.983) rotate(90) scale(2.1 25.8073)"><stop stop-color="#212240"/><stop offset="1" stop-color="#23266A" stop-opacity="0"/></radialGradient><radialGradient id="prefix__paint36_radial_9725_69055" cx="0" cy="0" r="1" gradientUnits="userSpaceOnUse" gradientTransform="translate(172.245 121.684) rotate(90) scale(1.2 20.0723)"><stop stop-color="#212240"/><stop offset="1" stop-color="#23266A" stop-opacity="0"/></radialGradient></defs></svg>