<svg fill="none" xmlns="http://www.w3.org/2000/svg" viewBox="0 0 16 16"><g clip-path="url(#clip0_5022_18)"><path d="M13.506 6.966c.218.403.164.905-.135 1.25l-3.038 3.509h-4.7c-.163 0-.29-.137-.297-.301q-.01-.202-.047-.393-.032-.162-.082-.315C4.89 9.747 4.035 9.036 3 8.894c-.667-.092-1.35.11-1.906.651-.249.242-.645.24-.899-.011-.208-.206-.25-.532-.123-.799L1 6.667C1.333 6 2.16 5.482 3 5.56s1.699.3 2.5.503c.488.123 1 .502.932 1.1l-.006.022c-.176.637.006 1.185.294 1.709l.37.561H9.3l1.498-2.307c.169-.26.2-.59.08-.877L10 3.333h-.667c-.368 0-.666-.298-.666-.666S8.965 2 9.333 2h.334l.835.004c.325 0 .67.037.924.52z" fill="#4583D4"/><path fill-rule="evenodd" clip-rule="evenodd" d="M14 13.667c-1.105 0-2-.9-2-2.011 0-1.11.895-2.011 2-2.011s2 .9 2 2.01c0 1.111-.895 2.012-2 2.012m0-1.341c.368 0 .667-.3.667-.67s-.299-.67-.667-.67-.667.3-.667.67.299.67.667.67" fill="#2E2E2E"/><path fill-rule="evenodd" clip-rule="evenodd" d="M2.667 13.667c-1.105 0-2-.9-2-2.011 0-1.11.895-2.011 2-2.011s2 .9 2 2.01c0 1.111-.896 2.012-2 2.012m0-1.341c.368 0 .666-.3.666-.67s-.298-.67-.666-.67-.667.3-.667.67.298.67.667.67" fill="#2E2E2E"/><path fill-rule="evenodd" clip-rule="evenodd" d="M8.667 2.667c0-.369.298-.667.666-.667h1.334c.368 0 .666.298.666.667 0 .368-.298.666-.666.666H9.333c-.368 0-.666-.298-.666-.666" fill="#2E2E2E"/></g><defs><clipPath id="clip0_5022_18"><rect width="16" height="16" fill="white"/></clipPath></defs></svg>