<svg width="64" height="64" viewBox="0 0 64 64" fill="none" xmlns="http://www.w3.org/2000/svg">
<g clip-path="url(#clip0_5432_585012)">
<g clip-path="url(#clip1_5432_585012)">
<path opacity="0.75" d="M27.2222 52.1371C43.5765 52.1371 56.8451 51.4171 56.8451 50.5371C56.8451 49.6571 43.5765 48.9371 27.2222 48.9371C10.8679 48.9371 -0.000671387 49.4059 -0.000671387 50.2859C-0.000671387 51.1659 10.8679 52.1371 27.2222 52.1371Z" fill="url(#paint0_radial_5432_585012)"/>
<path opacity="0.8" d="M18.285 57.1428C30.2736 57.1428 39.9993 55.3287 39.9993 53.1258C39.9993 50.9229 30.2736 49.1088 18.285 49.1088C6.29645 49.1088 -3.42926 50.9229 -3.42926 53.1258C-3.42926 55.3287 6.29645 57.1428 18.285 57.1428Z" fill="url(#paint1_radial_5432_585012)"/>
<path opacity="0.64" d="M19.8389 55.3288C30.5475 55.3288 39.2332 54.4217 39.2332 53.2986C39.2332 52.1756 30.5475 51.2686 19.8389 51.2686C9.13036 51.2686 0.444641 52.1756 0.444641 53.2986C0.444641 54.4217 9.13036 55.3288 19.8389 55.3288Z" fill="url(#paint2_radial_5432_585012)"/>
<path d="M31.0971 50.2514C35.4057 50.2514 38.8571 46.8 38.8571 42.4572V19.2229C38.8571 14.9257 35.3943 11.4286 31.0971 11.4286H7.76C3.41714 11.4286 0 14.88 0 19.2229V42.5029C0 46.8 3.46286 50.2972 7.76 50.2972L31.0971 50.2629H31.0857L31.0971 50.2514Z" fill="url(#paint3_linear_5432_585012)"/>
<path d="M33.3828 50.2514C37.6914 50.2514 41.1428 46.8 41.1428 42.4572V19.2229C41.1428 14.9257 37.68 11.4286 33.3828 11.4286H12.3314C7.97713 11.4286 4.57141 14.88 4.57141 19.2229V42.5029C4.57141 46.8 8.03427 50.2972 12.3314 50.2972L33.3714 50.2629L33.3828 50.2514Z" fill="url(#paint4_linear_5432_585012)"/>
<path d="M33.3828 50.2514C37.6914 50.2514 41.1428 46.8 41.1428 42.4572V19.2229C41.1428 14.9257 37.68 11.4286 33.3828 11.4286H12.3314C7.97713 11.4286 4.57141 14.88 4.57141 19.2229V42.5029C4.57141 46.8 8.03427 50.2972 12.3314 50.2972L33.3714 50.2629L33.3828 50.2514Z" fill="url(#paint5_linear_5432_585012)"/>
<path d="M33.3828 50.2514C37.6914 50.2514 41.1428 46.8 41.1428 42.4572V19.2229C41.1428 14.9257 37.68 11.4286 33.3828 11.4286H12.3314C7.97713 11.4286 4.57141 14.88 4.57141 19.2229V42.5029C4.57141 46.8 8.03427 50.2972 12.3314 50.2972L33.3714 50.2629L33.3828 50.2514Z" fill="url(#paint6_linear_5432_585012)"/>
<path d="M33.3828 50.2514C37.6914 50.2514 41.1428 46.8 41.1428 42.4572V19.2229C41.1428 14.9257 37.68 11.4286 33.3828 11.4286H12.3314C7.97713 11.4286 4.57141 14.88 4.57141 19.2229V42.5029C4.57141 46.8 8.03427 50.2972 12.3314 50.2972L32.24 50.2629H33.3714L33.3828 50.2514Z" fill="url(#paint7_linear_5432_585012)"/>
<path d="M33.3828 50.2514C37.6914 50.2514 41.1428 46.8 41.1428 42.4572V19.2229C41.1428 14.9257 37.68 11.4286 33.3828 11.4286H12.3314C7.97713 11.4286 4.57141 14.88 4.57141 19.2229V42.5029C4.57141 46.8 8.03427 50.2972 12.3314 50.2972L24.24 50.2629H33.3714L33.3828 50.2514Z" fill="url(#paint8_linear_5432_585012)"/>
<path d="M33.3828 50.2514C37.6914 50.2514 41.1428 46.8 41.1428 42.4572V19.2229C41.1428 14.9257 37.68 11.4286 33.3828 11.4286H12.3314C7.97713 11.4286 4.57141 14.88 4.57141 19.2229V42.5029C4.57141 46.8 8.03427 50.2972 12.3314 50.2972L32.24 50.2629H33.3714L33.3828 50.2514Z" fill="url(#paint9_linear_5432_585012)"/>
<path d="M22.8561 24.6445L19.4297 28.0709L22.8561 31.4974L26.2826 28.0709L22.8561 24.6445Z" fill="url(#paint10_linear_5432_585012)"/>
<path d="M16.0023 28.0744L12.5759 24.6479L9.14943 28.0744L12.5759 31.5008L16.0023 28.0744Z" fill="url(#paint11_linear_5432_585012)"/>
<path d="M16.0012 39.4926L12.5748 36.0662L9.14833 39.4926L12.5748 42.919L16.0012 39.4926Z" fill="url(#paint12_linear_5432_585012)"/>
<path d="M26.2836 39.4926L22.8571 36.0662L19.4307 39.4926L22.8571 42.919L26.2836 39.4926Z" fill="url(#paint13_linear_5432_585012)"/>
<path d="M36.5715 39.4926L33.1451 36.0662L29.7186 39.4926L33.1451 42.919L36.5715 39.4926Z" fill="url(#paint14_linear_5432_585012)"/>
<path d="M36.5715 28.0718L33.1451 24.6454L29.7186 28.0718L33.1451 31.4983L36.5715 28.0718Z" fill="url(#paint15_linear_5432_585012)"/>
<path d="M33.4171 11.4286H12.3314C7.98855 11.4286 4.57141 14.88 4.57141 19.2229V20.4H41.1428V19.2229C41.1428 14.8457 37.7143 11.4286 33.4171 11.4286Z" fill="url(#paint16_linear_5432_585012)"/>
<path d="M12.3314 11.4286H7.76C3.41714 11.4286 0 14.88 0 19.2229V20.4H4.57143V19.2229C4.57143 14.88 7.98857 11.4286 12.3314 11.4286Z" fill="url(#paint17_linear_5432_585012)"/>
</g>
<path d="M54.9917 38.2833C50.2238 32.5965 45.67 31.2333 42.8287 31.2333H29.8271L36.975 38.2833H54.9917Z" fill="url(#paint18_linear_5432_585012)"/>
<path d="M49.5094 33.3702C51.2406 34.4502 53.0993 36.0262 54.9916 38.2833H36.975C39.3033 34.9364 43.487 34.3297 46.7961 33.8499C47.8085 33.7031 48.7389 33.5681 49.5094 33.3702Z" fill="url(#paint19_linear_5432_585012)"/>
<path d="M30.0037 31.2341C24.7354 31.2341 20.525 37.5 20.525 37.5L36.975 38.2833C36.1258 36.0182 33.302 31.2341 30.0037 31.2341Z" fill="url(#paint20_linear_5432_585012)"/>
<path d="M32.3665 38.064C31.3056 35.9419 29.2594 34.9447 27.4294 34.0529C26.6192 33.6581 25.8514 33.2839 25.2303 32.8419C22.5096 34.6314 20.6622 37.299 20.5323 37.4893C20.5914 37.4959 20.6505 37.5024 20.7096 37.5089L32.3665 38.064Z" fill="url(#paint21_linear_5432_585012)"/>
<mask id="mask0_5432_585012" style="mask-type:alpha" maskUnits="userSpaceOnUse" x="17" y="37" width="47" height="13">
<path d="M36.9745 38.2832H54.9921L63.9999 41.0254V47.6836C63.9997 48.5487 63.2986 49.2499 62.4335 49.25H20.5253C19.8794 49.25 18.5514 47.6737 17.7225 46.6006C17.2455 45.983 17.0533 45.1973 17.1571 44.4238C17.6068 41.0723 18.077 38.2832 18.077 38.2832L20.5253 37.5L36.9745 38.2832Z" fill="white"/>
</mask>
<g mask="url(#mask0_5432_585012)">
<path d="M64 49.25V41.025L54.9916 38.2833H36.975V49.25H64Z" fill="url(#paint22_linear_5432_585012)"/>
<path d="M45.2 47.6833C45.2 48.5486 44.4989 49.25 43.6336 49.25C38.3239 49.25 21.2914 49.25 20.4767 49.25C19.511 49.25 17 45.6271 17 45.6271C17.4829 41.7675 18.0623 38.2833 18.0623 38.2833L20.4767 37.5L36.975 38.2833L45.2 41.025V47.6833Z" fill="url(#paint23_linear_5432_585012)"/>
<path d="M64 49.2505H17V47.6831H47.1973C48.0198 47.6831 49.4105 47.6832 50.3896 46.8999C51.2027 46.2495 51.8776 46.1168 52.3672 46.1167H57.4004C58.3991 46.1167 58.9773 46.2835 59.5938 46.8999C60.377 47.6832 61.6498 47.6831 62.6289 47.6831H64V49.2505Z" fill="url(#paint24_linear_5432_585012)"/>
<path d="M64 49.2505H17V47.6831H47.1973C48.0198 47.6831 49.4105 47.6832 50.3896 46.8999C51.2027 46.2495 51.8776 46.1168 52.3672 46.1167H57.4004C58.3991 46.1167 58.9773 46.2835 59.5938 46.8999C60.377 47.6832 61.6498 47.6831 62.6289 47.6831H64V49.2505Z" fill="url(#paint25_linear_5432_585012)"/>
<path d="M45.2 41.025L36.975 38.2833L20.525 37.5L18.0771 38.2833C19.5458 39.0667 22.8162 40.2417 28.3583 40.2417H37.3667C40.8917 40.2417 40.8917 41.8083 44.5108 41.8083C45.2969 41.8083 45.2 41.8083 45.2 41.8083C45.2 41.025 45.2 41.8083 45.2 41.025Z" fill="url(#paint26_linear_5432_585012)"/>
</g>
<path opacity="0.8" d="M48.9208 41.025H60.2791L58.7124 41.8084H50.4874L48.9208 41.025Z" fill="url(#paint27_linear_5432_585012)"/>
<path d="M64 41.025H58.7125V41.8084H64V41.025Z" fill="white"/>
<path d="M50.4875 41.8084H45.2C45.2 41.8084 45.2 41.4559 45.2 41.025H50.4875V41.8084Z" fill="white"/>
<path d="M45.2 41.8084H44.4167C43.9841 41.8084 43.6334 41.4576 43.6334 41.025H45.2V41.8084Z" fill="url(#paint28_radial_5432_585012)"/>
<rect x="43.6334" y="41.025" width="1.56667" height="0.783333" fill="url(#paint29_linear_5432_585012)"/>
<path opacity="0.24" d="M48.3333 41.8083L46.3946 47.6834H45.2V41.8083H48.3333Z" fill="url(#paint30_linear_5432_585012)"/>
<path opacity="0.24" d="M60.8667 41.8083L62.9817 47.6834H64V41.8083H60.8667Z" fill="url(#paint31_linear_5432_585012)"/>
<path opacity="0.64" d="M25.4208 47.6834C25.4208 47.1938 25.4208 46.3954 25.4208 46.0257C25.4208 43.2627 24.1083 41.025 22.4625 41.025C20.8167 41.025 19.5458 43.2627 19.5458 46.0257C19.5458 46.3954 19.5458 47.2917 19.5458 47.6834" fill="url(#paint32_linear_5432_585012)"/>
<path opacity="0.64" d="M41.4791 47.6834C41.4791 47.2917 41.4791 46.3954 41.4791 46.0257C41.4791 43.2627 40.1666 41.025 38.5208 41.025C36.875 41.025 35.6041 43.2627 35.6041 46.0257C35.6041 46.3954 35.6041 47.2917 35.6041 47.6834" fill="url(#paint33_linear_5432_585012)"/>
<path d="M24.9456 49.25C24.6706 49.25 24.3631 49.0172 24.4417 48.7605C24.6773 48.0692 24.8333 47.2917 24.8333 46.4105C24.8333 43.8625 23.9521 41.6125 22.4513 41.6125C20.9167 41.6125 19.9375 43.8823 19.9375 46.4105C19.9375 48.9584 21.0788 50.8167 22.4177 50.8167H24.8333C25.6189 50.8167 26.3203 50.2969 26.7917 49.25H24.9456Z" fill="url(#paint34_linear_5432_585012)"/>
<path d="M41.0038 49.25C40.7289 49.25 40.4214 49.0172 40.5 48.7605C40.7356 48.0692 40.8916 47.2917 40.8916 46.4105C40.8916 43.8625 40.0104 41.6125 38.5096 41.6125C36.975 41.6125 35.9958 43.8823 35.9958 46.4105C35.9958 48.9584 37.1371 50.8167 38.476 50.8167H40.8916C41.6772 50.8167 42.3786 50.2969 42.85 49.25H41.0038Z" fill="url(#paint35_linear_5432_585012)"/>
<path d="M52.25 49.25C52.7396 50.3271 53.1977 50.8167 54.0125 50.8167H56.7116C57.5375 50.8167 58.2451 50.322 58.7125 49.25H52.25Z" fill="url(#paint36_linear_5432_585012)"/>
<path d="M36.7792 46.2146C36.7792 48.0983 37.5303 49.6416 38.4438 49.6416C39.3572 49.6416 40.1083 48.0983 40.1083 46.2146C40.1083 44.3308 39.3572 42.7875 38.4438 42.7875C37.5303 42.7875 36.7792 44.3308 36.7792 46.2146Z" fill="url(#paint37_linear_5432_585012)"/>
<path d="M20.7208 46.2146C20.7208 48.0983 21.4719 49.6416 22.3854 49.6416C23.2989 49.6416 24.05 48.0983 24.05 46.2146C24.05 44.3308 23.2989 42.7875 22.3854 42.7875C21.4719 42.7875 20.7208 44.3308 20.7208 46.2146Z" fill="url(#paint38_linear_5432_585012)"/>
<path d="M37.3848 46.2373C37.3848 44.5578 37.9703 43.1506 38.7375 42.8556C38.6366 42.8102 38.5356 42.7875 38.4347 42.7875C37.5262 42.7875 36.7792 44.3308 36.7792 46.2146C36.7792 48.0983 37.5262 49.6416 38.4347 49.6416C38.5356 49.6416 38.6366 49.6189 38.7375 49.5736C37.9703 49.3239 37.3848 47.9168 37.3848 46.2373Z" fill="url(#paint39_linear_5432_585012)"/>
<path d="M21.3265 46.2373C21.3265 44.5578 21.912 43.1506 22.6792 42.8556C22.5782 42.8102 22.4773 42.7875 22.3763 42.7875C21.4678 42.7875 20.7208 44.3308 20.7208 46.2146C20.7208 48.0983 21.4678 49.6416 22.3763 49.6416C22.4773 49.6416 22.5782 49.6189 22.6792 49.5736C21.912 49.3239 21.3265 47.9168 21.3265 46.2373Z" fill="url(#paint40_linear_5432_585012)"/>
<path opacity="0.75" d="M40.5 52.3833C53.4787 52.3833 64 51.6819 64 50.8167C64 49.9514 53.4787 49.25 40.5 49.25C27.5213 49.25 17 49.9514 17 50.8167C17 51.6819 27.5213 52.3833 40.5 52.3833Z" fill="url(#paint41_radial_5432_585012)"/>
<path opacity="0.75" d="M40.5 51.7959C53.4787 51.7959 64 51.3137 64 50.7188C64 50.124 53.4787 49.6417 40.5 49.6417C27.5213 49.6417 17 50.124 17 50.7188C17 51.3137 27.5213 51.7959 40.5 51.7959Z" fill="url(#paint42_radial_5432_585012)"/>
<path opacity="0.8" d="M54.8938 51.4434C58.6251 51.4434 61.65 51.1804 61.65 50.8559C61.65 50.5315 58.6251 50.2684 54.8938 50.2684C51.1624 50.2684 48.1375 50.5315 48.1375 50.8559C48.1375 51.1804 51.1624 51.4434 54.8938 51.4434Z" fill="url(#paint43_radial_5432_585012)"/>
<path opacity="0.8" d="M24.3438 51.6C28.3996 51.6 31.6875 51.2493 31.6875 50.8167C31.6875 50.384 28.3996 50.0333 24.3438 50.0333C20.2879 50.0333 17 50.384 17 50.8167C17 51.2493 20.2879 51.6 24.3438 51.6Z" fill="url(#paint44_radial_5432_585012)"/>
<path opacity="0.8" d="M39.6188 51.4434C44.2695 51.4434 48.0396 51.1804 48.0396 50.8559C48.0396 50.5315 44.2695 50.2684 39.6188 50.2684C34.9681 50.2684 31.1979 50.5315 31.1979 50.8559C31.1979 51.1804 34.9681 51.4434 39.6188 51.4434Z" fill="url(#paint45_radial_5432_585012)"/>
<path opacity="0.64" d="M52.7788 51.2476C56.402 51.2476 59.3392 51.0722 59.3392 50.8559C59.3392 50.6396 56.402 50.4642 52.7788 50.4642C49.1556 50.4642 46.2184 50.6396 46.2184 50.8559C46.2184 51.0722 49.1556 51.2476 52.7788 51.2476Z" fill="url(#paint46_radial_5432_585012)"/>
<path opacity="0.64" d="M24.8726 51.2476C28.4958 51.2476 31.433 51.0722 31.433 50.8559C31.433 50.6396 28.4958 50.4642 24.8726 50.4642C21.2493 50.4642 18.3121 50.6396 18.3121 50.8559C18.3121 51.0722 21.2493 51.2476 24.8726 51.2476Z" fill="url(#paint47_radial_5432_585012)"/>
</g>
<defs>
<radialGradient id="paint0_radial_5432_585012" cx="0" cy="0" r="1" gradientUnits="userSpaceOnUse" gradientTransform="translate(22.2083 50.5234) rotate(90) scale(1.6 29.6229)">
<stop stop-color="#212240" stop-opacity="0.51"/>
<stop offset="1" stop-color="#23266A" stop-opacity="0"/>
</radialGradient>
<radialGradient id="paint1_radial_5432_585012" cx="0" cy="0" r="1" gradientUnits="userSpaceOnUse" gradientTransform="translate(27.5993 9.49144) rotate(90) scale(4.01702 21.7143)">
<stop stop-color="#212240"/>
<stop offset="1" stop-color="#23266A" stop-opacity="0"/>
</radialGradient>
<radialGradient id="paint2_radial_5432_585012" cx="0" cy="0" r="1" gradientUnits="userSpaceOnUse" gradientTransform="translate(27.5761 138.869) rotate(90) scale(2.0301 19.3714)">
<stop stop-color="#2C2643"/>
<stop offset="1" stop-color="#23266A" stop-opacity="0"/>
</radialGradient>
<linearGradient id="paint3_linear_5432_585012" x1="24.5143" y1="33.3943" x2="-5.05143" y2="18.6743" gradientUnits="userSpaceOnUse">
<stop stop-color="#B1D3FF"/>
<stop offset="1" stop-color="white"/>
</linearGradient>
<linearGradient id="paint4_linear_5432_585012" x1="-16.5257" y1="57.0057" x2="17.6457" y2="34.2972" gradientUnits="userSpaceOnUse">
<stop stop-color="#B1D3FF"/>
<stop offset="1" stop-color="white"/>
</linearGradient>
<linearGradient id="paint5_linear_5432_585012" x1="-16.5257" y1="57.0057" x2="17.6457" y2="34.2972" gradientUnits="userSpaceOnUse">
<stop stop-color="#B1D3FF"/>
<stop offset="1" stop-color="white"/>
</linearGradient>
<linearGradient id="paint6_linear_5432_585012" x1="-16.5257" y1="57.0057" x2="17.6457" y2="34.2972" gradientUnits="userSpaceOnUse">
<stop stop-color="#B1D3FF"/>
<stop offset="1" stop-color="white"/>
</linearGradient>
<linearGradient id="paint7_linear_5432_585012" x1="-16.5257" y1="57.0057" x2="17.6457" y2="34.2972" gradientUnits="userSpaceOnUse">
<stop stop-color="#B1D3FF"/>
<stop offset="1" stop-color="white"/>
</linearGradient>
<linearGradient id="paint8_linear_5432_585012" x1="-16.5257" y1="57.0057" x2="17.6457" y2="34.2972" gradientUnits="userSpaceOnUse">
<stop stop-color="#B1D3FF"/>
<stop offset="1" stop-color="white"/>
</linearGradient>
<linearGradient id="paint9_linear_5432_585012" x1="46.64" y1="43.0972" x2="28.1371" y2="33.5772" gradientUnits="userSpaceOnUse">
<stop stop-color="#B1D3FF"/>
<stop offset="1" stop-color="white" stop-opacity="0"/>
</linearGradient>
<linearGradient id="paint10_linear_5432_585012" x1="23.7451" y1="32.0945" x2="21.7451" y2="23.1117" gradientUnits="userSpaceOnUse">
<stop stop-color="#85DAFF"/>
<stop offset="1" stop-color="#E8DEFF" stop-opacity="0"/>
</linearGradient>
<linearGradient id="paint11_linear_5432_585012" x1="13.4665" y1="32.0899" x2="11.4665" y2="23.1071" gradientUnits="userSpaceOnUse">
<stop stop-color="#85DAFF"/>
<stop offset="1" stop-color="#E8DEFF" stop-opacity="0"/>
</linearGradient>
<linearGradient id="paint12_linear_5432_585012" x1="13.4654" y1="43.5099" x2="11.4654" y2="34.527" gradientUnits="userSpaceOnUse">
<stop stop-color="#85DAFF"/>
<stop offset="1" stop-color="#E8DEFF" stop-opacity="0"/>
</linearGradient>
<linearGradient id="paint13_linear_5432_585012" x1="23.7477" y1="43.5099" x2="21.7477" y2="34.527" gradientUnits="userSpaceOnUse">
<stop stop-color="#85DAFF"/>
<stop offset="1" stop-color="#E8DEFF" stop-opacity="0"/>
</linearGradient>
<linearGradient id="paint14_linear_5432_585012" x1="34.0357" y1="43.5099" x2="32.0357" y2="34.527" gradientUnits="userSpaceOnUse">
<stop stop-color="#85DAFF"/>
<stop offset="1" stop-color="#E8DEFF" stop-opacity="0"/>
</linearGradient>
<linearGradient id="paint15_linear_5432_585012" x1="34.0404" y1="32.0954" x2="32.0404" y2="23.1126" gradientUnits="userSpaceOnUse">
<stop stop-color="#85DAFF"/>
<stop offset="1" stop-color="#E8DEFF" stop-opacity="0"/>
</linearGradient>
<linearGradient id="paint16_linear_5432_585012" x1="21.6686" y1="37.5429" x2="23.1314" y2="15.6114" gradientUnits="userSpaceOnUse">
<stop stop-color="#CC524A"/>
<stop offset="1" stop-color="#FD665B"/>
</linearGradient>
<linearGradient id="paint17_linear_5432_585012" x1="5.22286" y1="11.68" x2="7.48571" y2="21.8629" gradientUnits="userSpaceOnUse">
<stop stop-color="#FD665B"/>
<stop offset="1" stop-color="#994742"/>
</linearGradient>
<linearGradient id="paint18_linear_5432_585012" x1="41.2748" y1="28.5109" x2="44.4167" y2="42.3958" gradientUnits="userSpaceOnUse">
<stop stop-color="#D1F1FF"/>
<stop offset="1" stop-color="#34BFFA"/>
</linearGradient>
<linearGradient id="paint19_linear_5432_585012" x1="48.9208" y1="29.9604" x2="46.9271" y2="47.1896" gradientUnits="userSpaceOnUse">
<stop stop-color="#E5F7FF"/>
<stop offset="0.999" stop-color="#32BEFA"/>
</linearGradient>
<linearGradient id="paint20_linear_5432_585012" x1="43.6334" y1="18.2104" x2="18.3745" y2="58.1627" gradientUnits="userSpaceOnUse">
<stop offset="0.0012901" stop-color="#D1F1FF"/>
<stop offset="0.290086" stop-color="#85DAFF"/>
<stop offset="0.637502" stop-color="#32BEFA"/>
<stop offset="1" stop-color="#325E9F"/>
</linearGradient>
<linearGradient id="paint21_linear_5432_585012" x1="32.2749" y1="27.7085" x2="18.9092" y2="45.8849" gradientUnits="userSpaceOnUse">
<stop offset="0.0012901" stop-color="#D1F1FF"/>
<stop offset="0.3278" stop-color="#85DAFF"/>
<stop offset="0.7656" stop-color="#32BEFA"/>
<stop offset="1" stop-color="#325E9F"/>
</linearGradient>
<linearGradient id="paint22_linear_5432_585012" x1="64" y1="43.7667" x2="45.3962" y2="43.8503" gradientUnits="userSpaceOnUse">
<stop offset="0.00173748" stop-color="#25255C"/>
<stop offset="1" stop-color="#9D95DD"/>
</linearGradient>
<linearGradient id="paint23_linear_5432_585012" x1="10.9292" y1="43.375" x2="42.4276" y2="26.5931" gradientUnits="userSpaceOnUse">
<stop stop-color="#110E55"/>
<stop offset="0.56154" stop-color="#5B599D"/>
<stop offset="0.901732" stop-color="#13133C"/>
</linearGradient>
<linearGradient id="paint24_linear_5432_585012" x1="41.0439" y1="49.2505" x2="41.0444" y2="46.1167" gradientUnits="userSpaceOnUse">
<stop stop-color="#2C2643" stop-opacity="0"/>
<stop offset="1" stop-color="#2C2643" stop-opacity="0.24"/>
</linearGradient>
<linearGradient id="paint25_linear_5432_585012" x1="40.5" y1="46.1167" x2="40.5" y2="47.6836" gradientUnits="userSpaceOnUse">
<stop stop-color="#212240" stop-opacity="0.08"/>
<stop offset="1" stop-color="#212240" stop-opacity="0"/>
</linearGradient>
<linearGradient id="paint26_linear_5432_585012" x1="48.1375" y1="41.8083" x2="23.8607" y2="27.9111" gradientUnits="userSpaceOnUse">
<stop offset="0.0943126" stop-color="#9D95DD"/>
<stop offset="0.403367" stop-color="#5A589C"/>
<stop offset="0.774744" stop-color="#D2BFFF"/>
<stop offset="1" stop-color="#D2BFFF"/>
</linearGradient>
<linearGradient id="paint27_linear_5432_585012" x1="54.7314" y1="42.1254" x2="54.7316" y2="41.025" gradientUnits="userSpaceOnUse">
<stop stop-color="#2C2643" stop-opacity="0"/>
<stop offset="1" stop-color="#2C2643" stop-opacity="0.4"/>
</linearGradient>
<radialGradient id="paint28_radial_5432_585012" cx="0" cy="0" r="1" gradientUnits="userSpaceOnUse" gradientTransform="translate(45.2979 41.025) rotate(164.055) scale(1.42569 2.85138)">
<stop stop-color="white" stop-opacity="0.96"/>
<stop offset="1" stop-color="white" stop-opacity="0.64"/>
</radialGradient>
<linearGradient id="paint29_linear_5432_585012" x1="45.2979" y1="41.9063" x2="44.6838" y2="41.0748" gradientUnits="userSpaceOnUse">
<stop stop-color="#212240" stop-opacity="0.08"/>
<stop offset="1" stop-color="#212240" stop-opacity="0"/>
</linearGradient>
<linearGradient id="paint30_linear_5432_585012" x1="43.3396" y1="42.2979" x2="46.5455" y2="44.6469" gradientUnits="userSpaceOnUse">
<stop stop-color="white"/>
<stop offset="1" stop-color="white" stop-opacity="0"/>
</linearGradient>
<linearGradient id="paint31_linear_5432_585012" x1="65.9584" y1="42.5041" x2="62.5826" y2="44.8329" gradientUnits="userSpaceOnUse">
<stop stop-color="white"/>
<stop offset="1" stop-color="white" stop-opacity="0"/>
</linearGradient>
<linearGradient id="paint32_linear_5432_585012" x1="22.4854" y1="39.8552" x2="22.4854" y2="50.9809" gradientUnits="userSpaceOnUse">
<stop offset="0.000404094" stop-color="#212240"/>
<stop offset="0.2945" stop-color="#212240" stop-opacity="0"/>
</linearGradient>
<linearGradient id="paint33_linear_5432_585012" x1="38.5437" y1="39.8552" x2="38.5437" y2="50.9809" gradientUnits="userSpaceOnUse">
<stop offset="0.000404094" stop-color="#212240"/>
<stop offset="0.2945" stop-color="#212240" stop-opacity="0"/>
</linearGradient>
<linearGradient id="paint34_linear_5432_585012" x1="23.9521" y1="47.8792" x2="25.8133" y2="50.0867" gradientUnits="userSpaceOnUse">
<stop stop-color="#1A1A38"/>
<stop offset="1" stop-color="#434366"/>
</linearGradient>
<linearGradient id="paint35_linear_5432_585012" x1="40.0104" y1="47.8792" x2="41.8716" y2="50.0867" gradientUnits="userSpaceOnUse">
<stop stop-color="#1A1A38"/>
<stop offset="1" stop-color="#434366"/>
</linearGradient>
<linearGradient id="paint36_linear_5432_585012" x1="54.3062" y1="50.0333" x2="54.7364" y2="51.1687" gradientUnits="userSpaceOnUse">
<stop stop-color="#1A1A38"/>
<stop offset="1" stop-color="#434366"/>
</linearGradient>
<linearGradient id="paint37_linear_5432_585012" x1="38.3459" y1="47.3758" x2="39.0421" y2="40.9224" gradientUnits="userSpaceOnUse">
<stop offset="0.000421262" stop-color="#E6E8F5"/>
<stop offset="1" stop-color="#7EB5F0"/>
</linearGradient>
<linearGradient id="paint38_linear_5432_585012" x1="22.2875" y1="47.3758" x2="22.9837" y2="40.9224" gradientUnits="userSpaceOnUse">
<stop offset="0.000421262" stop-color="#E6E8F5"/>
<stop offset="1" stop-color="#7EB5F0"/>
</linearGradient>
<linearGradient id="paint39_linear_5432_585012" x1="38.1994" y1="51.7074" x2="37.6898" y2="45.2474" gradientUnits="userSpaceOnUse">
<stop offset="0.000421262" stop-color="#E6E8F5"/>
<stop offset="1" stop-color="#7EB5F0"/>
</linearGradient>
<linearGradient id="paint40_linear_5432_585012" x1="22.141" y1="51.7074" x2="21.6314" y2="45.2474" gradientUnits="userSpaceOnUse">
<stop offset="0.000421262" stop-color="#E6E8F5"/>
<stop offset="1" stop-color="#7EB5F0"/>
</linearGradient>
<radialGradient id="paint41_radial_5432_585012" cx="0" cy="0" r="1" gradientUnits="userSpaceOnUse" gradientTransform="translate(40.4977 50.8203) rotate(90) scale(1.56667 23.5)">
<stop stop-color="#212240" stop-opacity="0.23"/>
<stop offset="1" stop-color="#23266A" stop-opacity="0"/>
</radialGradient>
<radialGradient id="paint42_radial_5432_585012" cx="0" cy="0" r="1" gradientUnits="userSpaceOnUse" gradientTransform="translate(40.4977 50.7221) rotate(90) scale(1.07708 23.5)">
<stop stop-color="#212240" stop-opacity="0.51"/>
<stop offset="1" stop-color="#23266A" stop-opacity="0"/>
</radialGradient>
<radialGradient id="paint43_radial_5432_585012" cx="0" cy="0" r="1" gradientUnits="userSpaceOnUse" gradientTransform="translate(54.8946 50.8597) rotate(90) scale(0.5875 6.75625)">
<stop stop-color="#212240"/>
<stop offset="1" stop-color="#23266A" stop-opacity="0"/>
</radialGradient>
<radialGradient id="paint44_radial_5432_585012" cx="0" cy="0" r="1" gradientUnits="userSpaceOnUse" gradientTransform="translate(24.343 50.8208) rotate(90) scale(0.783334 7.34359)">
<stop stop-color="#212240"/>
<stop offset="1" stop-color="#23266A" stop-opacity="0"/>
</radialGradient>
<radialGradient id="paint45_radial_5432_585012" cx="0" cy="0" r="1" gradientUnits="userSpaceOnUse" gradientTransform="translate(39.6179 50.859) rotate(90) scale(0.5875 8.42065)">
<stop stop-color="#212240"/>
<stop offset="1" stop-color="#23266A" stop-opacity="0"/>
</radialGradient>
<radialGradient id="paint46_radial_5432_585012" cx="0" cy="0" r="1" gradientUnits="userSpaceOnUse" gradientTransform="translate(52.7771 50.8596) rotate(90) scale(0.391667 6.55137)">
<stop stop-color="#212240"/>
<stop offset="1" stop-color="#23266A" stop-opacity="0"/>
</radialGradient>
<radialGradient id="paint47_radial_5432_585012" cx="0" cy="0" r="1" gradientUnits="userSpaceOnUse" gradientTransform="translate(24.8701 50.8596) rotate(90) scale(0.391667 6.55137)">
<stop stop-color="#212240"/>
<stop offset="1" stop-color="#23266A" stop-opacity="0"/>
</radialGradient>
<clipPath id="clip0_5432_585012">
<rect width="64" height="64" fill="white"/>
</clipPath>
<clipPath id="clip1_5432_585012">
<rect width="64" height="64" fill="white"/>
</clipPath>
</defs>
</svg>
