<svg fill="none" xmlns="http://www.w3.org/2000/svg" viewBox="0 0 16 16"><path d="M13.667 9c.185.533-.082 1.081-.334 1.333-.14.14-.396.455-.694.821-.413.508-.907 1.114-1.278 1.485l-.025.025c-.111.115-.37.383-.776.383H5.649c-.31 0-.553-.255-.63-.555-.246-.955-1.114-1.66-2.145-1.66-.327 0-.697.056-.999.177-.318.127-.67.066-.824-.24l-.011-.024c-.146-.292-.045-.656.236-.823.06-.036.109-.064.135-.076.449-.21.911-.312 1.463-.312 1.338 0 2.4.795 2.983 1.682.138.21.364.354.616.354h3.78c.195 0 .38-.085.505-.234.516-.614.918-1.142 1.272-1.607l.303-.396-1.63-5.739c-.045-.175-.203-.298-.384-.298h-1.08c-.28 0-.506-.226-.506-.504 0-.279.226-.505.505-.505h1.746c.242 0 .458.155.534.385z" fill="#2E2E2E"/><path d="M2.873 14.523c.815 0 1.476-.661 1.476-1.477s-.66-1.477-1.476-1.477-1.477.661-1.477 1.477.661 1.477 1.477 1.477" fill="#2E2E2E"/><path d="M13.949 14.523c.816 0 1.477-.661 1.477-1.477s-.661-1.477-1.477-1.477-1.477.661-1.477 1.477.661 1.477 1.477 1.477" fill="#2E2E2E"/><path d="m13.667 9-2.149-6.328c-.076-.23-.185-.672-.851-.672H9.333c-.368 0-.666.298-.666.667 0 .368.298.666.666.666H10c.181 0 .288.158.333.334l2 5.666.153.306c.11.221.337.361.584.361.338 0 .62-.257.651-.594l.007-.073q-.005-.166-.061-.333" fill="#4583D4"/></svg>