<svg fill="none" xmlns="http://www.w3.org/2000/svg" viewBox="0 0 16 16"><path fill-rule="evenodd" clip-rule="evenodd" d="M10.672 4.5h.828c.414 0 .75-.336.75-.75S11.914 3 11.5 3H9.89c-.73 0-1.213.756-.907 1.42l.393.85-2.538 1.757L6.134 5.5h.398c.414 0 .75-.336.75-.75S6.946 4 6.532 4H3.95c-.414 0-.75.336-.75.75s.336.75.75.75h.53l.803 1.738C4.76 6.928 4.152 6.75 3.5 6.75c-1.933 0-3.5 1.567-3.5 3.5s1.567 3.5 3.5 3.5S7 12.183 7 10.25c0-.47-.093-.92-.261-1.33l.19-.132q.031-.02.059-.04l3.026-2.095.372.807C9.544 8.1 9 9.111 9 10.25c0 1.933 1.567 3.5 3.5 3.5s3.5-1.567 3.5-3.5-1.567-3.5-3.5-3.5q-.388 0-.752.081zm.37 4.38.777 1.684c.174.376.62.54.995.367.376-.174.54-.62.367-.995l-.777-1.684.096-.002c1.105 0 2 .895 2 2s-.895 2-2 2-2-.895-2-2c0-.53.206-1.011.542-1.37m-6.444-.302L3.073 9.633c-.34.236-.425.703-.19 1.044.236.34.703.425 1.044.19L5.452 9.81q.047.212.048.439c0 1.105-.895 2-2 2s-2-.895-2-2 .895-2 2-2c.405 0 .783.12 1.098.328" fill="currentColor"/></svg>