<svg fill="none" xmlns="http://www.w3.org/2000/svg" viewBox="0 0 16 16"><path fill-rule="evenodd" clip-rule="evenodd" d="M8 15c3.866 0 7-3.134 7-7s-3.134-7-7-7-7 3.134-7 7 3.134 7 7 7" fill="url(#paint0_linear_10383_994)"/><path d="M7.428 10.333V7.965H5.156v.77h1.437c-.051.321-.378.886-1.219.886-.763 0-1.437-.533-1.437-1.56 0-1.077.744-1.546 1.43-1.546.739 0 1.117.469 1.233.873l.847-.302c-.225-.7-.886-1.399-2.08-1.399-1.231 0-2.328.905-2.328 2.375s1.045 2.367 2.271 2.367c.687 0 1.136-.308 1.341-.616l.058.52z" fill="white"/><path d="M9.624 9.653c-.417 0-.802-.308-.802-.898 0-.597.385-.899.802-.899s.802.302.802.899c0 .596-.385.898-.802.898m0-2.573c-.944 0-1.656.7-1.656 1.675 0 .969.712 1.674 1.656 1.674.943 0 1.655-.705 1.655-1.674 0-.976-.712-1.675-1.655-1.675" fill="white"/><path d="M12.856 5.784h-1.033l.206 3.163h.622zm-1.02 4.094c0 .282.225.506.5.506.283 0 .514-.224.514-.506s-.231-.514-.513-.514c-.276 0-.5.231-.5.514" fill="white"/><defs><linearGradient id="paint0_linear_10383_994" x1="19.375" y1="4.15" x2="13.1783" y2="-2.9675" gradientUnits="userSpaceOnUse"><stop offset="0.0175348" stop-color="#70D6B1"/><stop offset="1" stop-color="#4A2B8D"/></linearGradient></defs></svg>