<svg fill="none" xmlns="http://www.w3.org/2000/svg" viewBox="0 0 16 16"><g clip-path="url(#clip0_0_74)"><path d="M0 4c0-2.21 1.79-4 4-4h8c2.21 0 4 1.79 4 4v8c0 2.21-1.79 4-4 4H4c-2.21 0-4-1.79-4-4z" fill="#7145D6"/><path d="M8 5.188C6.447 5.188 5.188 6.447 5.188 8S6.447 10.813 8 10.813c1.165 0 2.165-.71 2.592-1.72h2.288C12.381 11.33 10.386 13 8 13c-2.761 0-5-2.239-5-5s2.239-5 5-5c2.386 0 4.381 1.67 4.88 3.906h-2.288C10.165 5.896 9.165 5.188 8 5.188" fill="white"/></g><defs><clipPath id="clip0_0_74"><rect width="16" height="16" fill="white"/></clipPath></defs></svg>