<svg fill="none" xmlns="http://www.w3.org/2000/svg" viewBox="0 0 16 16"><path fill-rule="evenodd" clip-rule="evenodd" d="M5 4.5C5 3.672 5.672 3 6.5 3h7c.828 0 1.5.672 1.5 1.5v4c0 .828-.672 1.5-1.5 1.5h-7C5.672 10 5 9.328 5 8.5z" fill="#70D6B1"/><path d="M12 10V7.5C12 6.12 10.88 5 9.5 5H5v1h4.5c.828 0 1.5.672 1.5 1.5V10z" fill="#36B78B"/><path d="M1 7.5C1 6.672 1.672 6 2.5 6h7c.828 0 1.5.672 1.5 1.5v4c0 .828-.672 1.5-1.5 1.5h-7c-.828 0-1.5-.672-1.5-1.5z" fill="#70D6B1"/><path fill-rule="evenodd" clip-rule="evenodd" d="M1 7.5C1 6.672 1.672 6 2.5 6H4L1 9zM4 13H2.5c-.828 0-1.5-.672-1.5-1.5V10zm4-7h1.5c.828 0 1.5.672 1.5 1.5V9zm3 4v1.5c0 .828-.672 1.5-1.5 1.5H8zm-3.5-.5c0 .828-.672 1.5-1.5 1.5s-1.5-.672-1.5-1.5S5.172 8 6 8s1.5.672 1.5 1.5" fill="#36B78B"/></svg>