<svg fill="none" xmlns="http://www.w3.org/2000/svg" viewBox="0 0 16 16"><g clip-path="url(#clip0_13227_1846)"><path fill-rule="evenodd" clip-rule="evenodd" d="M14 4.792c.883-.386 1.5-1.267 1.5-2.292C15.5 1.12 14.38 0 13 0s-2.5 1.12-2.5 2.5c0 1.025.617 1.906 1.5 2.292V5c0 1.105-.895 2-2 2H6c-2.21 0-4 1.79-4 4v.208C1.117 11.594.5 12.475.5 13.5.5 14.88 1.62 16 3 16s2.5-1.12 2.5-2.5c0-1.025-.617-1.906-1.5-2.292V11c0-1.105.895-2 2-2h4c2.21 0 4-1.79 4-4zM3 14.5c.552 0 1-.448 1-1s-.448-1-1-1-1 .448-1 1 .448 1 1 1" fill="currentColor"/><path d="M13 9.5c-.552 0-1 .448-1 1v2.086l-.293-.293c-.39-.39-1.024-.39-1.414 0s-.39 1.024 0 1.414l2 2c.191.191.44.289.692.293h.03q.196-.005.366-.075c.118-.049.23-.122.326-.218h.001l2-2c.39-.39.39-1.024 0-1.414-.391-.39-1.025-.39-1.415 0l-.293.293V10.5c0-.552-.448-1-1-1" fill="currentColor"/></g><defs><clipPath id="clip0_13227_1846"><rect width="16" height="16" fill="white"/></clipPath></defs></svg>