<svg fill="none" xmlns="http://www.w3.org/2000/svg" viewBox="0 0 16 16"><g clip-path="url(#clip0_760_194)"><path d="m3.55 9.515 10.764-5.377c.276-.138.569.154.43.43L9.364 15.322c-.152.303-.608.195-.608-.143v-4.736c0-.177-.144-.32-.321-.32h-4.74c-.339 0-.447-.457-.144-.608" fill="currentColor"/><path d="M2.436 5.682c1.16-2.313 3.555-3.899 6.319-3.899.872 0 1.706.158 2.476.446.332.124.702-.044.827-.376.124-.332-.044-.701-.376-.826C10.77.687 9.783.5 8.755.5 5.486.5 2.658 2.377 1.288 5.108c-.159.316-.03.702.287.86.317.16.702.031.861-.286" fill="currentColor"/><path d="M4.734 6.83c.74-1.473 2.263-2.481 4.02-2.481.558 0 1.09.1 1.58.285.332.124.702-.044.827-.375.124-.332-.044-.702-.376-.826-.632-.238-1.317-.367-2.03-.367-2.263 0-4.22 1.3-5.169 3.189-.159.316-.03.702.286.86.317.16.703.031.862-.285" fill="currentColor"/></g><defs><clipPath id="clip0_760_194"><rect width="16" height="16" fill="white"/></clipPath></defs></svg>