<svg width="64" height="64" viewBox="0 0 64 64" fill="none" xmlns="http://www.w3.org/2000/svg">
<g clip-path="url(#clip0_27008_2144)">
<path d="M60.743 28.9799C62.5091 39.5881 58.8127 49.6245 51.6971 56.2306L51.9802 56.3099L49.4215 58.1156C48.997 58.4383 48.5271 58.7666 48.0799 59.0723L48.0403 59.1119C44.4627 61.4894 40.2964 63.1141 35.7226 63.7254C19.0574 65.9614 3.24135 54.0116 0.439293 37.0238C-1.57026 24.9098 3.54702 13.5148 12.7174 7.15213L16.0289 4.81426L15.5195 5.4426C18.5253 3.81797 21.8821 2.71978 25.4993 2.24994C42.1645 0.0139587 57.9805 11.9637 60.7826 28.9516L60.743 28.9742V28.9799Z" fill="#9EA1BE"/>
<path d="M28.5222 2.00659C27.5202 2.04056 26.5069 2.1198 25.4937 2.25566C21.8765 2.7255 18.5197 3.81802 15.5138 5.44831L16.0233 4.81997L12.7118 7.15785C3.54704 13.5205 -1.57591 24.9212 0.433645 37.0295L3.21872 35.0596L10.1758 36.0445L28.5222 2.01225V2.00659Z" fill="#2EAEE4"/>
<path d="M7.09633 38.156L3.21873 35.0596L0.433651 37.0295C3.24137 54.0173 19.0518 65.9671 35.7169 63.7311C36.1981 63.6689 36.6793 63.584 37.1491 63.499L37.3699 61.8857L25.5843 56.4741L7.09067 38.156H7.09633Z" fill="#A64707"/>
<path d="M28.2618 0.268681C11.5966 2.48202 0.377037 18.0717 3.21872 35.0595C6.04342 52.0473 21.8368 63.9971 38.502 61.7611C55.1672 59.5478 66.3867 43.9582 63.562 26.9703C60.7373 9.99947 44.9213 -1.9673 28.2561 0.268681H28.2618Z" fill="#F3F3F7"/>
<path d="M35.6094 45.5092L9.01532 34.2839L3.2244 35.0595C5.98683 51.6624 21.1349 63.4423 37.3755 61.8856L35.6094 45.5148V45.5092Z" fill="#EA8C2E"/>
<path d="M30.1581 5.986L29.5354 0.132812C29.1109 0.172438 28.6863 0.212061 28.2618 0.268669C11.5966 2.48201 0.377035 18.0716 3.21872 35.0595L9.00965 34.284L30.1581 5.98034V5.986Z" fill="#B0E5FE"/>
<path d="M29.5354 0.132813L30.1581 5.986L57.7315 27.7628L63.5677 26.9703C60.8166 10.4353 45.7308 -1.34464 29.5411 0.132813H29.5354Z" fill="#FDDB61"/>
<path d="M29.2354 6.2011C15.7799 7.98989 6.71708 20.568 9.00967 34.284C11.2853 47.9999 24.0502 57.6514 37.5058 55.8457C50.9613 54.0569 60.0241 41.4787 57.7315 27.7628C55.4559 14.0469 42.691 4.39533 29.2354 6.2011Z" fill="#CF9A04"/>
<path d="M35.6094 45.5093L36.7359 55.9307C36.9963 55.9024 37.251 55.8798 37.5114 55.8458C50.9669 54.057 60.0298 41.4789 57.7372 27.7629L33.4357 30.8763L35.6151 45.5093H35.6094Z" fill="#C0C2D8"/>
<path d="M35.6094 45.5092L33.4357 31.0234L8.93605 33.7349C8.96436 33.9217 8.98134 34.1029 9.0153 34.2897C11.2456 47.7396 23.569 57.2779 36.7359 55.9363L35.6094 45.5149V45.5092Z" fill="#D06204"/>
<path d="M31.245 16.2375L30.1695 6.09912C29.8581 6.12742 29.5468 6.15573 29.2354 6.20101C15.961 7.96716 6.96615 20.234 8.93608 33.7348L21.1802 32.3819L31.245 16.2431V16.2375Z" fill="#63D0FD"/>
<path d="M35.6094 45.5093L35.5188 40.109L21.1802 32.3765L18.3102 32.6935L19.5613 41.0827L35.9207 48.385L35.6094 45.5093Z" fill="#FEB54E"/>
<path d="M49.9027 38.1558L48.5328 28.9402L33.43 30.8762L35.6094 45.5091L35.9207 48.3848L49.9027 38.1558Z" fill="#F3F3F7"/>
<path d="M33.43 30.8763L48.5328 28.9403L47.2988 20.6643L30.9449 13.3677L31.245 16.2377L33.43 30.8763Z" fill="#FFF3C6"/>
<path d="M16.9573 23.6023L18.3102 32.6934L21.1802 32.3764L31.245 16.2377L30.945 13.3677L16.9573 23.6023Z" fill="#E7F5FE"/>
<path d="M31.245 16.2375L19.6518 24.723L21.8312 39.3559L35.6094 45.5091L47.2082 37.0237L45.0288 22.3908L31.2506 16.2375H31.245Z" fill="#8A6EE4"/>
<path d="M47.2082 37.0237L35.6094 45.5091L21.8312 39.3559L19.6518 24.7229C33.8036 20.0075 32.5243 38.4671 47.2082 37.018V37.0237Z" fill="#7145D6"/>
<path d="M30.1694 6.09917C29.8581 6.12747 29.5467 6.15578 29.2354 6.20106C22.3463 7.1181 16.612 10.8768 12.9552 16.1583C16.6742 12.2184 21.6953 9.47296 27.5259 8.69744C28.4938 8.56725 29.4618 8.49931 30.4185 8.48233L30.1638 6.09351L30.1694 6.09917Z" fill="#2EAEE4"/>
<path d="M56.4069 27.9328C56.7126 28.9687 56.9616 30.0272 57.1428 31.1141C57.5277 33.3501 57.6126 35.5464 57.4258 37.6805C58.1334 34.6464 58.2862 31.4028 57.7768 28.0743C57.7598 27.9724 57.7485 27.8648 57.7315 27.7629L56.4069 27.9328Z" fill="#9EA1BE"/>
<path d="M57.7315 27.7628L56.4125 27.9326C53.0274 16.3508 42.2437 8.26724 30.4242 8.488L30.1694 6.09918C43.274 4.84816 55.5068 14.3638 57.7315 27.7628Z" fill="#AD7708"/>
<path d="M60.743 28.9799C62.5091 39.5881 58.8127 49.6245 51.6971 56.2306L51.9802 56.3099L49.4215 58.1156C48.997 58.4383 48.5271 58.7666 48.0799 59.0723L48.0403 59.1119C44.4627 61.4894 40.2964 63.1141 35.7226 63.7254C19.0574 65.9614 3.24135 54.0116 0.439293 37.0238C-1.57026 24.9098 3.54702 13.5148 12.7174 7.15213L16.0289 4.81426L15.5195 5.4426C18.5253 3.81797 21.8821 2.71978 25.4993 2.24994C42.1645 0.0139587 57.9805 11.9637 60.7826 28.9516L60.743 28.9742V28.9799Z" fill="#9EA1BE"/>
<path d="M28.5222 2.00659C27.5202 2.04056 26.5069 2.1198 25.4937 2.25566C21.8765 2.7255 18.5197 3.81802 15.5138 5.44831L16.0233 4.81997L12.7118 7.15785C3.54704 13.5205 -1.57591 24.9212 0.433645 37.0295L3.21872 35.0596L10.1758 36.0445L28.5222 2.01225V2.00659Z" fill="#2EAEE4"/>
<path d="M7.09633 38.156L3.21873 35.0596L0.433651 37.0295C3.24137 54.0173 19.0518 65.9671 35.7169 63.7311C36.1981 63.6689 36.6793 63.584 37.1491 63.499L37.3699 61.8857L25.5843 56.4741L7.09067 38.156H7.09633Z" fill="#A64707"/>
<path d="M28.2618 0.268681C11.5966 2.48202 0.377037 18.0717 3.21872 35.0595C6.04342 52.0473 21.8368 63.9971 38.502 61.7611C55.1672 59.5478 66.3867 43.9582 63.562 26.9703C60.7373 9.99947 44.9213 -1.9673 28.2561 0.268681H28.2618Z" fill="#F3F3F7"/>
<path d="M35.6094 45.5092L9.01532 34.2839L3.2244 35.0595C5.98683 51.6624 21.1349 63.4423 37.3755 61.8856L35.6094 45.5148V45.5092Z" fill="#EA8C2E"/>
<path d="M30.1581 5.986L29.5354 0.132812C29.1109 0.172438 28.6863 0.212061 28.2618 0.268669C11.5966 2.48201 0.377035 18.0716 3.21872 35.0595L9.00965 34.284L30.1581 5.98034V5.986Z" fill="#B0E5FE"/>
<path d="M29.5354 0.132813L30.1581 5.986L57.7315 27.7628L63.5677 26.9703C60.8166 10.4353 45.7308 -1.34464 29.5411 0.132813H29.5354Z" fill="#FDDB61"/>
<path d="M29.2354 6.2011C15.7799 7.98989 6.71708 20.568 9.00967 34.284C11.2853 47.9999 24.0502 57.6514 37.5058 55.8457C50.9613 54.0569 60.0241 41.4787 57.7315 27.7628C55.4559 14.0469 42.691 4.39533 29.2354 6.2011Z" fill="#CF9A04"/>
<path d="M35.6094 45.5093L36.7359 55.9307C36.9963 55.9024 37.251 55.8798 37.5114 55.8458C50.9669 54.057 60.0298 41.4789 57.7372 27.7629L33.4357 30.8763L35.6151 45.5093H35.6094Z" fill="#C0C2D8"/>
<path d="M35.6094 45.5092L33.4357 31.0234L8.93605 33.7349C8.96436 33.9217 8.98134 34.1029 9.0153 34.2897C11.2456 47.7396 23.569 57.2779 36.7359 55.9363L35.6094 45.5149V45.5092Z" fill="#D06204"/>
<path d="M31.245 16.2375L30.1695 6.09912C29.8581 6.12742 29.5468 6.15573 29.2354 6.20101C15.961 7.96716 6.96615 20.234 8.93608 33.7348L21.1802 32.3819L31.245 16.2431V16.2375Z" fill="#63D0FD"/>
<path d="M35.6094 45.5093L35.5188 40.109L21.1802 32.3765L18.3102 32.6935L19.5613 41.0827L35.9207 48.385L35.6094 45.5093Z" fill="#FEB54E"/>
<path d="M49.9027 38.1558L48.5328 28.9402L33.43 30.8762L35.6094 45.5091L35.9207 48.3848L49.9027 38.1558Z" fill="#F3F3F7"/>
<path d="M33.43 30.8763L48.5328 28.9403L47.2988 20.6643L30.9449 13.3677L31.245 16.2377L33.43 30.8763Z" fill="#FFF3C6"/>
<path d="M16.9573 23.6023L18.3102 32.6934L21.1802 32.3764L31.245 16.2377L30.945 13.3677L16.9573 23.6023Z" fill="#E7F5FE"/>
<path d="M31.245 16.2375L19.6518 24.723L21.8312 39.3559L35.6094 45.5091L47.2082 37.0237L45.0288 22.3908L31.2506 16.2375H31.245Z" fill="#8A6EE4"/>
<path d="M47.2082 37.0237L35.6094 45.5091L21.8312 39.3559L19.6518 24.7229C33.8036 20.0075 32.5243 38.4671 47.2082 37.018V37.0237Z" fill="#7145D6"/>
<path d="M30.1694 6.09917C29.8581 6.12747 29.5467 6.15578 29.2354 6.20106C22.3463 7.1181 16.612 10.8768 12.9552 16.1583C16.6742 12.2184 21.6953 9.47296 27.5259 8.69744C28.4938 8.56725 29.4618 8.49931 30.4185 8.48233L30.1638 6.09351L30.1694 6.09917Z" fill="#2EAEE4"/>
<path d="M56.4069 27.9328C56.7126 28.9687 56.9616 30.0272 57.1428 31.1141C57.5277 33.3501 57.6126 35.5464 57.4258 37.6805C58.1334 34.6464 58.2862 31.4028 57.7768 28.0743C57.7598 27.9724 57.7485 27.8648 57.7315 27.7629L56.4069 27.9328Z" fill="#9EA1BE"/>
<path d="M57.7315 27.7628L56.4125 27.9326C53.0274 16.3508 42.2437 8.26724 30.4242 8.488L30.1694 6.09918C43.274 4.84816 55.5068 14.3638 57.7315 27.7628Z" fill="#AD7708"/>
</g>
<defs>
<clipPath id="clip0_27008_2144">
<rect width="64" height="64" fill="white"/>
</clipPath>
</defs>
</svg>
