<svg fill="none" xmlns="http://www.w3.org/2000/svg" viewBox="0 0 16 16"><g clip-path="url(#clip0_15177_48)"><path d="M15.992 7.998C15.992 3.582 12.41 0 7.996 0S0 3.582 0 7.998s3.58 7.999 7.996 7.999c4.415 0 7.996-3.582 7.996-7.999" fill="#EA8C2E"/><path d="M12 14.925c1.261-.728 2.247-1.75 2.926-2.928L8.001 7.998 6.265 9.001c-3.324 1.92-1.956 7.061 1.882 6.998 1.31-.023 2.636-.368 3.855-1.07z" fill="#EA8C2E"/><path d="M0 7.998c0 1.457.391 2.823 1.07 4l6.926-4V0C3.58 0 0 3.582 0 7.998" fill="#EFBD03"/><path d="M0 7.998c0 1.457.391 2.822 1.07 4l6.926-4V5.993c0-3.84-5.138-5.225-7-1.868C.364 5.27 0 6.593 0 7.998" fill="#EFBD03"/><path d="M15.997 7.998c0 1.457-.391 2.822-1.07 4L8 7.997V0C12.42 0 16 3.582 16 7.998z" fill="#CBCBEB"/><path d="M11.994 1.068C10.732.34 9.355 0 7.996 0V8l1.739 1.003c3.324 1.917 7.09-1.84 5.114-5.13-.676-1.126-1.639-2.1-2.855-2.803z" fill="#CBCBEB"/><g filter="url(#filter0_dd_15177_48)"><path d="m8 4.173 3.315 1.913v3.828L8 11.827 4.686 9.914V6.086z" fill="url(#paint0_linear_15177_48)"/></g><g filter="url(#filter1_dd_15177_48)"><path d="m8 4.762 2.804 1.619v3.238L8 11.24l-2.804-1.62V6.381z" fill="url(#paint1_linear_15177_48)"/></g></g><defs><filter id="filter0_dd_15177_48" x="3.75968" y="3.55557" width="8.4807" height="9.50622" filterUnits="userSpaceOnUse" color-interpolation-filters="sRGB"><feFlood flood-opacity="0" result="BackgroundImageFix"/><feColorMatrix in="SourceAlpha" type="matrix" values="0 0 0 0 0 0 0 0 0 0 0 0 0 0 0 0 0 0 127 0" result="hardAlpha"/><feOffset dy="0.308643"/><feGaussianBlur stdDeviation="0.462965"/><feColorMatrix type="matrix" values="0 0 0 0 0.196078 0 0 0 0 0.196078 0 0 0 0 0.321569 0 0 0 0.16 0"/><feBlend mode="normal" in2="BackgroundImageFix" result="effect1_dropShadow_15177_48"/><feColorMatrix in="SourceAlpha" type="matrix" values="0 0 0 0 0 0 0 0 0 0 0 0 0 0 0 0 0 0 127 0" result="hardAlpha"/><feOffset/><feGaussianBlur stdDeviation="0.154322"/><feColorMatrix type="matrix" values="0 0 0 0 0.196078 0 0 0 0 0.196078 0 0 0 0 0.321569 0 0 0 0.08 0"/><feBlend mode="normal" in2="effect1_dropShadow_15177_48" result="effect2_dropShadow_15177_48"/><feBlend mode="normal" in="SourceGraphic" in2="effect2_dropShadow_15177_48" result="shape"/></filter><filter id="filter1_dd_15177_48" x="4.26987" y="4.14468" width="7.46035" height="8.32799" filterUnits="userSpaceOnUse" color-interpolation-filters="sRGB"><feFlood flood-opacity="0" result="BackgroundImageFix"/><feColorMatrix in="SourceAlpha" type="matrix" values="0 0 0 0 0 0 0 0 0 0 0 0 0 0 0 0 0 0 127 0" result="hardAlpha"/><feOffset dy="0.308643"/><feGaussianBlur stdDeviation="0.462965"/><feColorMatrix type="matrix" values="0 0 0 0 0.196078 0 0 0 0 0.196078 0 0 0 0 0.321569 0 0 0 0.16 0"/><feBlend mode="normal" in2="BackgroundImageFix" result="effect1_dropShadow_15177_48"/><feColorMatrix in="SourceAlpha" type="matrix" values="0 0 0 0 0 0 0 0 0 0 0 0 0 0 0 0 0 0 127 0" result="hardAlpha"/><feOffset/><feGaussianBlur stdDeviation="0.154322"/><feColorMatrix type="matrix" values="0 0 0 0 0.196078 0 0 0 0 0.196078 0 0 0 0 0.321569 0 0 0 0.08 0"/><feBlend mode="normal" in2="effect1_dropShadow_15177_48" result="effect2_dropShadow_15177_48"/><feBlend mode="normal" in="SourceGraphic" in2="effect2_dropShadow_15177_48" result="shape"/></filter><linearGradient id="paint0_linear_15177_48" x1="4.68561" y1="4.17285" x2="11.759" y2="4.60846" gradientUnits="userSpaceOnUse"><stop stop-color="#D1F1FF"/><stop offset="1" stop-color="#E8DEFF"/></linearGradient><linearGradient id="paint1_linear_15177_48" x1="5.1958" y1="4.76196" x2="11.2381" y2="5.19579" gradientUnits="userSpaceOnUse"><stop stop-color="#8C5CFF"/><stop offset="1" stop-color="#372D5E"/></linearGradient><clipPath id="clip0_15177_48"><rect width="16" height="16" fill="white"/></clipPath></defs></svg>