<svg fill="none" xmlns="http://www.w3.org/2000/svg" viewBox="0 0 16 16"><path fill-rule="evenodd" clip-rule="evenodd" d="M14.526 1.15c.294.182.474.503.474.85v10c0 .379-.214.725-.553.894l-4 2c-.281.141-.613.141-.894 0L6 13.118l-3.553 1.776c-.31.155-.678.139-.973-.043C1.18 14.668 1 14.347 1 14V4c0-.379.214-.725.553-.894l4-2c.281-.141.613-.141.894 0L10 2.882l3.553-1.776c.31-.155.678-.139.973.043M3 4.617v7.764l2.25-1.125V3.493zm6.25 7.889-2.5-1.25V3.493l2.5 1.25zm1.5 0L13 11.382V3.618l-2.25 1.125z" fill="currentColor"/></svg>