<svg fill="none" xmlns="http://www.w3.org/2000/svg" viewBox="0 0 16 16"><g clip-path="url(#clip0_0_264)"><path fill-rule="evenodd" clip-rule="evenodd" d="M15.5 2.5c0 1.025-.617 1.906-1.5 2.292V5c0 2.21-1.79 4-4 4H6c-1.105 0-2 .895-2 2v.208c.883.386 1.5 1.267 1.5 2.292C5.5 14.88 4.38 16 3 16S.5 14.88.5 13.5c0-1.025.617-1.906 1.5-2.292V11c0-2.21 1.79-4 4-4h4c1.105 0 2-.895 2-2v-.208c-.883-.386-1.5-1.267-1.5-2.292C10.5 1.12 11.62 0 13 0s2.5 1.12 2.5 2.5M4 13.5c0 .552-.448 1-1 1s-1-.448-1-1 .448-1 1-1 1 .448 1 1" fill="currentColor"/></g><defs><clipPath id="clip0_0_264"><rect width="16" height="16" fill="white"/></clipPath></defs></svg>