<svg fill="none" xmlns="http://www.w3.org/2000/svg" viewBox="0 0 16 16"><path d="M3.5 12c.69 0 1.25.56 1.25 1.25S4.19 14.5 3.5 14.5s-1.25-.56-1.25-1.25S2.81 12 3.5 12" fill="currentColor"/><path d="M12.25 12c.69 0 1.25.56 1.25 1.25s-.56 1.25-1.25 1.25S11 13.94 11 13.25 11.56 12 12.25 12" fill="currentColor"/><path d="M7 4.6c.552 0 1 .448 1 1v.538q.218.053.5.137c1.808.538 2.724 1.734 3.218 2.38.115.15.207.27.282.345.348.103 2.178.554 3.238.814.448.11.762.51.762.972v1.713c0 .829-.672 1.5-1.501 1.5h-.395c.094-.23.146-.484.146-.749 0-1.104-.895-2-2-2s-2 .896-2 2c0 .264.052.517.145.747L5.355 14c.094-.23.145-.484.145-.749 0-1.104-.895-2-2-2s-2 .896-2 2c0 .262.05.512.142.74C1.25 14 0 13.25 0 11.5l.443-2.215c.036-.176.162-.32.332-.376l.874-.292c.227-.076.418-.23.563-.42C2.685 7.582 3.948 6.22 6 6.025V5.6c0-.552.448-1 1-1" fill="currentColor"/><path d="M5.384 3.41c.878-.88 2.303-.88 3.181 0 .196.195.196.511 0 .707-.195.194-.511.195-.707 0-.488-.489-1.279-.489-1.767 0-.195.194-.512.195-.707 0-.195-.196-.195-.512 0-.707" fill="currentColor"/><path d="M4.172 2.171C5.734.61 8.266.61 9.828 2.171c.195.195.195.512 0 .707-.195.196-.512.196-.707 0-1.171-1.17-3.07-1.17-4.242 0-.195.196-.512.196-.707 0-.195-.195-.195-.512 0-.707" fill="currentColor"/></svg>