<svg width="32" height="32" viewBox="0 0 32 32" fill="none" xmlns="http://www.w3.org/2000/svg">
<circle cx="16" cy="16" r="9" fill="#7145D6"/>
<path d="M14.7052 15.1711L13.2422 15.0941C13.2202 14.9841 13.1982 14.7861 13.1982 14.6101C13.1982 13.2571 14.2102 12.0361 15.9922 12.0361C17.7192 12.0361 18.7532 13.1691 18.7532 14.5001C18.7532 15.5231 18.1922 16.3481 17.2572 16.9201L15.7392 17.8551C15.4092 18.0751 15.1122 18.3061 15.0022 18.6691H18.7972V20.0001H13.1322C13.1432 18.6471 13.6052 17.5801 14.9802 16.7441L16.2562 15.9521C16.9272 15.5341 17.2132 15.0941 17.2132 14.5331C17.2132 13.9281 16.8062 13.3781 15.9592 13.3781C15.0792 13.3781 14.6612 13.9831 14.6612 14.7531C14.6612 14.8961 14.6832 15.0391 14.7052 15.1711Z" fill="white"/>
</svg>
