<svg fill="none" xmlns="http://www.w3.org/2000/svg" viewBox="0 0 16 16"><path d="M7.3 3c-.166 0-.3.134-.3.3v.715Q6.757 4 6.5 4C4.151 4 2.722 5.532 2.212 6.198c-.145.189-.336.343-.563.419l-.874.291c-.17.057-.297.2-.332.377L0 9.5c0 1.75 1.25 2.5 1.641 2.49-.09-.229-.141-.478-.141-.74 0-1.104.895-2 2-2s2 .896 2 2c0 .265-.051.518-.145.75l5.04-.003c-.094-.23-.145-.483-.145-.747 0-1.105.895-2 2-2s2 .895 2 2c0 .265-.052.518-.145.75h.394c.829 0 1.501-.672 1.501-1.5V8.785c0-.461-.314-.863-.762-.972-1.06-.26-2.89-.711-3.238-.814-.075-.075-.167-.195-.282-.346-.494-.645-1.41-1.841-3.218-2.38V3.3c0-.166-.134-.3-.3-.3z" fill="currentColor"/><path d="M3.5 12.5c.69 0 1.25-.56 1.25-1.25S4.19 10 3.5 10s-1.25.56-1.25 1.25.56 1.25 1.25 1.25" fill="currentColor"/><path d="M11 11.25c0-.69.56-1.25 1.25-1.25s1.25.56 1.25 1.25-.56 1.25-1.25 1.25S11 11.94 11 11.25" fill="currentColor"/></svg>