<svg width="35" height="21" viewBox="0 0 35 21" fill="none" xmlns="http://www.w3.org/2000/svg">
<g clip-path="url(#clip0_12266_11067)">
<g clip-path="url(#clip1_12266_11067)">
<g opacity="0.08" filter="url(#filter0_f_12266_11067)">
<path fill-rule="evenodd" clip-rule="evenodd" d="M22.3358 16.6224L22.6024 16.5809L22.6053 16.5811L22.6074 16.5802L29.0731 15.5754C29.6121 15.4916 31.8402 14.437 30.8728 8.21197C29.9054 1.98696 27.4624 1.65824 26.9234 1.742L2.93853 5.46927C1.95039 5.62283 1.28011 6.63775 1.44901 7.72466L2.98453 17.6056C3.15343 18.6926 4.10011 19.4562 5.08825 19.3026L22.3358 16.6224Z" fill="#212240"/>
</g>
<g opacity="0.16" filter="url(#filter1_f_12266_11067)">
<path d="M22.9155 16.0262L23.1913 15.9834L23.1943 15.9834L23.1964 15.9826L29.8851 14.9431C30.4427 14.8565 32.759 13.8388 31.8607 8.05838C30.9625 2.27801 28.4465 2.01121 27.8889 2.09786L3.07704 5.95365C2.05482 6.11251 1.34679 7.06824 1.50363 8.07752L2.92947 17.2527C3.08631 18.262 4.05099 18.9578 5.0732 18.7989L22.9155 16.0262Z" fill="#212240"/>
</g>
<path fill-rule="evenodd" clip-rule="evenodd" d="M20.0773 3.81786L4.26906 6.27448C3.28092 6.42804 2.4033 7.3545 2.54808 8.28617L3.86429 16.7559C4.00907 17.6876 5.12361 18.2857 6.11175 18.1322L21.92 15.6755L22.0457 16.4844C22.5274 16.4095 22.7987 16.0385 22.7238 15.5568L22.7169 15.5517L29.1539 14.5514C29.6357 14.4765 31.7019 13.5482 30.8727 8.21227C30.0435 2.87631 27.793 2.61884 27.3112 2.6937L20.8801 3.6931C20.8009 3.2191 20.4321 2.95313 19.9545 3.02735L20.0773 3.81786Z" fill="url(#paint0_linear_12266_11067)"/>
<path opacity="0.2" d="M5.85684 16.9933C5.95955 17.1534 6.94769 16.9998 7.93583 16.8462L6.40025 6.96484C5.41211 7.1184 4.42397 7.27196 4.38802 7.54155C3.97202 7.8702 3.46665 8.12473 2.93457 8.20742L2.55452 8.26648L3.8898 16.859L4.26986 16.7999C4.80193 16.7172 5.36071 16.8064 5.85684 16.9933Z" fill="url(#paint1_linear_12266_11067)"/>
<path opacity="0.2" d="M24.2152 14.5188C25.0734 14.2209 25.8388 13.8553 26.5793 13.3291C27.616 12.5924 28.7704 12.0842 30.0549 11.8845L30.9949 11.7385C31.111 10.8982 31.1204 9.74555 30.8833 8.22011C30.6463 6.69467 30.3678 5.58679 29.9219 4.83383L28.982 4.9799C27.6974 5.17953 26.4432 5.04553 25.2318 4.6582C24.3666 4.38153 23.5263 4.26544 22.6182 4.24211" fill="url(#paint2_linear_12266_11067)"/>
<path d="M29.6424 5.05726C29.6424 5.05726 29.3337 5.18745 29.0983 4.73069C28.6649 4.05801 28.201 3.71897 27.9352 3.59582C27.4964 3.41735 27.4589 3.17649 27.4589 3.17649C27.4589 3.17649 28.7435 2.97686 29.6424 5.05726Z" fill="white"/>
<path d="M30.6576 11.5902C30.6576 11.5902 30.324 11.5598 30.2383 12.0665C30.0294 12.8389 29.6904 13.3028 29.4745 13.5008C29.1105 13.804 29.1479 14.0449 29.1479 14.0449C29.1479 14.0449 30.4325 13.8452 30.6576 11.5902Z" fill="white"/>
<g opacity="0.9" style="mix-blend-mode:hard-light">
<path d="M2.99072 9.18036L2.86595 8.3775C2.74119 7.57463 3.28367 6.83253 4.08653 6.70776C4.11754 6.9073 3.9704 7.04987 3.79802 7.2169C3.55424 7.45312 3.25997 7.73827 3.34767 8.30264C3.39758 8.62378 3.23158 9.14293 2.99072 9.18036Z" fill="#CE1A1B"/>
<path d="M4.00804 15.7268L4.13281 16.5296C4.25757 17.3325 4.9872 17.7947 5.80254 17.7502C5.77153 17.5507 5.58807 17.4595 5.37313 17.3527C5.06916 17.2016 4.70223 17.0192 4.61452 16.4548C4.56462 16.1336 4.2489 15.6894 4.00804 15.7268Z" fill="#CE1A1B"/>
</g>
<g opacity="0.96">
<path d="M20.0762 3.8175L20.1405 4.23132C20.3813 4.19389 20.6097 4.07617 20.8131 3.79789L20.881 3.70512C20.8803 3.70098 20.8796 3.69685 20.879 3.69274L21.6125 3.57875C22.2184 3.48459 22.8331 3.68892 23.17 4.20127C23.7374 5.06419 24.5615 6.67196 24.9439 9.13308C25.3264 11.5942 25.0291 13.3762 24.7503 14.3706C24.5848 14.961 23.9423 15.3607 23.3364 15.4549L22.7155 15.5514L22.6299 15.4888C22.3516 15.2854 22.0983 15.2425 21.8574 15.28L21.9189 15.6752L18.9749 16.1327C18.9831 16.1024 18.9897 16.0715 18.9949 16.0401C19.6501 12.0519 19.014 7.95868 17.1794 4.35739C17.1649 4.32894 17.1491 4.30146 17.1321 4.27501L20.0762 3.8175Z" fill="url(#paint3_radial_12266_11067)"/>
<path d="M6.34418 5.95146L10.6426 5.28348C10.5671 5.41363 10.5101 5.55634 10.4755 5.70817C9.61413 9.48481 10.2284 13.4495 12.1933 16.7878C12.2723 16.922 12.3697 17.0407 12.4811 17.1418L8.18687 17.8091C7.03276 17.9885 6.07192 15.5551 5.61727 14.1507C5.41205 13.5168 5.28344 12.8626 5.18112 12.2042C5.07881 11.5458 5.00283 10.8835 5.006 10.2172C5.01301 8.74103 5.19007 6.13081 6.34418 5.95146Z" fill="url(#paint4_radial_12266_11067)"/>
<path d="M14.0054 6.78513C10.3722 7.34974 7.20974 6.97201 6.33869 5.95255L21.058 3.66516C20.5374 4.90088 17.6387 6.22053 14.0054 6.78513Z" fill="url(#paint5_linear_12266_11067)"/>
<path d="M15.2339 14.6904C11.6007 15.255 8.702 16.5746 8.18141 17.8103L22.9007 15.523C22.0296 14.5035 18.8671 14.1258 15.2339 14.6904Z" fill="url(#paint6_linear_12266_11067)"/>
</g>
</g>
</g>
<defs>
<filter id="filter0_f_12266_11067" x="0.0229565" y="0.3323" width="32.4904" height="20.39" filterUnits="userSpaceOnUse" color-interpolation-filters="sRGB">
<feFlood flood-opacity="0" result="BackgroundImageFix"/>
<feBlend mode="normal" in="SourceGraphic" in2="BackgroundImageFix" result="shape"/>
<feGaussianBlur stdDeviation="0.7" result="effect1_foregroundBlur_12266_11067"/>
</filter>
<filter id="filter1_f_12266_11067" x="0.481794" y="1.08643" width="32.5835" height="18.7351" filterUnits="userSpaceOnUse" color-interpolation-filters="sRGB">
<feFlood flood-opacity="0" result="BackgroundImageFix"/>
<feBlend mode="normal" in="SourceGraphic" in2="BackgroundImageFix" result="shape"/>
<feGaussianBlur stdDeviation="0.5" result="effect1_foregroundBlur_12266_11067"/>
</filter>
<linearGradient id="paint0_linear_12266_11067" x1="36.3408" y1="4.32631" x2="1.75592" y2="9.70084" gradientUnits="userSpaceOnUse">
<stop stop-color="#2E3150"/>
<stop offset="1" stop-color="#2A2C3F"/>
</linearGradient>
<linearGradient id="paint1_linear_12266_11067" x1="5.31444" y1="10.613" x2="2.97565" y2="10.9765" gradientUnits="userSpaceOnUse">
<stop stop-color="white" stop-opacity="0"/>
<stop offset="0.999" stop-color="white"/>
</linearGradient>
<linearGradient id="paint2_linear_12266_11067" x1="23.4723" y1="9.3718" x2="31.3774" y2="8.14334" gradientUnits="userSpaceOnUse">
<stop stop-color="white" stop-opacity="0"/>
<stop offset="0.999" stop-color="white"/>
</linearGradient>
<radialGradient id="paint3_radial_12266_11067" cx="0" cy="0" r="1" gradientTransform="matrix(2.17087 12.3127 -20.5355 3.55549 15.5628 10.5909)" gradientUnits="userSpaceOnUse">
<stop stop-color="#A8B6F0"/>
<stop offset="1" stop-color="#2D2E3A" stop-opacity="0.9"/>
</radialGradient>
<radialGradient id="paint4_radial_12266_11067" cx="0" cy="0" r="1" gradientTransform="matrix(2.17087 12.3127 -20.5355 3.55549 15.5628 10.5909)" gradientUnits="userSpaceOnUse">
<stop stop-color="#A8B6F0"/>
<stop offset="1" stop-color="#2D2E3A" stop-opacity="0.9"/>
</radialGradient>
<linearGradient id="paint5_linear_12266_11067" x1="13.9204" y1="10.8462" x2="33.0751" y2="7.86952" gradientUnits="userSpaceOnUse">
<stop stop-color="#3A4060"/>
<stop offset="0.255208" stop-color="#4E567E"/>
<stop offset="0.380208" stop-color="#505881" stop-opacity="0"/>
</linearGradient>
<linearGradient id="paint6_linear_12266_11067" x1="13.9204" y1="10.8462" x2="33.0751" y2="7.86952" gradientUnits="userSpaceOnUse">
<stop stop-color="#3A4060"/>
<stop offset="0.255208" stop-color="#4E567E"/>
<stop offset="0.380208" stop-color="#505881" stop-opacity="0"/>
</linearGradient>
<clipPath id="clip0_12266_11067">
<rect width="16" height="32" fill="white" transform="translate(31.6205) rotate(81.1668)"/>
</clipPath>
<clipPath id="clip1_12266_11067">
<rect width="16" height="32" fill="white" transform="translate(31.6205) rotate(81.1668)"/>
</clipPath>
</defs>
</svg>
