<svg id="logosandtypes_com" data-name="logosandtypes com" xmlns="http://www.w3.org/2000/svg" viewBox="0 0 150 150">
  <defs>
    <style>
      .cls-1 {
        fill: none;
      }

      .cls-2 {
        fill: #006eb6;
      }
    </style>
  </defs>
  <path class="cls-1" d="M0,0H150V150H0V0Z"/>
  <path class="cls-2" d="M57.89,118.72c13.38,0,25.41-6.04,33.4-15.61,1.36-1.58,.22-4.03-1.9-4.03H26.34c-2.07,0-3.21,2.45-1.9,4.03,8.05,9.52,20.02,15.61,33.46,15.61"/>
  <path class="cls-2" d="M106.63,21.78h-16.32c-1.96,0-3.16,2.23-2.01,3.86l30.74,43.9c2.34,3.37,2.34,7.89,0,11.26l-30.74,43.85c-1.14,1.63,0,3.86,2.01,3.86h16.32c3.21,0,6.2-1.58,8.05-4.19l30.52-43.58c2.34-3.37,2.34-7.89,0-11.26l-30.57-43.52c-1.8-2.61-4.79-4.19-8-4.19"/>
  <path class="cls-2" d="M97.77,57.85c-.16-.38-.33-.71-.49-1.09-.92-1.96-1.96-3.81-3.1-5.55-7.78-11.81-21.16-19.58-36.4-19.58-13.38,0-25.41,6.04-33.4,15.61-1.36,1.58-.22,4.03,1.9,4.03h31.5c2.5,0,4.95,.38,7.24,1.14,5.06,1.63,9.41,4.9,12.4,9.14,1.14,1.63,0,3.86-2.01,3.86H7.4c-1.2,0-2.23,.87-2.39,2.07-.38,2.5-.54,5.11-.54,7.73s.22,5.22,.54,7.73c.16,1.2,1.2,2.07,2.39,2.07H79.65c7.24,0,13.6-3.97,16.97-9.79,1.69-2.88,2.61-6.26,2.61-9.79,.05-2.72-.49-5.28-1.47-7.56"/>
</svg>