<svg fill="none" xmlns="http://www.w3.org/2000/svg" viewBox="0 0 16 16"><path d="M8 9.5c.828 0 1.5-.672 1.5-1.5S8.828 6.5 8 6.5 6.5 7.172 6.5 8 7.172 9.5 8 9.5" fill="currentColor"/><path fill-rule="evenodd" clip-rule="evenodd" d="M14.25 7.25c.414 0 .75.336.75.75s-.336.75-.75.75h-1.306c-.325 2.161-2.033 3.87-4.194 4.194v1.306c0 .414-.336.75-.75.75s-.75-.336-.75-.75v-1.306c-2.161-.325-3.87-2.033-4.194-4.194H1.75C1.336 8.75 1 8.414 1 8s.336-.75.75-.75h1.306C3.38 5.089 5.089 3.38 7.25 3.056V1.75c0-.414.336-.75.75-.75s.75.336.75.75v1.306c2.161.325 3.87 2.033 4.194 4.194zM8 11.5c1.933 0 3.5-1.567 3.5-3.5S9.933 4.5 8 4.5 4.5 6.067 4.5 8s1.567 3.5 3.5 3.5" fill="currentColor"/></svg>