<svg fill="none" xmlns="http://www.w3.org/2000/svg" viewBox="0 0 16 16"><path d="M9.587 2.355c0 .75-.605 1.355-1.355 1.355s-1.355-.605-1.355-1.355S7.483 1 8.232 1c.75 0 1.355.605 1.355 1.355" fill="currentColor"/><path d="M9.705 8.452c-.307 0-.587-.171-.741-.433.018.19.063.38.135.55l2.223 5.177c.19.451-.018.984-.48 1.183-.45.19-.984-.018-1.182-.479L6.227 6.447l-.804.641c-.126.1-.217.244-.244.398l-.352 1.77c-.072.37-.425.605-.795.533s-.605-.424-.533-.795l.343-1.77c.09-.47.353-.894.723-1.193l1.527-1.219c.388-.298.894-.416 1.373-.298l1.147.289c.352.09.641.343.777.677l.578 1.446c.045.108.144.171.253.171h1.616c.37 0 .678.307.678.678 0 .37-.307.677-.678.677z" fill="currentColor"/><path d="m6.655 10.475.006-.008h-.01z" fill="currentColor"/><path d="m6.655 10.475-.31.497c-.181.299-.398.57-.642.822L4.05 13.466c-.352.352-.343.93 0 1.273.352.352.93.343 1.274 0l1.644-1.653c.226-.226.38-.506.46-.813z" fill="currentColor"/></svg>