<svg fill="none" xmlns="http://www.w3.org/2000/svg" viewBox="0 0 16 16"><g clip-path="url(#clip0_14341_25)"><path fill-rule="evenodd" clip-rule="evenodd" d="M11 3c0 2.761-2.239 5-5 5S1 5.761 1 3V2c0-.552.448-1 1-1h8c.552 0 1 .448 1 1zM2.645 4C3.075 5.446 4.415 6.5 6 6.5c1.586 0 2.925-1.054 3.355-2.5z" fill="currentColor"/><path d="M7.874 8.363C7.295 8.13 6.663 8 6 8c-2.761 0-5 2.239-5 5v1c0 .552.448 1 1 1h5.39c-.563-.863-.89-1.893-.89-3 0-1.394.519-2.668 1.374-3.637" fill="currentColor"/><path fill-rule="evenodd" clip-rule="evenodd" d="M12 16c2.21 0 4-1.79 4-4s-1.79-4-4-4-4 1.79-4 4 1.79 4 4 4m.413-1.01v-.762c.795-.127 1.233-.706 1.233-1.31 0-.61-.42-1.118-1.214-1.27l-.604-.115c-.33-.064-.476-.248-.476-.496 0-.286.273-.534.673-.534.547 0 .75.35.789.604l.756-.223c-.083-.444-.407-.978-1.157-1.106V9.01h-.655v.757c-.699.114-1.24.635-1.24 1.335 0 .635.433 1.1 1.132 1.24l.617.12c.33.07.528.254.528.515 0 .305-.261.534-.706.534-.623 0-.922-.394-.96-.82l-.775.197c.063.566.476 1.22 1.405 1.347v.757z" fill="currentColor"/></g><defs><clipPath id="clip0_14341_25"><rect width="16" height="16" fill="white"/></clipPath></defs></svg>